<mxfile host="app.diagrams.net" modified="2020-11-05T06:52:38.341Z" agent="5.0 (Macintosh; Intel Mac OS X 10_15_7) AppleWebKit/537.36 (KHTML, like Gecko) Chrome/86.0.4240.111 Safari/537.36" etag="qxaaXY0-DZIF6asTJk2L" version="13.8.9-1" type="github">
  <diagram id="oOjiU2sdXPFKCxTp4Pvt" name="FlinkKafkaConsumer">
    <mxGraphModel dx="946" dy="614" grid="1" gridSize="10" guides="1" tooltips="1" connect="1" arrows="1" fold="1" page="1" pageScale="1" pageWidth="827" pageHeight="1169" math="0" shadow="0">
      <root>
        <mxCell id="0" />
        <mxCell id="1" parent="0" />
        <mxCell id="Z0sQ5iqDAYEwo2XdjAds-3" value="" style="shape=image;imageAspect=0;aspect=fixed;verticalLabelPosition=bottom;verticalAlign=top;image=data:image/png,iVBORw0KGgoAAAANSUhEUgAAEY4AAATwCAIAAADCgPT2AACAAElEQVR4XuzdW5hU5YEvbu73PZd9s7nhhufhQodsEmYcZIJsBglD6PCHIRgZIMAohNMWQREQCCflpHIQFcTgIUiiRggG5CgeAfGIg7jd0Zi4ExONccLMbP6fWTOryvq6q6urV1evqnrf5/fwdH/1rW+tWlWVPJ30r79elwEAAAAAAAAAAAAAAAC6rFfpAAAAAAAAAAAAAAAAAEDnqSoBAAAAAAAAAAAAAAAAGVBVAgAAAAAAAAAAAAAAADKgqgQAAAAAAAAAAAAAAABkQFUJAAAAAAAAAAAAAAAAyICqEgAAAAAAAAAAAAAAAJABVSUAAAAAAAAAAAAAAAAgA6pKAAAAAAAAAAAAAAAAQAZUlQAAAAAAAAAAAAAAAIAMqCoBAAAAAAAAAAAAAAAAGVBVAgAAAAAAAAAAAAAAADKgqgQAAAAAAAAAAAAAAABkQFUJAAAAAAAAAAAAAAAAyICqEgAAAAAAAAAAAAAAAJABVSUAAAAAAAAAAAAAAAAgA6pKAAAAAAAAAAAAAAAAQAZUlQAAAAAAAAAAAAAAAIAMqCoBAAAAAAAAAAAAAAAAGVBVAgAAAAAAAAAAAAAAADKgqgQAAAAAAAAAAAAAAABkQFUJAAAAAAAAAAAAAAAAyICqEgAAAAAAAAAAAAAAAJABVSUAAAAAAAAAAAAAAAAgA6pKAAAAAAAAAAAAAAAAQAZUlQAAAAAAAAAAAAAAAIAMqCoBAAAAAAAAAAAAAAAAGVBVAgAAAAAAAAAAAAAAADKgqgQAAAAAAAAAAAAAAABkQFUJAAAAAAAAAAAAAAAAyICqEgAAAAAAAAAAAAAAAJABVSUAAAAAAAAAAAAAAAAgA6pKAAAAAAAAAAAAAAAAQAZUlQAAAAAAAAAAAAAAAIAMqCoBAAAAAAAAAAAAAAAAGVBVAgAAAAAAAAAAAAAAADKgqgQAAAAAAAAAAAAAAABkQFUJAAAAAAAAAAAAAAAAyICqEgAAAAAAAAAAAAAAAJABVSUAAAAAAAAAAAAAAAAgA6pKFHz++efPAtSnF154ofQ/1AAAAGroiy++KP1BBZrYqVOnSj8kAAAAAAAAADQHVSUKVJWA+qWqBAAA9CxVJSimqgQAAAAAAADQtFSVKEiqSn/5df9fiojUS/7jPz78r//sAgAA6DFJVenUqVNvvv6YSDPnnbd/pqoEAAAAAAAA0MxUlShQVRKReoyqEgAAkAeqSiJJVJUAAAAAAAAAmpyqEgWqSiJSj1FVAgAA8kBVSSSJqhIAAAAAAABAk1NVokBVSUTqMapKAABAHqgqiSRRVQIAAAAAAABocqpKFKgqiUg9RlUJAADIA1UlkSSqSgAAAAAAAABNTlWJAlUlEanHqCoBAAB5oKokkkRVCQAAAAAAAKDJqSpRoKokIvUYVSUAACAPVJVEkqgqAQAAAAAAADQ5VSUKVJVEpB6jqgQAAOSBqpJIElUlAAAAAAAAgCanqkSBqpKI1GNUlQAAgDxQVRJJoqoEAAAAAAAA0ORUlShQVRKReoyqEgAAkAeqSiJJVJUAAAAAAAAAmpyqEgWqSiJSj1FVAgAA8kBVSSSJqhIAAAAAAABAk1NVokBVSUTqMapKAABAHqgqiSRRVQIAAAAAAABocqpKFKgqiUg9RlUJAADIA1UlkSSqSgAAAAAAAABNTlWJAlUlEanHqCoBAAB5oKokkkRVCQAAAAAAAKDJqSpRoKokIvUYVSUAACAPVJVEkqgqAQAAAAAAADQ5VSUKVJVEpB6jqgQAAOSBqpJIElUlAAAAAAAAgCanqkSBqpKI1GNUlQAAgDxQVRJJoqoEAAAAAAAA0ORUlShQVeq+fPDBy2+8cfjXvz4TP1TX2b//wRtuuD7JQw9tiid0X7ZtW9W3b5/2cvz44/EhlacHn1cm2bfv3tbWEUl27FgbT6g83Xqfs4qqEgAAkAeqSo2XTRvnDRs6MMmypdPiCZVnyW1T+/RpaS+7dy2LD6k827YuHD9uWJI1q2bGE2ocVSUAAAAAAACAJqeqREGGVaU/Xnr7oz++dOGTI69/vD8kfBG+DYPxzAbOyy8//cMf3jxjxnVDhgzq9V8GDOg/fvyoJUvm/PSn973//ovxUfWVnTvXp09t1aqF8YTuy6ZNS9NTxw4deiQ+pPL04PPKJA88cGd6/atXd+n6u/U+ZxVVJQAAIA8yrCqdPrf75Jnth17ZvP+lO0LCF+HbMBjPbLA8vGfFrJnj2suCm65bt3bWrp1LDh64Kz62O7Ji+Yz0R+C5cybEEyrPwpuvL/p5utT9OxbHh1SelStuSJeaM2d8PKHGUVUCAAAAAAAAaHKqShR0var08Z9Ov/LRTx5/e8MD55a2mfBQmBCmxcc2Uv73/35+9eqFLS0tRb9z0oYwYebMSfHhdZQerPR0a4WmB59XJlFVAgAAqL2uV5VOnb3viRdXbzs+b/3Rf24z4aEwIUyLj22MbFg/t/Qnz3a0tg7Z/WCXdiKqJKpK1UVVCQAAAAAAAKDJqSpR0JWq0sd/Or3/3W1xN6m9hMmNWlg6e/bgoEEDin7bpAPxCnWUHqz0vPHG4Z///KHijBw5NL2YLlZoevB5ZZIMq0rdep+ziqoSAACQB12pKp06u2PncwvjblJ7CZPDIfE69Z7Kq0qJqVNGHzuyPV4nq2RYVXryiTvv3baoOIMHX5EurqoEAAAAAAAAQCNRVaKguqrSn//93aPv747LSJUkHBgOj9es33z88bnx40elvx2SmDhxzKJFM9esWTR//vRRo4aV7LYUL1JHyVWlZ+rU8enFdLFCk6vnVUUyrCrFyfA+ZxVVJQAAIA+qqyqde23PI6eWxmWkShIODIfHa9ZvOltVCmbNHBevk1UyrCrFaW0dki6uqgQAAAAAAABAI1FVoqCKqtLv//X1x89viDtIlSccHhaJV67TrF17S/qrIcGNN17/3HM/LZnz8cfn9u7d3to6IpkTL1JHef/9F06c2Jfk/Plj8YRaJsMKTa6eVxVRVQIAAKi9KqpKL726c9uJeXEHqfKEw8Mi8cp1mpKq0oGnNx06eE+SJ5+4874dt65YPmPAgH7Fc4JtWxfGS2WSeqkqHXrmnt0PLkuy/2cb4wk1jqoSAAAAAAAAQJNTVaKgs1Wlj/740o/e+GHcPupswiJhqXj9ussXX1wYNGhA+lsm06dP/PTTt+Jp6eQnn3xg7typ8UNSXXJYoempqCoBAADUXmerSifPbL/r+Ky4fdTZhEXCUvH69ZiSqtKLz7fRwjp6eOu0qaOLp111Vf94Wiapl6pS3qKqBAAAAAAAANDkVJUo6FRV6ff/+nomPaUkYakG2FvppZeeTn/FJHj77aPxHOm+5LBC01NRVQIAAKi9TlWVXnp15+YsekpJwlKNsbdSJVWlkGNHtl911RXFMw8dvCee1vWoKlUXVSUAAAAAAACAJqeqREHlVaU///u7e99eHzeOupKwYFg2PlcdZffuTemvmIwYMSSeUHXOnz924MDubdtWLVx449ixI2fMuO6OOxbv3bvtzJmfx5PbzCefvPHUUzuT/OIXD6fjzz//RFhq7typ48aNuu661rD+li0r2ytZXbp08dixvUeOPNZm3nzz2fiQ9nLhwolHH926fv1tt9wyc+rU8WPGDA9nnz17yqpVC3/2s50ffvhKfEiHqbpCk8nzCmfcu3d75Tl9+kC8SJou3p+4qvTRR2cefXTLzTffcP31reG1XrJkzkMPbTp16onw3OPDy2dqtfc5TdffzyVRVQIAAPKg8qrSudf2bDsxL24cdSVhwbBsfK76SoVVpZC1a2YVz9y1c0nxowcPbL5326Ik+/aujQ9P8uyhrem0R/esjCfEVaXjR++9c93sKVNGjR41ePjwQTfMaF2zauaeHy0/d6bTN7/qqlI414M7l+58YEmbeerJ9fEhHSbc6of3rAj3f+HN119/3YhhQweGywvPbvGtU8Kzi+eXj6oSAAAAAAAAQJNTVaKg8qrSkfcfjLtGXU9YNj5Xe7n4++M/Ob9p25lF61+cvfX0zT9++843/u/P/9//+z/xzJply5aV6a+YTJgwOp5QRf7whzc3bVrWu3fvdOUSGzcu/fTTt+IDS3L27MH0kMGDB17+sgxzcubMSUUrFfTp0xJOGi/y4YevlE4tsmpVx7v3fP75O9u2rZo0aWyZZxQMHHjFrl0bKnlexam6QtP15xUSnlTpkWVt2rQ0XiSr+1NSVTp//tioUcOKFihYtGjmxx+fi1cok6rv8+Xs3s8lUVUCAADyoPKq0sPPL4m7RmnWPvP92Xd9Z8L8a0Z+b9A1Y7529bVXfnP0gG9976+/d/P/XPDAhHh+mrBsfK72cvj03fee+F9rj3z/9kPfW/Ps1K0n5h54ef0brz0az6xlKq8q7d61rHjm2jWzih9ds3pm+tCNN46ND0+ybevCdNq4ccPiCSVVpf0/2zhkyIB0pNi0qaNPHt8Rr1AmVVeVjj67rejMpebMGR8fUj4P71kxfPig0oWKjB49eNPGefGB7UVVCQAAAAAAAKDJqSpRUGFV6eM/nd752rK4aNT1hGXD4vEZ45z+6In1L86O84v37o8n1yw/+tHm9Hc4+vXr+9FHZ+I5ncq5c89UUoCZMmX8W28diQ8vTklVKcwfM2Z40RqlJk8eFy/S9UrP7373Wulh7Zs/f/of/vBmvEh7qbpC0/XndTmjqlJW96e4qrRgwYzW1hFFx5UKr/WFCyfjRdpL1fc5w/dzSVSVAACAPKiwqnTq7I4Nx0pbRknuODx9yrJrvzl6wNXXXplk6Le/NmLC14eN/R/pyLUTBi3c+Y/xsSFh2bB4fMY4T7y45vZD34vz0KlOFGa6I5VXlfbtXVs8c/GtU4of7Y6q0pTJo4YNHZh+GxszesjBA5vjRdpLHqpKz5964JZFk8v8SZFUv3594sPbi6oSAAAAAAAAQJNTVaKgwqrS/ne3xS2jkty6a+qcTRNLEgbjmSUJi8dnLMkX//bO5pfnrX9x9vYztxx5f/epDx4N/4avk7bSbz6vqOzUHTly5LHi3+FYvbqiikt7OX36QP/+/YoXDEaOHDpr1uTW1hEtLS3F4+PHj/rss/PxImlKqko33nh90dFtaLOq9Otfn+nTp6V3keJDKqn0xFWc8BzDxc+dO3Xq1PFDh15V8ujatbfEi7SXqis0XX9eIeF1ueKKfmXSr1/f4mUrrCpVd3+Kq0rFwmVMmzZh+PDBJeMTJ465dOlivE6bqe4+Z/t+LomqEgAAkAcVVpV2PrcwbhmFLN83acR3ByV9pNFT/3b23d9Z8dSU9NEfPj3lB5taR17318mEqctHxiuEhMXjM5bk7LmHVh6edPuh7609Mu3hU0v3vrAi/Bu+TtpKz1VWduqmVF5VunfbouKZK5bPKH60O6pKxfr16zO2dehVV/UvGR858qpzZ/bE67SZqqtKJ47d2/Ll/4zRK02xTlWVJk5o4w/ZhOc1YcLw4cMHFf8vJKpKAAAAAAAAAFROVYmCSqpKH//pdNwvivPdOSOuGf2NkoTBeGacDjdWuvDJkaSV9MGnz6eD4etk8Nxvno4PqU3ee+9USePixhuvP3XqiXhmJZk9e0rxUgsWzPiXfzmRPvrLX760ZMmc4gm7dm2IF0lTXFUqNm/etKee2nnu3DOff/7Ou++ePHp078qVC8KzaLOqFGfnzvXpUpVUetIqzrhxo/bsuev8+WMlDZmDB380fvyodM2+ffuEuxqv02aqq9C0mc4+r0qyZcvKdM1g7942WnlZ3Z+4qhRmhhc67f+EVzyconjCgQO743XaTHX3Odv3c0lUlQAAgDyopKp06ux9cb8oaSINH/+Nq6+98ppvf2323d+JJyS549np/3Tr3ydtpVkbxsQTQsIp4vMW59Arm5NW0vHTW9PB8HUy+LOX1sWH1CyVV5VuXvCVP8Kya+eS4ke7r6rUp0/LPXctePnFB5MJP923bvjwQcUTtm9dFK/TZqquKsVZueKGdKnKq0r33HVTelTQ0tJ75fIZzx4qvCueP/XAnoeWhzvTS1UJAAAAAAAAgM5QVaKgkqrSyx/9JC4XxVl3YO4Nq8aNuu7qpKQUvgjfhsF4Zpxwivi8xTnz6yeTVtK//cd76WD4Ohl8/sPH4kNqljvuWFz8Sx6JESOGhPGnn9514cLJ+JA2c+DA7uIVHnjgznhOyNatq9I5Awb0v3jxuXhOkriq1Ldvn927N7W5l87LL+/fs+eueDxOZys9n312fvXqhc8+W+41eued4+G5pMvu2LE2ntNmqqvQtJnOPq8Os3//g8V/injZsnnxnMvZ3Z+SqlKfPi3xDXnvvVPFbaVw9+J12kwV9znz93NJVJUAAIA8qKSq9NMXV8XlopAJc4defe2V3/yHr92y+7vxo6WT5305+Zpvf231ge/Hj4ZTxOctzpMvrU1aSa+99nA6GL5OBh9/YWV8SM1SYVXp0T0rW1oKP2WHr08e/8pmUN1UVQonijtFzxy8u7it1No6JF6nzfRsVenEsR3Fu0KFr/f8aHk8LeTcmT3r1s4aMmRA/FB7UVUCAAAAAAAAaHKqShRUUlXad35jXC5qL6uf/EFSVQpfxI+2l3CK+LzFeeHDHyetpJLxZPDUB4/Gh9QsH310ZsSIwi+axCZPHrdr14bi/WTi/OEPb44ZMzw95KabZsRzknz66VvFe+y01wC53FZVqVO71rSXzCs9SYo3ICrz9EtSRYWmvWT7vMLNLy4XTZo09re/fS2eVnk6vD8lVaVbbpkZzwn56U/vK5527NjeeE6czt7n7ng/l0RVCQAAyINKqkrbT8yPy0XLHp805Ft/dfW1V96wbnQ6uOD+fxx745Bvjh4QxsOjIyZ8PeSf1/zD+r9swfTNf/hayfw04RTxeYvz+Asrk1ZSyXgyuPeFFfEhNUslVaV77lowaFDhp+xebbWMuqmqNG3amHhOyF2b5hdP271raTwnTs9WlRbf+pXdj+/d1sFmUOfO7IkH24uqEgAAAAAAAECTU1WioMOq0md/fituFpVJdVWlkHCi+OxpXvhwb26rSpf/sunNjTdeX/zbHrGWlpZbbpn5/vsvxoeHnDr1RPHk118/FM9Js3fvtnTm4sWl9yRNSVVp2LDBv/tdl9oySbKt9KR56qmd6bITJ46JJ7SZzlZoyiTD5/Xhh6+0to5IVxs8eOD588fiaZ1Kh/enpKr0zDN74jkhv/3ta8UdqvvvvyOeE6ez97k73s8lUVUCAADyoMOq0iuvPhg3i0K+v3zkl7sktQ684/D0ZOS7Nw0LIyHf+eerr180fML8a/5u1JedpekrRyUTxv3gm+HbsTcOiVcLCSeKz57m8Rd+WC9VpVUrb1yzemaSZUunzZo5buTIq4on9PrLTsI/frR0I6luqirtuPfWeE7IqRP39evXJ522/PYZ8Zw4PVtVGlV0J1vHVLoTVIVRVQIAAAAAAABocqpKFHRYVfrojy/FtaIyqbqqFE4Unz1Nya5K/+fTU6c+eDQkGfzxW3ck37aZMDleMPN88cWFvXu3TZlSaHS0afjwwUePtrGPzb59O4qnnTixL+T48ceTHDu2tzjF1Y7W1hHxaklKqkoPPtjB1lUVpuuVnnCvLlw4+fzzTxw+/GiacHnpsqNGDYuPajOdrdCUSdefV5JLly7edFPht5r69Gk5evTH8bQyqe7+FFeVBg68IiwSz0myZMmcdObatbfEE+J09j53x/u5JKpKAABAHnRYVTp5ZntcKwppnTH46muvnDD/muTb2Xd9J+kp/WBTazrnmtaBYSTZVSlk+spR4dvh474erxYSThSfPc2+r+6qdPT01r0vrAhJBrcen5t822bC5HjBDFNSVarEmlUz43W6o6rUv3/fM688FM9JcsOM1nTm/LkT4wlxerCqdO7MnuJu1dZ7bo7ndCWqSgAAAAAAAABNTlWJgg6rShd/fyyuFZVJ1VWlcKL47Gme/+Cx4qpSWlKqJDXec+mVV/Zv37565sxJ/fv3S3//o1jfvn3eeOPZkqO2bFlZOq8yLS0t7e2VVFJVOnasjYpUFam60nP69IFly+aNGjWsT5+Woutqw7Bhg+PD20xnKzRlUvXzKsnWravSdYLduzfFc9pMF+9PcVVp/PhR8YQ0mzffns6cP396PCFOZ+9zd7yfS6KqBAAA5EGHVaXDp++Ka0Uhfz/+G8U1pDFT/zZ8O2rS3xTPGfKtvwqDM9ePSb5N6kx/N2pAvFpIOFF89jSPP/+VqlJaUqok3b3nUqeqSkOHDrh7803xIm92T1VpxPBB8YQ0tyyclM6cNGlkPCFOD1aVDjy9KZ0f/HTfunhOV6KqBAAAAAAAANDkVJUo6LCq9Pr/PRDXisqk6qpSOFF89jRpN6nk20pS46pSms8+O3/y5L7Nm29vbR1R/LsgwcKFN5ZMXrx4dsmcyl24cCI+++WoqnT+fLkyWOWpotLz+uuHbrppRu/evYsup5zhw9uo4rSZzlZoyqSK5xXnwIHdxU9z2bJ58Zw4mdyf4qrSrFmT4wlpdu3akM6cMGF0PCFOZ+9zd7yfS6KqBAAA5EGHVaX9L98Z14pCvjl6wNXXXjn77u8k3w77ywZKU5Zdm05Y+8z3k32WZt/1n3OSqtI13/5avFpIOFF89jRpN6nk20qSh6rSwIH9W1uH3LFu9ssvPhivkKQ7qkoTJwyPJ6T54cpCWWjkiKviCXF6sKq0a+eSdH7v3r1Onbw/ntOVqCoBAAAAAAAANDlVJQrqpapUkrqoKqW5dOnij360+YorvrLJ0ssvP108Z9KkscWPVq53794XLz4Xn/TyV6tKffq0fP75O/GcKtLZSk+4vFGjhqWHVGLw4IHxOm2msxWaMuns84rz6qvPDBjQP10kvKa//W3HGwRldX+Kq0q33TYnnpDm4YfvTmcOGjQgnhCns/e5O97PJVFVAgAA8qCLVaW594wt/jbdZClk2b5JSVVp7pb/nDN5yYjw7bXfHRSvtr6jqlJJ8lxVunfbovt3LE7ywH2L9+1dc/L4jvioON1RVZoxozWekGbd2lnpzCuu6BtPiNODVaU775iTzh84sF88oYtRVQIAAAAAAABocqpKFHRYVbr4+2NxrahMqq4qhRPFZ28v9VVVSvKTn+xIfyMkePzx7cWPTp8+MX3o9tvnf/rpW5UnPleS4qpSm+WW6tLZSs/s2VPS+b3+siPQjh1rT57c9+abz/7ud69dunQxyYsvPpXOqfxqO1uhKZPOPq+S/OpXp8eOHZmuEJ5ChdtYZXV/iqtKixbNjCek2bt3WzqzzQ2a4nT2PnfH+7kkqkoAAEAedFhVOnz6rrhWFDJs7P+4+torb7zj28m3104YFL6dvGREOmH23V/uoRRy033jk5FRk68K306YNzReLSScKD57e8lzVenF53fGcypJd1SVpk0dHU9IU3zlV13VP54QpwerSps3zU/n9+vXJ57QxagqAQAAAAAAADQ5VSUKOqwqffTHl+JaUZlUXVUKJ4rP3l7qsaoUUlxl2bJlZfFDK1bclD40f/70+Ngqkoeq0ttvH+3du3c6/9ZbZ3322fl4Wsj+/Q+m0yq/2s5WaMqkU8+rJJcuXVywoPCbTH36tBw9+uN4WpwM709xVWn69InxhDT33bcunTlt2oR4QpzO3ufueD+XRFUJAADIgw6rSifPbI9rRSFjpv7t1ddeef2i4cm31908LHw7fPw31vz8++HbNQe/P2rS3yRVpUm3fdlfmnvP2P9sLt07Ll4tJJwoPnt7aeaq0qaN89JpHVaVxo0dGk9Is3zZ9HTm2NZyM9P0YFXp4T0r0vnBs4e2xnO6ElUlAAAAAAAAgCanqkRBh1Wlz/78VlwrKpOqq0rhRPHZ20udVpUWLSr80sxtt80pfqi4ZzJp0tj42CqSh6rSrl0b0sljxgz/3e9ei+ckKV628qstrtD84hcPxxMqT6eeV0m2bVuVHhvs3r0pntNmMrw/xW+hsFQ8Ic369belMxcvnh1PiNPZ+9wd7+eSqCoBAAB50GFV6ZVXH4xrRSH/dOvfX33tlSO+Oyj5dtm+Sd8cPSBpK02YN/Tv//Hr4esx064e8q2/Cl9c8+2vJT2lcT/4u3ipJOFE8dnbS0NWldbfOSddZMb0MfGEJMuWTkundVhVGjp0QDwhzYKbrktnljljcYqrSvftuDWeUHk6W1U6enhrOj949OGV8ZyuRFUJAAAAAAAAoMmpKlHQYVUpZN/5jXGzqL1UV1UKp4jPWyZ1WlUq3nhn9eqvlGFK9sxpb2udTiUPVaV1625NJ69cuSCekGb58sI+PJVf7ezZU9Kj9u3bEU+oPJ16XsU5cGB38c5Iy5bNi+e0lwzvT3E7qG/fPh9++Eo8J0nxTdu8+fZ4QpzO3ufueD+XRFUJAADIgw6rSiHbT8yPm0U3P/CPSfto0e6JycjiR7/3/836u78f/40h3/qrUZOv+sGm1jA4f/u48HUYGTHh699fPvKOw9PjpULCKeLzlklDVpXuuavwg3ObHaQkc+dMKD+tuKr05bbJz26L5yS5buKIdOYtCyfFE+IUH7Jp47x4QuXpbFUpZMCAfukhP1x5QzyhK1FVAgAAAAAAAGhyqkoUVFJVevmjn8Tlojh3/nzuDavH/8P3hiRVpfBF+DYMxjPjhFPE5y2TOq0qjRhR+NO5e/bcVfxQca0oeOSRe+LDO5s8VJWKCzZlWjHvvHO8X7++6czKr3b16oXpUTt2rI0nVJ5OPa805849M2BA//TA669v/e1v290ZKU6G96e4qtSr/bfQhQsnWlpa0mkl78P20tn73B3v55KoKgEAAHlQSVXppy+uistFISOv++urr71y5PcG3fFs2wWkyhNOEZ+3TBqyqrT7wWXpIkOGtL0b0umXdoeH0mkdVpWCO9bNjueE/Hz/puI/XLJuzax4TpziotSypdPiCZWniqpSeL7pIQMH9jtxbEc8p+qoKgEAAAAAAAA0OVUlCiqpKn38p9NxuSjOd+eMSEpKxQmD8cw44RTxecskP1Wld989OXfu1EOHHokfKsljj21Nfx0kOHZsb8mEWbMmp48OGza4ksbLRx+diQfT5KGqtGPH2nTyvHnT4glJwjrptF6dudrifs7EiWPiCZWnU88rya9+dXrcuFHpUeGy3377aDytTDK8PyVVpcmTx8VzQu6//450Tt++fS5cOBnPiVPFfc78/VwSVSUAACAPKqkqnTp7X1wuClm0a8KQb/3V1dde2Tpj8JqfT40nVJ5wivi8ZdKQVaWnniz8XB88+vDKeM7dmwt/MaRXZVWlMaOHxHNClt/+lc2XDh7YHM+JU7z4yJFXxRMqTxVVpZKnf/uy6fGc4uzbuzYebC+qSgAAAAAAAABNTlWJgkqqSiH7390W94tKcuuuqXM2TSxJGIxnliQsHp+xfPJTVXrttUPJr3dMnTr+mWf2xBOSHDiwu2/fPunvgoSvf/nLl0rmnD17sE+fwnY3s2ZNfuutI/FSSY4ceWzRoplh/oULJ+JH0wXT1dost1SXTlV6whNPJwdxp+uLLy7ce++a4n1+enXmag8ffrT4wHBt8ZwK06nnFXLp0sWbby78VlB4CuFFiaeVT4b3p6SqFGzcuLRkzrPPPta/f790QiVPM0kV9znz93NJVJUAAIA8qKSqFLLzuYVxvyhk1oYxSVtp+D9+44Z1o1f89J/Sh1Yf+P5te64LE667edj/2j4uPjZNWDw+Y/k0ZFXp+VMPFP8cOmXyqJdffLB4wt7HVg8efEXRqSqqKgULF1xfMmfn/bf17Vs4V4VNoZAH7ltcWLdXr5XLZ8RzKkwVVaWQCeMLGyv17t178a1TTr+0O572zMG7p08b069fn/ih9qKqBAAAAAAAANDkVJUoqLCq9PGfTu98bVncMup6wrKd3VLpci6rSokJE0avXLlg164Nv/jFw6dPHzh8+NFHHrln8uRxxXN6td/02LBhSfG0K67ot3376rDIv/zLiU8+eePs2YP79z+4Y8fa4p183nnneLxOkq5Xld5+++jRoz8uyfLlhT/BO3v2lHhCOG+6woULJ/v165vO79+/3733rgnXfOnSxfDvz3/+0Ny5U9NHU5262qlTxxcfO23ahI0bl4azJGnzVnf9eYUcO7a36LS9wovy2GNby+fll58uuZIM709cVQqWLZt36NAjH3zwcjh1eFsWn6ulpSW8e+N12ksV9znb93NJVJUAAIA8qLCqdOrsjg3HSitGSW55aOK1EwZdfe2VSf5u1IARE77+zdED0pGQH2xqjQ9MEpYNi8dnLJ+GrCqFzJ71lR9dJ4wfdv+OxU8+cedDu5etWD6jX7/CH5FJVFhVCm68cWxY6ujhrT9+dNUPV95Q3Inq3bv3Ez+5I16nvbS2DilauNfY1qELF1y/bMm0JG2Wl55+asOunUtKMmtm4X9uum7iiHhCm3si7X1sdbjgovN/eRM2rp/72CM/PHXy/nCvtm9dtOS2qVdc8eX/gKCqBAAAAAAAAEDlVJUoqLCqFHLk/QfjolHXE5aNz9VhcltVqsTs2VMuXboYLxXyq1+dnjRpbOkBZZWpdnS9qrR27S1Fp6pUeILFizz44MbSGW0ZMaLwmzqdutqSylCJlpaW+JBMntezz35lo6FKbNpUus3R5ezuT5tVpTLWrbs1XqRMqrjP2b6fS6KqBAAA5EGFVaWQh59fEheNktz57Iyb7h133c3DRn5v0NBvf+3LwtI/fFlYap0xePLSEYt2TQgT4qOShGXjc3WYRq0q7f3x6uKl2pSUcBKVV5XKmD9vYrxImTy4c2npEkV69+4dHzJ/7sTSeRW4buKIeKmQ25dNL2krtUdVCQAAAAAAAIDKqSpRUHlV6c///u7et9fHXaOuJCwYlo3PVUd5++2jxTvVdOjmm2+4ePG5eJ00n312fseOtX37lv6h3za1tLRcuHAyXiRJTqpKX3xxYf786aWTvmrSpLHHjz+eftvZqz1wYPdVVw0oWq+gzQpNJs8rq6pSVvenuKq0atXCJUvmpN/Gtm9fHa/QYTp7ny9n+n4uiaoSAACQB5VXlc69tmfbiXlx16grCQuGZeNz1VcyrCqFLLjpuuLVSoxtHbppw7z02w6rSnPmjL9hRmv6bWzpkmnxCh1m29aFxY2pYjWoKoXs3rVs6NC2f8Av1r9/3/jY9qKqBAAAAAAAANDkVJUoqLyqFPL7f339R2/8MG4cVZewVFgwPkvd5Te/Ofuzn+1csmTOwIFXlP5OR5HZs6c8//yT8eFt5vTpAzfeeH17Jag+fVrmzp366KNbyree3njjcHrI8OGD4wkdZsOGJUWnrdT8+dNL1rl06eLevdsHDx5YOrVXr0GDBmzefPsf/vBmF6/2nXeOb9q0dNasySVn6d+/Xzw5k+dV3B2q0JYtK+OLuZzR/dm9e1M64c47F3/++TsrVtzU0tKSDiaGDRv8xBP3xYdXmE7d5zSZvJ9LoqoEAADkQeVVpZCXXt25+fisuHFUXcJSYcH4LHWXuzbNT39CbGnp/dILu+I5ncqGO+eEnzSLfu78Ur9+fRbcdN3zpx7YcW/hz5e0WeZZverGdMKC+dedfmn3rFnj4m2IBg3qf9emm+LDK8yBpzctvPn6iROGDxjQr3jZvn1b4sk3L7i+eE6FJk0aGS+V5uTxHeGGDBz4lbOnBg7sv+S2qQcPbI4PbC+qSgAAAAAAAABNTlWJgk5VlUI++uNLmbSVwiJhqXj9us4f/vDm6dMHfvGLhx97bOu2bas2bly6a9eGp5/e9eKLT73//ovx/A7zxRcXXn/90IEDu3fsWLtp05erPfXUzlOnnvjVr07Hk/Of3/zmbLj4vXu33XXX8pCHHtp08OCPPvnkjXhmc6Y77s/588fCu3HLlpVhwfDmCd/Gc2qWbN/PqkoAAEAedKqqFHLyzPa7smgrhUXCUvH6kuTos9t271q6ZtXMmxdcv/z2GffcdVMYiadVnv0/27j+zjmLb51yy6LJW+5e8PRTG+M5dZpDB+/ZtXPJ2jWzFi64/vZl0+/efNMje1ZUURhTVQIAAAAAAABocqpKFHS2qnT5L3srPX5+Q9w+qjzh8MbYT0lEeiqqSgAAQB50tqr05l/2Vtp2Yl7cPqo84fDG2E9JGimqSgAAAAAAAABNTlWJgiqqSiF//vd3j76/O+4gVZJwYDg8XlNEpPKoKgEAAHlQRVUp5Nxrex45tTTuIFWScGA4PF5TpGejqgQAAAAAAADQ5FSVKKiuqpTk4z+d3v/utriM1F7C5HBIvI6ISGejqgQAAORBdVWlJKfO7tj53MK4jNRewuRwSLyOSB6iqgQAAAAAAADQ5FSVKOhKVSnJx386/cpHP3n87Q1xNylJeChMUFISkQyjqgQAAORBV6pKSU6dve+JF1dvOz4v7iYlCQ+FCWFafKxIfqKqBAAAAAAAANDkVJUo6HpVKc0fL7390R9fuvDJkdc/3h8SvgjfhsF4pohIF6OqBAAA5EHXq0ppTp/bffLM9kOvbN7/0h0h4YvwbRiMZ4rkMKpKAAAAAAAAAE1OVYmCDKtKIiI1i6oSAACQBxlWlUTqOqpKAAAAAAAAAE1OVYkCVSURqceoKgEAAHmgqiSSRFUJAAAAAAAAoMmpKlGgqiQi9RhVJQAAIA9UlUSSqCoBAAAAAAAANDlVJQpUlUSkHqOqBAAA5IGqkkgSVSUAAAAAAACAJqeqRIGqkojUY1SVAACAPFBVEkmiqgQAAAAAAADQ5FSVKFBVEpF6jKoSAACQB6pKIklUlQAAAAAAAACanKoSBapKIlKPUVUCAADyQFVJJImqEgAAAAAAAECTU1WiQFVJROoxqkoAAEAeqCqJJFFVAgAAAAAAAGhyqkoUqCqJSD1GVQkAAMgDVSWRJKpKAAAAAAAAAE1OVYkCVSURqceoKgEAAHmgqiSSRFUJAAAAAAAAoMmpKlGgqiQi9RhVJQAAIA9UlUSSqCoBAAAAAAAANDlVJQpUlUSkHqOqBAAA5IGqkkgSVSUAAAAAAACAJqeqRIGqkojUY1SVAACAPFBVEkmiqgQAAAAAAADQ5FSVKFBVEpF6jKoSAACQB6pKIklUlQAAAAAAAACanKoSBUlVCaAeqSoBAAA9K6kqAQlVJQAAAAAAAICmpapEgaoSUL9UlQAAgJ6lqgTFVJUAAAAAAAAAmpaqEo1p/fPrS4foaY+8/siv//jr0lF6VHhFHn794dJRAAAAqNi//utvz55dE/4tfaCTslqHMtxkAAAAAAAAAGpAVYkGdOqXp3ot6fXcL58rfYCe82//8W99NvWZc3BO6QP0qLkH5/73jf89vDqlDwAAAEBlXn113ZYtvcK/pQ90UlbrUIabDAAAAAAAAEANqCrRgK556JpeS3oN3T209AF6zv1n7g8vyn9b8d9srJQf4bUIr0h4Xe47c1/pYwAAAFCZrDbqyWqdTOTqYi5ndz1ZrQMAAAAAAAAAZagq0WiSLZWS2FgpJ5ItlZIXxcZK+TH34NzkRbGxEgAAQBPSWikjb7sP5e16AAAAAAAAAKAMVSUaTbKlUhIbK+VEsqVSEhsr5US6pVISGysBAADUi6wqRg3Zfsnq5jTqOgAAAAAAAABQA6pKNJTiLZWS2FipxxVvqZTExkp5kG6plMTGSgAAAPUiq4pRQ7Zfsro5Wcnb9QAAAAAAAABADagq0VCKt1RKYmOlHle8pVISGyv1uJItlZLYWAkAAKBbZVUNymqdhpS3m5O36wEAAAAAAACAGlBVonHEWyolsbFSD4q3VEpiY6WeVbKlUhIbKwEAAHQrG+zQGPSvAAAAAAAAAChPVYnGEW+plMTGSj0o3lIpiY2VelCbWyolsbESAABA92nUgkdWzyurdSgjk5usdAcAAAAAAABAeapKNIj2tlRKYmOlHtHelkpJbKzUU9rcUimJjZUAAADorKyKK1mtQxmZ3ORM+k4AAAAAAAAANDBVJRpEe1sqJbGxUo9ob0ulJDZW6hFltlRKYmMlAAAAOiWr4kpW62QiVxdzObvryWodAAAAAAAAAChDVYlGUH5LpSQ2Vqqx8lsqJbGxUu2V2VIpiY2VAAAAmoTWShmZ7D6UobxdDwAAAAAAAACUoapEIyi/pVISGyvVWPktlZLYWKnGOtxSKYmNlQAAAPIsq4pRQ7Zfsro5jboOAAAAAAAAANSAqhJ1r5ItlZLYWKlmKtlSKYmNlWqpwy2VkthYCQAAIM+yqhg1ZPslq5uTlbxdDwAAAAAAAADUgKoSda+SLZWS2FipZirZUimJjZVqpsItlZLYWAkAACBzWVWDslqnIeXt5uTtegAAAAAAAACgBlSVqG+Vb6mUxMZKNVD5lkpJbKxUGxVuqZTExkoAAACZs8EOjUH/CgAAAAAAAIDyVJWob5VvqZTExko1UPmWSklsrFQDndpSKYmNlQAAALLVqAWPrJ5XVutQRiY3WekOAAAAAAAAgPJUlahjnd1SKYmNlbpVZ7dUSmJjpe7WqS2VkthYCQAAgEpkVVzJah3KyOQmZ9J3AgAAAAAAAKCBqSpRxzq7pVISGyt1q85uqZTExkrdqootlZLYWAkAAIAOZVVcyWqdTOTqYi5ndz1ZrQMAAAAAAAAAZagqUa+q21IpiY2Vukl1WyolsbFS96liS6UkNlYCAABoYForZWSy+1CG8nY9AAAAAAAAAFCGqhL1qrotlZLYWKmbVLelUhIbK3WTqrdUSmJjJQAAgLzJqmLUkO2XrG5Oo64DAAAAAAAAADWgqkRd6sqWSklsrJS5rmyplMTGSt2h6i2VkthYCQAAIG+yqhg1ZPslq5uTlbxdDwAAAAAAAADUgKoSdakrWyolsbFS5rqypVISGytlrotbKiWxsRIAAEAmsqoGZbVOQ8rbzcnb9QAAAAAAAABADagqUX+6vqVSEhsrZajrWyolsbFStrq4pVISGysBAABkwgY7NAb9KwAAAAAAAADKU1Wi/nzyxScXP7lYJjMPzOy1pFf4N36oOGGd0qWp1qX/uBTf4eJU+KJ88OkHpUvTBeF+xje5OBW+LuH1LV0aAACATmrUgkdWzyurdSgjk5usdAcAAAAAAABAeapKNKDD7x1efGRx+Lf0AXpOeEV6LekV/i19gB7ldQEAAKCLsiquZLUOZWRykzPpOwEAAAAAAADQwFSVgFpQicknrwsAAABdlFVxJat1MpGri7mc3fVktQ4AAAAAAAAAlKGqBNSCSkw+eV0AAACaltZKGZnsPpShvF0PAAAAAAAAAJShqgTUgkpMPnldAAAA6k5WFaOGbL9kdXMadR0AAAAAAAAAqAFVJRrQ4fcOLz6yOPxb+gA9RyUmn7wuAAAAdSerilFDtl+yujlZydv1AAAAAAAAAEANqCrRgLQvcsiLkk9eFwAAgJrJqhqU1ToNKW83J2/XAwAAAAAAAAA1oKpEA9K+yCEvSj55XQAAAGrGBjs0Bv0rAAAAAAAAAMpTVaIBaV/kkBcln7wuAAAANdOoBY+snldW61BGJjdZ6Q4AAAAAAACA8lSVaEDaFznkRcknrwsAAABdlFVxJat1KCOTm5xJ3wkAAAAAAACABqaqRAPSvsghL0o+eV0AAADooqyKK1mtk4lcXczl7K4nq3UAAAAAAAAAoAxVJRqQ9kUOeVHyyesCAADQtLRWyshk96EM5e16AAAAAAAAAKAMVSUakPZFDnlR8snrAgAAUHeyqhg1ZPslq5vTqOsAAAAAAAAAQA2oKtGAtC9yyIuST14XAACAupNVxagh2y9Z3Zys5O16AAAAAAAAAKAGVJVoQNoXOeRFySevCwAAQM1kVQ3Kap2GlLebk7frAQAAAAAAAIAaUFWiAdWgfXH4vcNhfak8f/PA33T3i0IVFv/lwxJenfgla8KEz3XpDQIAAMiODXZoDPpXAAAAAAAAAJSnqkQDWtz9VaXkFNLZdOuLQhW8k4vj/QkAAHSrRi14ZPW8slqHMjK5yUp3AAAAAAAAAJSnqkQDSrY86tYNUpKCh71oOptufVGogv3Bktj1CwAAoGpZFVeyWocyMrnJmfSdAAAAAAAAAGhgqkpQjcXdv3ETUDM+0QAAAFXLqriS1TqZyNXFXM7uerJaBwAAAAAAAADKUFWCaig2QCPxiQYAAJqQ1koZmew+lKG8XQ8AAAAAAAAAlKGqBNVQbIBG4hMNAADUkawqRg3Zfsnq5jTqOgAAAAAAAABQA6pKNKDD7x1efGRx+Lf0gewoNkAj8YkGAADqSFYVo4Zsv2R1c7KSt+sBAAAAAAAAgBpQVaIB1aB1UINTADXjEw0AANRAVtWgrNZpSHm7OXm7HgAAAAAAAACoAVUlGlANWgc1OAVQMz7RAABADdhgh8agfwUAAAAAAABAeapKNKAatA5qcAqgZnyiAQCAGmjUgkdWzyurdSgjk5usdAcAAAAAAABAeapKNKAatA5qcAqgZnyiAQAAqpZVcSWrdSgjk5ucSd8JAAAAAAAAgAamqkQDqkHroAanAGrGJxoAAKBqWRVXslonE7m6mMvZXU9W6wAAAAAAAABAGapKNKAatA5qcAqgZnyiAQCAJqS1UkYmuw9lKG/XAwAAAAAAAABlqCrRgGrQOqjBKYCa8YkGAADqSFYVo4Zsv2R1cxp1HQAAAAAAAACoAVUlGlANWgc1OAVQMz7RAABAHcmqYtSQ7Zesbk5W8nY9AAAAAAAAAFADqko0oBq0DmpwCqBmfKIBAIAayKoalNU6DSlvNydv1wMAAAAAAAAANaCqRAOqQeugBqcAasYnGgAAqAEb7NAY9K8AAAAAAAAAKE9ViQZUg9ZBDU4B1IxPNAAAUAONWvDI6nlltQ5lZHKTle4AAAAAAAAAKE9ViQZ0+L3Di48sDv+WPpAdxQZoJD7RAAAAVcuquJLVOpSRyU3OpO8EAAAAAAAAQANTVYJqKDZAI/GJBgAAqFpWxZWs1slEri7mcnbXk9U6AAAAAAAAAFCGqhJUQ7Gh+7T3SzPGjXff+MJfzC/5RJefb9y4cePGjRs3bty4ceNdH+9xub2wPMhk96EM5e16Uu29i4wbN27cuHHjxo0bN27cuHHjxo0bN27cuHHjxo0bb4ZxoD2qSlANVaVMtPlf2+398o1x4903/v1HvlnyiS4/37hx48aNGzdu3Lhx48a7Pl61Nn+arkLmF5YHWd2cRl0nc+29i4wbN27cuHHjxo0bN27cuHHjxo0bN27cuHHjxo0bb4ZxoD2qSjSgw+8dXnxkcfi39IHsqCplos3/2m7vl2+MG+++cbsqGTdu3Lhx48aNGzduvPbjVWvzp+kqZH5heZDVzclK3q4nc+29i4wbN27cuHHjxo0bN27cuHHjxo0bN27cuHHjxo0bb4ZxoD2qSjSgGvSIanCKZuC/tskJn2gAAKCO+Gm6jLzdnLxdDwAAAAAAANB1/n9A6JCqEg2oBq2DGpwCqBmfaAAAAAAAAAAAAAAq8eqr67Zs6RX+LX0A+C+qSjSgGrQOanAKoGZ8ogEAAKqW1R8My2odynCTAQAAAAAAoOv8/27QIVUlGlANWgc1OAVQMz7RAAAAVcvqD4ZltQ5luMkAAAAAAAAA1ICqEg2oBq2DGpwCqBmfaAAAgKpl9QfDslonE7m6mMvZXU9W6wAAAAAAAABAGapKNKAatA5qcAqgZnyiAQCAJqS1Ukbedh/K2/UAAAAAAAAAQBmqSjSgGrQOanCKZuCXosgJn2gAAKCOZPXTdEO2X7K6OY26DgAAAAAAAADUgKoSDagGrYManKIZNOQvRVGPfKIBAIA6ktVP0w3Zfsnq5mQlb9cDAAAAAAAAADWgqkQDqkHroAanaAYN+UtR1COfaAAAoI74abqMvN2cvF0PAAAAAAAA0HX+f0DokKoSDagGrYManAKoGZ9oAAAAAAAAAAAAACrx6qvrtmzpFf4tfQD4L6pKNKAatA5qcAqgZnyiAQAAqpbVHwzLah3KcJMBAAAAAACg6/z/btAhVSUa0OH3Di8+sjj8W/pAdhQboJH4RAMAAFQtqz8YltU6lOEmAwAAAAAAAFADqkpQDcUGaCQ+0QAAAFXL6g+GZbVOJnJ1MZezu56s1gEAAAAAAACAMlSVoBqKDdBIfKIBAIAmpLVSRt52H8rb9QAAAAAAAABAGapKUA3Fhkz4pShywicaAACoI1n9NN2Q7Zesbk6jrgMAAAAAAAD/P3v39yxFleCLfv8VPPLECy9E8MAZ+tDDGQ7DNO1laIbDwHh1GGkZsZFRGfxxxF9bREREFEUEFH+gOKjdtN3+pDXE34Ot3f6avjtu3HsjfD4R/Xx823c11ZM7yaysXZW1Kisz9+cT39gBWWtn1c4fa2XmypUFUAFDlWih89+dn/xgMvzMvhCPgQ1RtPKmKJrIHg0AADRIrLPpVo5+ibVwYqnb5wEAAAAAAACAChiqRAtVMOqggreYC1p5UxRNZI8GAAAaxNl0D3VbOHX7PAAAAAAAAMDw9APCrAxVooUqGHVQwVsAlbFHt0/RaYDppptuuummm2666aa3aTqUULQ5mW666aabbrrppptuuummm2666aabbrrpps+16QBQ2jffHDp+fCL8zL4A/CdDlWihCkYdVPAWQGXs0e1TdBpguummm2666aabbrrpbZpeE7G6eGPNh96KNifTTTfddNNNN91000033XTTTTfddNNNN930uTYdAErTuQmzMlSJFqpg1EEFbwFUxh7dPkWnAaabbrrppptuuummm96m6TURq4s31nzorWhzMt1000033XTTTTfddNNNN91000033XTTTZ9r0wEAGB1DlWihCkYdVPAWQGXs0QAAAKXF6uKNNZ8oavVhpuv3eQAAAAAAAACgB0OVaKEKRh1U8BZAZezRAADAHGT0Sw91+4qnun0eAAAAAAAAAOjBUCVaqIJRBxW8xVzgpihqwh4NAADMQa0c/RLrUkNb5wMAAAAAAAAAFTBUiRaqYNRBBW8xF7TypiiayB4NAADMQa0c/VK3Sw11+zwAAAAAAAAAUAFDlWihCkYdVPAWc0Erb4qiiezRLaNuAQCAOatupwN1+zwAAAAAAHOTq7UAxKVlgVkZqkQLVTDqoIK3ACpjj24Zjy0HAAAAAAAAACDhZhIA4tKywKwMVaKFKhh1UMFbAJWxR7eMxxUAAECVYh2Bx5oPAAAAAABkuAQNQFxaFpiVoUq00Pnvzk9+MBl+Zl+Ix8AGaBN7NAAAQGmxHhgWaz4AAAAAAAAAwHgZqgRlGNgAbWKPBgAAKC3WA8NizSeKWn2Y6fp9HgAAAAAAAADowVAlKMPABmgTezQAADAHGf3SQ92+4qlunwcAAAAAAAAAejBUCcowsCEKN0VRE/ZoAABgDmrl6JdYlxraOh8AAAAAAAAAqIChSrTQ+e/OT34wGX5mX4jHwIYoWnlTFE1kjwYAAOagVo5+qdulhrp9HgAAAAAAAACogKFKtFAFow4qeIu5oJU3RdFE9uiWUbcAAMCcVbfTgbp9HgAAAACAucnVWgDi0rLArAxVooUqGHVQwVsAlbFHt4zHlgMAAAAAAAAAkHAzCQBxaVlgVoYq0UIVjDqo4C2AytijW8bjCgAAoEqxjsBjzQcAAAAAADJcggYgLi0LzMpQJVqoglEHFbwFUBl7NAAAQGmxHhgWaz4AAAAAAAAAwHgZqkQLVTDqoIK3ACpjjwYAACgt1gPDYs0nilp9mOn6fR4AAAAAAAAA6MFQJVqoglEHFbwFUBl7NERRdPek6aabbrrppptuuunNms50/b7iqevnKVqDpptuuummm2666aabbrrpps/N6QAAAAD1YagSLVTBqIMK3mIucAmVmrBHQxRd75403XTTTTfddNNNN71x0xst1qWGRsynaA2abrrppptuuummm2666aabPjenAwAAANSHoUq0UAWjDip4i7nAJVRqwh4NUXS9e9J000033XTTTTfd9MZNb7S6XWoY6ecpWoOmm2666aabbrrppptuuummz83pAAAAAPVhqBItVMGogwreYi5wCZWasEe3jLqlMhY1AAB1U7dj1Lp9HgAAANrHuScA9EOLCUBcWhaYlaFKtFAFow4qeAugMvbolhnpY8tJs6gBAAAAAADGS38NAPRDiwlAXFoWmJWhSrRQBaMOKngLoDL26JbxuILKWNQAAEzHOyyMNR8AAACYU5xQA0A/tJgAxKVlgVkZqkQLnf/u/OQHk+Fn9oV4DGyANrFHAwAAlBbrgWGx5gMAAAAAAAAAjJehSlCGgQ3QJvZoAACA0mI9MCzWfKKo1YcBAAAAAAAAgGYxVAnKMLAB2sQeDQAAQJqveAIAAAAAAACA0gxVgjIMbIjCI4qpCXs0AABAO8S61FC3+QAAAAAAAABAgxiqRAud/+785AeT4Wf2hXgMbIjCI4qpCXs0AABAO9TtUkPdPg8AAAAAAAAAVMBQJVqoglEHFbzFXODRwtSEPbpl1C2VsagBAKibuh2j1u3zAAAA0D7OPQGgH1pMAOLSssCsDFWihSoYdVDBWwCVsUe3jMeWV8aiBgAAAAAAGC/9NQDQDy0mAHFpWWBWhirRQhWMOqjgLYDK2KNbxuMKKmNRAwAwHe+wMNZ8AAAAYE5xQg0A/dBiAhCXlgVmZagSLVTBqIMK3gKojD0aAACgtFgPDIs1HwAAAAAAAABgvAxVooUqGHVQwVsAlbFHAwAAlBbrgWGx5hNFrT4MAAAAAAAAADSLoUq0UAWjDip4C6Ay9mgAAADSfMUTAAAAAAAAAJRmqBItVMGogwreYi7wiGJqwh4NAADQDrEuNdRtPgAAAAAAAADQIIYq0UIVjDqo4C3mAo8opibs0QAAAO1Qt0sNdfs8AAAAAAAAAFABQ5VooQpGHVTwFnOBRwtTE/bollG3VMaiBgCgbup2jFq3zwMAAED7OPcEgH5oMQGIS8sCszJUiRaqYNRBBW8BVMYe3TIeW14Zixqgf0WXqEw33XTT2zqdrooWl+mmm2666aabbnrdpgPQIPprAKAfWkwA4tKywKwMVaKFKhh1UMFbAJWxR7eMzvXKWNQA/Su6RGW66aab3tbpJcyFw8uixWW66aabbrrppptet+kANMhcOKEGgOFpMQGIS8sCszJUiRY6/935yQ8mw8/sC/EY2ABtYo8GAEat6BKV6aabbnpbp5cwF26TLVpcpptuuummm2666XWbDgAAAAAAwzBUCcowsAHaxB4NAAAwdrW6TbZWHwYAAAAAAAAAmsVQJSjDwAZoE3s0AAAAaXPhK54AAAAAAAAAYEQMVYIyDGyIwiOKqQl7NAAwIo54ASoWq+KNNR8AAAAAAAAAmIMMVaKFzn93fvKDyfAz+0I8BjZE4RHF1IQ9GgAYEUe8ABVT8QIAAAAAAADA2BmqRAtVMOqggreYCzyimJqwR7eMuqUyFjXArFSVABVT8QIADMoRFEDTqckBoB9aTADi0rLArAxVooUqGHVQwVsAlbFHt4zHqFfGogYAAACApnOVD6Dp1OQA0A8tJgBxaVlgVoYq0UIVjDqo4C2AytijW8bjCipjUQMAEJHDSwCAsXAYBtB0anIA6IcWE4C4tCwwK0OVaKEKRh1U8BZAZezRAAAAY+fBYwAAAAAAAADQDoYq0UIVjDqo4C2AytijAQAAxq5WDx6r1YcBAAAAAAAAgGYxVIkWqmDUQQVvAVTGHg0AAECar3gCAAAAAAAAgNIMVaKFKhh1UMFbzAUeUUxN2KMBgBFxxAtQsVgVb6z5AAAAAAAAAMAcZKgSLVTBqIMK3mIu8IhiasIeDQCMiCNegIqpeAEAAAAAAABg7AxVooUqGHVQwVvMBR5RTE3Yo1tG3VIZixpgVqpKgIqpeAEABuUICqDp1OQA0A8tJgBxaVlgVoYq0UIVjDqo4C2AytijW8Zj1CtjUQMAAABA07nKB9B0anIA6IcWE4C4tCwwK0OVaKEKRh1U8BZAZezRLeNxBZWxqAEAiMjhJQDAWDgMA2g6NTkA9EOLCUBcWhaYlaFKtND5785PfjAZfmZfiMfABmgTezQAAMDYefAYAAAAAAAAALSDoUpQhoEN0Cb2aAAAgLGr1YPHavVhAAAAAAAAAKBZxjNUqfOlNz2S/j6cWQsrny+gfFJ+RCYNbIAWsUcDAABVKhoGY3p9dP2Kp6IPbLrppvc/HQAAAAAAAJgLxjNUqXNTeI+k7xeftbDy+QLKJ+VHpPMxKnijdnPLAjVhjwYARsQRL9BV12EwpkcRq+LtOp+iD2y66ab3Px0AAAAAAACYC8Y5VOmvnvurydz34XQyzLfoKJ/PXC4/IpMGNsTglgVqwh4NAIyII15gutugl/wU02MZacVb9IFNN930/qcDAAAAAAAAc8F4hip1RptUMJ4ERsTAhijcskBN2KNbRt1SGYsaYFaqSmB6xINnyFDxQj3ZNwHqTC0N0HRqcgDohxYTgLi0LDCr8QxVgqYzsAHaxB7dMu4ErYxFDQDQDxepAZw/AtSZWhqg6dTkANAPLSYAcWlZYFaGKkEZBjZAm9ijW8adoJWxqAEAAOiH80eAOlNLAzSdmhwA+qHFBCAuLQvMylAlKMPABmgTezQAAAAAAAAAAAAAQBTjGap0/rvzkx9Mhp/ZF6AhDGyANrFHAwAAAAAAAAAAAABEMZ6hSm4Kp+lsw9Am9mgAAAAAAAAAAAAAgCgMVYIybMNRfP/9H7/++mD4mX0BqmWPBgBGxBEvQMVUvAAAAAAAAAAwdoYqQRm24Si++ebQ8eMT4Wf2BaiWPRoAGBFHvMC0wTPVUvECAAAAAAAAwNgZqgRl2IajcLcWNWGPbhl1S2UsaoBZqSqBaYNnqqXihXqybwLUmVoaoOnU5ADQDy0mAHFpWWBWhipBGbZhaBN7dMu4E7QyFjUAQD9cpAZw/ghQZ2ppgKZTkwNAP7SYAMSlZYFZGaoEZdiGoU3s0S3jTtDKWNQAAAD0w/kjQJ2ppQGaTk0OAP3QYgIQl5YFZmWoEpRhG4Y2sUcDAAAAAAAAAAAAAERhqBKUYRuGNrFHAwAAAAAAAAAAAABEYagSlGEbhjaxRwMAAAAAAAAAAAAARGGoEpRhG47i++//+PXXB8PP7AtQLXs0ADAijngBKqbiBQAAAAAAAICxM1QJyrANR/HNN4eOH58IP7MvQLXs0QDAiDjiBaYNnqmWihcAAAAAAAAAxm48Q5XOf3d+8oPJ8DP7AjSEgQ1RuFuLmrBHt4y6pTIWNcCsVJXAtMEz1VLxQj3ZNwHqTC0N0HRqcgDohxYTgLi0LDCr8QxVgqYzsAHaxB7dMu4ErYxFDQDQDxepAZw/AtSZWhqg6dTkANAPLSYAcWlZYFaGKkEZBjZAm9ijW8adoJWxqAEAAOiH80eAOlNLAzSdmhwA+qHFBCAuLQvMylAlKMPABmgTezQAAAAAAAAAAAAAQBTjGap0/rvzkx9Mhp/ZF6AhDGyANrFHAwAAAAAAAAAAAABEMZ6hSm4Kp+lsw9Am9mgAAAAAAAAAAAAAgCgMVYIybMNRfP/9H7/++mD4mX0BqmWPBgBGxBEvQMVUvAAAAAAAAAAwdoYqQRm24Si++ebQ8eMT4Wf2BaiWPRoAGBFHvMC0wTPVUvECAAAAAAAAwNgZqgRl2IajcLcWNWGPbhl1S2UsaoBZqSqBaYNnqqXihXqybwLUmVoaoOnU5ADQDy0mAHFpWWBWhipBGbZhaBN7dMu4E7QyFjUAQD9cpAZw/ghQZ2ppgKZTkwNAP7SYAMSlZYFZGaoEZdiGoU3s0S3jTtDKWNQAAAD0w/kjQJ2ppQGaTk0OAP3QYgIQl5YFZmWoEpRhG4Y2sUcDAAAAAAAAAAAAAERhqBKUYRuGNrFHAwAAAAAAAAAAAABEYagSlGEbhjaxRwMAAAAAAAAAAAAARGGoEpRhG47i++//+PXXB8PP7AtQLXs0ADAijngBKqbiBQAAAAAAAICxM1QJyrANR/HNN4eOH58IP7MvQLXs0QDAiDjiBaYNnqmWihcAAAAAAAAAxm48Q5XOf3d+8oPJ8DP7AjSEgQ1RuFuLmrBHt4y6pTIWNcCsVJXAtMEz1VLxQj3ZNwHqTC0N0HRqcgDohxYTgLi0LDCr8QxVgqYzsAHaxB7dMu4ErYxFDQDQDxepAZw/AtSZWhqg6dTkANAPLSYAcWlZYFaGKkEZBjZAm9ijW8adoJWxqAEAAOiH80eAOlNLAzSdmhwA+qHFBCAuLQvMylAlKMPABmgTezQAAAAAAAAAAAAAQBTjGap0/rvzkx9Mhp/ZF6AhDGyANrFHAwAAAAAAAAAAAABEMZ6hSm4Kp+lsw9AmBtACAAAAAAAAAAAAAERhqBKUYRuO4vvv//j11wfDz+wL1Mb/+l//632grv7whz9kd1oAasYRL0DFhq94//f//t/ZI28AqLELFy5kG7NKaDGhztQMAFAlLS8A7aalA2i6cdXk04YqQTm24Si++ebQ8eMT4Wf2BWrDUCWoM0OVAOrPES8wHWPwDP0bvuLV9QVAs4yri1GLCXWmZgCAKml5AWg3LR1A042rJp82VAnKsQ1H4W6t+usMVfrDH/4w9Yefi0h98v/9vx909s3sTlst1TjArFSVwHSMwTP0b/iKt9P1deHChfxxuIiISK3y//zfb46xi1GLKVLPqBlERESqjJZXRETaHS2diEjTM96afNpQJSjHNswcYaiSSD1Tk6FKbroFAOjH8INnqJKuLxERaUrG28WoxRSpZ9QMIiIiVUbLKyIi7Y6WTkSk6RlvTT5tqBKUYxtmjjBUSaSeqclQJTfdAgDQPrq+RESkKRlvF6MWU6SeUTOIiIhUGS2viIi0O1o6EZGmZ7w1+bShSlCObZg5wlAlkXqmJkOVAACgfXR9iYhIUzLeLkYtpkg9o2YQERGpMlpeERFpd7R0IiJNz3hr8mlDlaAc2zBzhKFKIvWMoUoAADAiur5ERKQpGW8XoxZTpJ5RM4iIiFQZLa+IiLQ7WjoRkaZnvDX5tKFKUI5tmDnCUCWResZQJQAAGBFdXyIi0pSMt4tRiylSz6gZREREqoyWV0RE2h0tnYhI0zPemnzaUCUoxzYcxfff//Hrrw+Gn9kXqA1DlUTqGUOVAJrCES9AxYaveHV9iYhIUzLeLkYtpkg9o2YQERGpMlpeERFpd7R0IiJNz3hr8mlDlaAc23AU33xz6PjxifAz+wK1YaiSSD1jqBJAUzjiBaZjDJ6hf8NXvLq+RESkKRlvF6MWU6SeUTOIiIhUGS2viIi0O1o6EZGmZ7w1+fS4hiqd/+785AeT4Wf2BWgIQ5WicLdW/RmqJFLP1GSokmocYFaqSmA6xuAZ+jd8xavrS0REmpLxdjFqMUXqGTWDiIhIldHyiohIu6OlExFpesZbk0+Pa6gSNJ2hSswRhiqJ1DM1GarkplsAgH4MP3iGKun6EhGRpmS8XYxaTJF6Rs0gIiJSZbS8IiLS7mjpRESanvHW5NOGKkE5hioxRxiqJFLP1GSokptuAQBoH11fIiLSlIy3i1GLKVLPqBlERESqjJZXRETaHS2diEjTM96afNpQJSjHUCXmCEOVROqZmgxVAgCA9tH1JSIiTcl4uxi1mCL1jJpBRESkymh5RUSk3dHSiYg0PeOtyafHNVTp/HfnJz+YDD+zL0BDGKrEHGGokkg9Y6gSAACMiK4vERFpSsbbxajFFKln1AwiIiJVRssrIiLtjpZORKTpGW9NPj2uoUqGedB0tmHmCEOVROoZQ5UAAGBEdH2JiEhTMt4uRi2mSD2jZhAREakyWl4REWl3tHQiIk3PeGvyaUOVoBzbcBTff//Hr78+GH5mX6A2DFUSqWcMVQJoCke8ABUbvuLV9SUiIk3JeLsYtZgi9YyaQUREpMpoeUVEpN3R0omIND3jrcmnDVWCcmzDUXzzzaHjxyfCz+wL1IahSiL1jKFKAE3hiBeYjjF4hv4NX/Hq+hIRkaZkvF2MWkyRekbNICIiUmW0vCIi0u5o6UREmp7x1uTThipBObbhKNytVX+GKonUMzUZqqQaB5iVqhKYjjF4hv4NX/Hq+hIRkaZkvF2MWkyRekbNICIiUmW0vCIi0u5o6UREmp7x1uTThipBObZh5ghDlaTpefLEHVdecVknBw/cmC/Q0NRkqJKbbgEA+jH84BmqpOtLKsiee65dsGB+UU4/vzf/K1KrfP7ZqbfeeOytNx797MJz+VdljDny2C2XrV7Wyd57t+cL9J9G7Kfj7WLUYoqUzkhrGDVDi/PtV2fOv3v89V8/8uH7T+ZfzeT4E7uTNnHy7m35As3Nnslrkz/tgf3X5wu0KW3t5BpRHjt8c7Jt7LtvR76AjDdt3Z61vC2OlrcTLa8ksXzmZrR0EjdNuX6rxoueka6vWGnreh9vTT5tqBKUYxtmjog4VOnLb09/+tVT7/3+8be/eDgk/CP8N0zMl2xfHjm0a+eNVwyU3bduyc9HSmT//ddP/KebbroyX6ChqclQJTfdAgDQPhG7vubmifALp+7Nn+R2Ek7K9u297vgTu3/xyoFPPno6/7tzJ3fcfnVyrpr37NOT+V+JnlfPHsyvo0Fz5sV9+Tm3OGdfObD7ti0rViyeN29mfS1btviWmze/dOb+fHmpPvfv25Gsmptv2pwv0H/qsJ/OmvF2MWoxh0+Jqji0ofn5SOMy0hpGzdC+vPLS/rvuvGbNmuXz588cgixatGDduhWhsXu54CDk4IM3JoVvuOHyfIHmJlSGyZ92x+6r8wXalLZ2co0o4XwzWVy33nxVvsCUTtuxpq3bs5a3fdHyZrJTy9ucfPnF6fCxkyYs+oW7pi8fKRctXdPz0pn784e4M8e6t2059NDO50/teefc0fzvjiJNuX47rhqv9/oqSiO6J0a6vmJlXOt91BlvTT5tqBKUYxtmjhh+qNKFr5957fMHn/z4lsMf/kvXhJdCgVAs/7utybXbNqSOrPqyaNGC/HzmQg4euDEcmHYS5SyorUeQNRmqBAAA7TN819ccPxE+8MANqbPbQgsXzr/7rms+PH8iP4e5kFF0yQx6Qv3kiTuybzy4Rx6+KT/nVuZ3n78wefe2eekhSpcKr+y+dcuFT5/N/65UmaZ0dcfKeLsYtZjD56kTd2a3rdkcPXJbfj4jyqAti/SfkdYwaoY25d13nrjh+suzm0jOunUrzr11JPO7bphuR2rSydWUFqGfoUo6bftP9PVek+05erS8bYqWt2u0vNWndA184dNnk88/MYILd01fPlIuWrqm59HDN6cqhl42bVp1+oWRf7NNU67fjqvG6399pYXfys+qbhnp+oqVca33UWe8Nfm0oUpQjm2YOWKYoUoXvn761L/fkT/EL0ooHH4lP58WxFXv/rN2zfJkIUR5xEtbjyANVQIAgBEZpuvLifBU30OVOpYsWdiIHpToef21R04+eWc6K1cuSRZLuS6ZQU+oDVUaKOn7cnrYds36r37/Yv7XpbJE7OoexX4aPePtYtRiDp+aD1UatGWR/jPSGkbN0Jq8evbg0qWLkg2jt/xXrrlhuh2pSSdXU1oEQ5XiJvp6r8n2HD1a3tZEy1sULW/1KV0Dz5GhSqWXj5SLlq7pGXToSzhg/uiDp/LziZWmXL8dV4036PrqaERH20jXV6yMa72POuOtyacNVYJybMPMEeWGKn37H2devnBv/pi+n4RfDL+en2ej46p3/4l+TaGtR5CGKgEAwIiU6/pyIpxkoKFKwfz586Kc/TU9mzatSpZJuS6ZQU+oS9wfn3f4kch3PNQzBw/M3G/UsXDh/C1b1m69et2iRQsyL90zuS0/B6ksEbu68xl+P42e8XYxajGHz8knB66Kn3jcUKV2JmINo2ZoR1579dCyZYuTraIjHDlv3LBq541XbN68ZsmShemX3DDd1tSkk6spLYKhSnETfb3XZHuOHi1vO6Ll7REtb/UpXQMbqiSjiJau6Skx9CXU/Pn5xEpTrt+Oq8Yrsb4mGjJUKZ+I6ytWxrXeR53x1uTThipBObbhKL7//o9ff30w/My+QG2UGKr0xTennvyk8FtT+0n49TCT/Jybm/RV7/XrVrx69qFZ8+brj+bnMxcS/ZrCe+8eO/3C3k7efvOxfIGGxlAlgKZwxAtQseEr3hJdX06E08kMVXrvnWOdvPvOEz9/+YETx26/adeV8+bNS5dZtWrpSJ/S14gM3yUz6An155+dyl+O6CQziunQwZ35Mp18+nELHzOZSdg4Mzck3bf3us8uPNd59YvfPv/woV3pVxcsmP/Oucfz85Fq0pSu7lgZbxejFnP45KviJx6/LdnMJi7eZ5ApcOHTZ/PzGVEGbVlkmESsYdQM7ciWLWuTTSJYunTRM0/fnakBXvvVwzt2bOoUcMN0W1OTTq6mtAiDDlXSads70dd7Tbbn6NHytiNa3h7R8laf0jXwqIcqNX35SLlo6ZqezNCXc28dSXptXn/tkdDe3b9vR/57BZ88cUd+VlHSlOu346rxMusrHHLkz1DyufDJM/lZ1T8R11esjGu9jzrjrcmnDVWCcmzDUXzzzaHjxyfCz+wL1MagQ5U+/eqpox/vzB/ED5owkzCr/PwbmvRV781XXpYvIElcU+gzhioBNIUjXmA6xuAZ+jd8xTto15cT4UzSQ5XmzZuXLxDy6tmDy5df8qjafXuvyxebUxm+SybiCfWvXz2UzGqi7OdpTdL3O04UPEhv8q5t6TK3t/3GnTqnKV3dsTLeLkYt5ijy85cfSDaz4PQLe/NlKkvElkVmTcQaRs3Qgrx05v5kewhWrFjyq18+lC/Wyenn7w3bz2u/ejgz3Q3TEjFNaREGHaqk07Z3mrLexx4tbwui5e0dLW/1KV0Dj3qoUk1SevlIuWjpmp7M0JfPP+syCuvD8ye2X3vJt4+uWLE4XyxK5tr120HTz/pqTVqwvpqS8dbk0+MaqnT+u/OTH0yGn9kXoCEMVYrC3Vr1N9BQpS++OfV4jMP9TsKsWvOIAle9+49rCn2mJkOVVOMAs1JVAtMxBs/Qv+Er3oG6vpwI59PPUKWQk09e8r09O67bmC8zpzJ8l0zEE2pDldJZt25FsihWrVr6xW+fz5f59qszGzasTIotXz6qflyZNXOtq3u8XYxazFHEUKU5m4g1jJqhBblm6/pke1i8eOFbb5R5jq8bpiVimtIiGKoUN01Z72OPlrcF0fL2jpa3+pSugQ1VklFES9f09Dn05aMPnlqxYkm65HvvHMsXGz5z7frtoOlzfbUjLVhfTcl4a/LpcQ1VgqYzVIk5ov+hSt/+x5khvz41nzDDMNv8ezUuUa56v3Pu8ZNP3tnJq2cLn+Lz/nsnkmKvnNmfL/D2m48dO7q7k+R7yV95af9tt1615aq1a9Ys37hh1U27rnzo4M7z7x7P/3qPhIPjl87cH46Y77j96qu3rL1s9bJwQHn9jk2Td28782/drw6ET5h8mE7SXykbfjHzaie/eftIfladfPvVmRdO3XvquT1d88brh/O/0iOffPR0+K0D+2/YeeMVmzauCn/ODTdcvv/+6597ZjKcoeXLpzO65dxJTYYquekWAKAfww+eoUr9d305Ee6aPocqhYTTxqRkOEvKF8jkrTcee/LEHXvuuTacZa+5bNkVV1wWzrDCSeirZw/mCxclnDaGmdx1x9Yd120MZ3mrVy8Np3vbrll/802bHz6069xbheebU/FOzLtm0C6Z6CfU6Qw6VOl3n7+QfpdwNp0vk0k4QU7Kv3zpUnrt1UPJS53l/OH7T4bT52u2rl+/bsW6tSvCSfqhh3b+/OUH8rPtkXLbT9gk0osiLNh8mU4ePDCz5QfJpYAkI9p+yv1d6Xx24blkgT/z9N3J9JfO3B9mdfWWP13ECEs+zD/8+W+98WhSIO56TxK20kcevmn3bVu2b//zThrefctVa2+66coTx24PG0P+V9LJd3V//OHJRw7t2rZt/Yb1K8Pfcv2OTQcP3Hjm3/aF2iD/670z6H6az/DrK5PxdjFqMUeRckOVolyKHF3LMvyWX7qm6iTK8klnyJqqa4avYZKoGfLv1axk6oFbbi5551bXG6aH2fI7GX6PTlKiU6mTPm+YPvPivnR9FY6y0q+O4phzmE6lTobv5IpS49W5RQg5+4sHQyW8a+eVnTW19ep1+/ftePedJ6YqHKoU69g+yvrqmhL7V/T1Pvz2nM4w+9folnMnWt78ezUrWt4eNUMnWt4eiVLDRKyB4w5VGn75ZOZW7qpsxOWTSen9K8p6z6f050ky5LlzUbR0+fdqVvof+hI22nTJ50/tSb8a6xi4ntdv49Z4nZRreftfX0UJ7WNSFZw4dnu+QD5hZSW/kmnB0xm+5c1koPU1ir9r+PU+ihbh7M8fDC1jWMhrL1baW7euCwu5c877zrmjycd78/V+q/Gpcdfk04YqQTmGKjFH9D9U6aXP9uQP2YdPmG3+vYpy/ssnTn7yPx/64Gf3vffTg+9fe+KTm8/97vD/9R+v5EtWnChXvbte28onnLgmxcKJa75AZj6ffHRy+/aNyZS0VauW5m+sKUo4tl6TenJJ3oYNK488dkvmt4reurdHHym8nvLh+09mS6fcdNOV+V8pys9ffmD16qXZWfynFSsWv3j6vvxvJRnRck5Sk6FKbroFAKB9+u/6ciLcNf0PVUqfLIeSn114Ll+mk88/O3XnHVvnzUuKZ92x++qu33WTyfEndq9bO/MNOV2Fs9eip+fGOjHvmoG6ZKZGcEKdzqBDld5/78SCBfOT8v28S/rpp5lHJ07etS156fbdV7/x+uFwDp5MSdu188p+1vsw28/jR25Nl8z0zqZz9hcPpkse2H9DpkD07WeYvyudV88+lPzK0qWLpi72Om/evCY1pxnz588Lb9r5xbjr/csvTu+559qwA/b4iyYuPt/6gf3X9/i7Ml3db7/52KpV3S/vbL92w6cfzz68Kp1B99N0Yq2vTMbbxRirxXzo3Z/tOvoPm2/98bqfLv/xxh/89U/+y482LP27n/63n97+f+x+bnO+fJKmt5hdU26oUpRLkUW/0lvvfT/Wll+6puokyvKZildTdc0wNUwm7agZSqcFNcP1OzalNqiJosG9sybWlp8k1h7dSblOpU76uWE6/O681Ge9bPWyzO2q0Y85h+xU6mT4Tq4o673oV3qroEX46vcvhmLZ37xoyZKF4c+pbKhSrGP7KOsrn3L7V9Fb99ZjvQ+/PScZcv8a0XJOouXNv1dRtLwdfW5pUWrOJOVqhk60vD0SZb0X/UpvXWvguEOVhl8+SYa5Khtx+SQZcv+Kst7TGfLzJBny3Lko7Wjp5vLVp/6Hvpx+fm+65EMHd6ZfjXUMXM/rtxFrvE5Kt7z9r6+ivP7rR9JzmPXYJjTK6fJF31YXpeXNZKD1NYq/a/j1HrdFCOe8txec8y5atCDsXP2c83bNeGvyaUOVoBxDlZgj+hyqdOHrpx/9KHuwHiVhtmHm+XfM57XPD4YD/XxevDDLcUwFqe1V7x3Xbdy4YeaYL2/hwvlnf/5gfibpfHbhubvuvCZ94alIOGbK/G7RwVlvPa4pDH8E2cnDh3al77bpKpy3h9Onokc4RF/OmdRkqBIAALRPn11fToSL0v9QpXCulCo5ceGTZ/Jlpi4Om9mwYWVSssimjat6P0IsfZrWW9F94bFOzLtmoC6ZqRGcUKcz6FClqUvX5hWXr84XSOflM/enZj+ReYJg+uaV8GcW9VN2XLV5zYfnuzwML8mQ28/k3TMfJmylPb4o48svToez+6RwZhzOVOztZ8i/K53MTQyhfI8ex2DjhlXJ70Zc75mbaXrbunVdUR9tuqt72zXr09/elhf+lnfOPZ6fSVEG3U+TRFxfmYy3i3H4FvPh89dt2/uTH21Y+tc/+S+drP77H6zd/MPLLv+vyZSfbF5+x6l/zP9uC1rMrhl+qFLpS5HRW5aIW/4wNdVUpOUzFa+m6prSNUw+Ta8ZhkwLaoY1l800XuvWrcgX6DOxtvxOIu7Rw3QqdTLrDdOPPHxTev5r1yx/59zRTJm4x5zDdyp1MnwnV5T1Xs8W4ZOPTl6zdX32d1JCAxEOs5P/Ft22pdO2I79/RV/vw2/PnQy/f0VfzploebW8ncTd0qLUnJ0MUzN0ouXtkSjrPWINXM+hSkNelY24fDoZfv+Kst4jfp4kQ547F6XpLZ2rT/0PfUlvQhMXv7Us/WqsY+B6Xr+NVeNNDd3y9r++eiRdL3Vtu9PZd9/MGgkNdL7AVLyWN5NB11f0v2v49R6xRfj046e3bet1zhu2qS1XrU3+W3TO2zXjrcmnxzVU6fx35yc/mAw/sy9AQxiqxBzR51ClU/9+R/5gPZNdT/zD9gfWZxIm5ktmEmaef8dMvv72xf3nt4bj+4c+2P7ShXvP/vb+8DP8u3PQ/+/9nTOMLrW96p0WDijXrlme/qLkjh7v1clV3Z7AsWLF4s2b16xZszx95J0/wr7l5s3hHdNJzeNPx2eZVzvp8SWen3x0Mhz4hvdMktbPEeRU7pHJExfvrgt/S0iYeealgwduzM9hagTLORNDlQAAYET67PpyIlyU/ocqrV838yjNcBaZLzB18Ztq0sM/OlauXBJORS9bvSzT2RPOtn73+Qv5mUxdHCORKbxs2aIwk+u2bwzn6eHd0y927RSfindi3jWDdslEP6FOp8RQpVPP3pP+lddePZQvk+TWm69KSq5bm70NKH3zStqiRQsu37R6+fLsM3fDesy/RSfDbz/poThhm8m/RTrprwzanPtUEbef4f+udDI3MYQ9IvXbXaRvYoi43vMDAMLfGD781VvWhr1j2bLsei/qh0t3dad1tp/8M5vXrVvRf+/poPtpJ3HXVybj7WIcssXc9+rWtf+0vHNHyIZr/3toH+9/Y1vy6gNvbfvXI5vWbflvnQLX7luXn8PhhreYXTP8UKW0gS5Fxm1Z4m75w9RUU5GWz1S8mqprytUwXdPomiGduXksHZLed+6+65p8gT4Ta8ufir1HD9Op1EnvG6YPHrgx/Yk2bFh5/t3j+ZlEPOaM0qnUyfCdXFHWez1bhPw9W+FNr7h89ZIlCzPTO4oqYZ22Hfn9K+56n4qxPU9F2r+iL+dMtLxa3k4ibmmxas5OhqkZOtHy9kiU9R6xBo47VGn45TMV46psxOUzFWn/irLeI36eJEOeOxel0S2dq09Tgwx9OfnknemS9+/bkX411jFwDa/fTkWq8ToZsuXtf331yIMHZvrpwlv3XoDrUl11mfFpnURseTMZdH3F/bumYqz3iC1Cfmju4sULwzlv/pJjR9E5b9eMtyafHtdQJcM8aDrbMHNEP0OVLnz9TP4wPZ9NO1YmTyNIEibmS+YT3iL/vum89/vHOwf3H38582yV8O/OxDe/6HWfRAVJX/Vevnzx3j3be6frOXOsI/78EVI4rDlx/Pbk0Pb083vTV4LCAVnmu7nTOXb0ttSc/lR4/74d7783sxY+u/DcmRf3hU8yUXCEncna1G09Xb95c9Dsv//6ZIb9HEF++cXpzAMbwtFqODDtvHrhk2ce2H99+sA0LKsLnz6bn0/c5ZyPoUoAADAi/XR9ORHukT6HKp195UC6D6Po/oP0E8ImLj5j79xbM6dO4fTz+h2b0gXCKVt+JiG33nJVUmbBgvlHj9yW6db9+MOThw7u7DxJt2un+FS8E/OuGbRLJp+IJ9Qlhip9+9WZ9ANxe9zc89mF59J3E4YNJlMgf/PKwoXzw1INJ+ydAq+ePZh5+G7m+3mSDL/9pJ+Bt362hyun3y7/lL6I28/wf1c6mYdlJrZeve74E7vDxhCW/Dvnjj5/as+unVeGnTp9E0PE9Z7cTLNmzfKHDu58+83HMh2NJ5+8M72Rhx353XeeyL9Rvqs7lDx2dHeyy4e/aE1qPsFTJ+7Mz6dryu2ncddXJuPtYhymxXzgrW1rrvzL0Cz++O9/0OP2x4ffv+6f7/7bTgO689GN+QKHm9xidk2soUpRLkUO07LE3fKHqamm4i2fWDVV15SrYbqmuTVDJnPzWPrd3xxNtoSJAW/xySTWlj8VdY+O0qnU44bpzJHAFZevLvpWzFjHnLE6lYoyaCdXxPWezthbhHD+mFmML525v/PSV79/8blnJsOfOfPyRUW3bem07b1/pTPMeu+aQbfnWPtX3OWcj5b3sJb3YiJuaVFqzk6i1Axa3h6JuN7TKV0Dxx2qlM+gy2cq0lXZTEovn6lI+1fE9R7l8yQZ8ty5KM1t6Vx96qT/oS+37746XTJsKulXYx0D1/D6bdeUqPGmYrS8mfW1774dYcfvnbCDZ2YSjnDSY6JOP39v/o06Ce1v6t0mQjWSKTDSlnfQ9RXx7yrKoOs9VosQPnB6MS5ZsvDUs/ckFx5fPnN/fsBS0Tlv14y3Jp82VAnKsQ1H8f33f/z664PhZ/YFaqOfoUq//vxA/hg9n8lXfvrPk3+75oofdg7uwz/Cf8PEfMl8wlvk3zed1794qHNw/x//8VIyMfy7M/GXv92f/5Uqk77q3Y+rt6zNzyTWEX/mCCkcHv0698jbX7xyIF2m6JuRP/no6fTDDMK/u14tmrp458qhh3bmb9PJZ5hrCl0z6BFk5kkA+Vtn+iwTcTl3jaFKAE3hiBegYsNXvP10fTkR7pF+hip9eP7Ehg0rU+dDE8eO3pYv9tSJXs/wS7Jn8tqkzKJFC979zdF8mZUrlyRlHjzQ5SSuk3D2euq5PR9/+OdelkxinZh3zaBdMvlEPKEuMVQpZO+925NfWbFicXKvSSYnjt2eFFuwYP577x7LFMjcvBLKvHAq2+F07q0j6ftXrt22If9GUbafdJ/olqu6XK5JJ33rwJIlCzOvxtp+ovxd6eRvYgjLPOzIXR9J+ItXDjx0cGd6Sqz1/rvPX7j5ps2nnr0n/7tJwnoPf0syn/DW+TKZru758+flN+B333kivWbD3pefT9eU2E+jr69MxtvFOEyLufnm1aFl/NH/+MFdp/8p/2q28C1/Kvzjv//Bg+d+ln+1uS1m10QZqhTrUmTpliX6lj9kTRVr+cSqqbqmRA1TlObWDJnMzWPpl87cn2wJE386SM7eb9R/Ym35EffoWJ1KRTdMpz/DxMVvuQzvmP/1TmIdc/bTYdRPmaIM2skVa71nMvYWIX2kvWzZ4td+9XCmwCtn9mdGKxXdtqXTtvf+lU7p9V6UQbfnfvadfspEXM5do+U9rOW9mFhbWqyacypezaDl7ZFY6z2T0jVwDYcqRbkqm0np5RNr/4q13mN9niRDnjsXpbktnatPnfQ5VCkcUaefLhf+/enHl9TqsY6B63b9tiglarwoLW9mffVjw4aV+fls2TIzErLo5Chk8u6ZBnrD+i7z6adV7adM15RYX7H+rqIMut5jtQg3XH95UmDp0kVnf/FgpsBrrx5atmxRaja9/vx8xluTTxuqBOXYhqP45ptDx49PhJ/ZF6iNfoYqPfXJrflj9KLc9eJVnWtb4R/5V4sS3iL/vumEY/rOwX1memfi2d/++cFa40qdr3rfdec1+TIh6S8CvndP9/7U9FFdcPLJWZ5h0PXsN5PS1xSKMugRZPpUJ3yYfIFO0stn2bLF+S9Zjricu8ZQJYCmcMQLTMcYPEP/hq94++n6ciLcI+mhSsFnF57r5MKnz7795mOnn79333070l+uEly+aXV+Pp9/dmr16pm7E67Zuj5fppMvfvt8+lyya59uuo/t5f98/PagiXVi3jUlumQyiXhCXW6o0m/ePpJ+oN0zT9+dLxMSVmVS5rrtG/MFMjev3FiwqB8+tCspE943c7dirO1nxYqZ2ym2XVM4k0527bwyKbxgwfzMq1G2n1h/Vzr5mxh6P581k1jrvc+kL0Z1/fMzXd3bC97r6KW9pz2ev5jOoPvpKNZXJuPtYizdYu795dZVf/cXoWW8/tCGZOLuZ//x8htW/WjD0jA9vLp28w9D/uXg/zh88SG4P/ofP8iUb0GL2TVRhirFuhRZrmUZxZY/ZE01ouVTlFlrqq4ZtIbpkYbWDEWZa8fSx5/YnWwJE323UF0TZcuPu0fH6lTqesP0nXdsTc17YuvWdb0f5BzlmHMqXqdSUQbt5Iqy3vMZb4vwxuuH0wec9+29Lj+Hqdwz4Itu29Jp20nR/pVOufXeI4Nuz7H2r4jLuWu0vIe1vBcTZUuLVXN2Eqtm0PL2SJT1nk/pGriGQ5WiXJXNpNzyibh/RVnvET9PkiHPnYvS0JbO1ack/QxVOnZ0d/qLXya6Hb7GOgau1fXbHilR40VpeWMNVTry2C1JgaVLFxU1hemKqGuNMdKWt8T6ivV3FWXQ9R6lRXjz9UfT57x7Jq/NzyFkzz2XjBIvOuftmvHW5NOGKkE5tuEo3K1Vf7MOVfr9Ny/kD9B7pNy1rZDwRvl3T/LL3z5Q2yP+qRpf9Q5HOUXP20gfPRcdeK1ftyIps2ljvw8w6J1y1xR6ZKAjyI8+eCopPNHzG96PHrnkC1vfeO2RTIGIy7lrajJUSTUOMCtVJTAdY/AM/Ru+4p2168uJcO9khirN6rrtG/PfrxJy5t/2pYu9/uvsaVc66c6bHdd16dlKD4564vEu3+DUT2KdmHdNiS6ZTCKeUJcbqhSy7ZqZ4ShdV0Q4O07foNB1zpmbV/IP2e3kw/MnFiyYnxQL20D61VjbT3rLmXWAza03X5UUDr76/YvpV6NsP7H+rnQyNzEsX764991F+URZ730mfRvZunUr8gUyXd1Pn+w+dOrCJ8+kv/Zk33078mXyGXQ/HcX6ymS8XYylW8yf7VsXmsUfb1r28PnrOlP+6bbLOm3lP/zLX19955rNt/74b9b/6a6R6/av7xS44l9/FP57+Q2r8nM73NgWs2uGH6oU8VJkuZZlFFv+kDXViJZPUWatqbpm0BqmRxpaMxRlrh1L77+0Ics/i7f/RNny4+7RsTqVMjdMf/vVmdtuvSqZMnHxXreut9+lE+WYM2KnUlEG6uSairTe8xlvixDO4JKXwh917q0j+V+f+lNjcTApNlF825ZO2/5Tbr33yEDbc8T9K+Jy7hotbyda3ihbWqyas5NYNYOWt0eirPd8StfANRyqFOWqbCbllk/E/SvKeo/4eZIMee5clIa2dK4+JckMfTmw/4awDXey997toZJfl2ovOkJV/ItXDmTmE+sYuFbXb3ukRI0XpeWNNVTp4w9PLlw406R2XRovn9mfFAi12W/ezp5qjbrlLbG+ovxdPTLoeo/SImTOed9+87H8HKb+PKIpKVh4zts1463Jpw1VgnJsw8wRsw5V+vSrp/JH5z1S+tpWeKP8uyd59dKHE3z45YlwlB/SmXji45s7/+2aUDg/w7hJX/W+bPWyp0/e1Tv5w/2peEf86fmsXLkkX6CTQw/tTIpt3bouX+Dbr86kTwlOHLs9X6ZEyl1T6JGBjiDP/vzBpHDw7jtP5Mt08tmF59LXyJ4/tSdTINZyLkpNhiq56RYAoB/DD56hSrN2fTkR7p3+hyqFc6XjT+zOz6GT9KPRJi7eq/2nPJ/k3k5eOPWnpDtvwnl3fm7pDo/lyxeHOeTLzJpYJ+ZdU6JLJpOIJ9SlhyqdfPLO5LfCWfP772W3tAf2z5ykhw0gM5ink/TNK8uWLe76ZMFOwnl0UnLPPZc8Zy7W9rN48cztFDt2bMp/hnTS9+4Emef5Rdl+Yv1d6WRuYjiw/4Z8md6Jst7zCcXeOff4S2fuf+6ZySTh4yWzWrVqaf630l3dYfX1eK/rd2xKSvbZqzfofjqK9ZXJeLsYS7eYm3asDM3i5lt/3PnvrqP/0Gko//XIpqTMjzctC1M6z7UNuW7/+vDfNVf8MD+3w41tMbtm+KFKES9FlmtZRrHlD1lTjWj5TJWtqbpm0BqmRxpaMxRlrh1L3zN5yV28b73xaL5Mn4my5UfcoyN2KqUPum7ffXX6my0nLh5offnF6fxvZRLlmDNip1JRBurkmoq03vMZb4uQPsC74vLV+TdKkv6cRQd4Om37T7n13iMDbc8R969Yy7koWt5OtLxRtrRYNedU1JpBy9sjUdZ7PqVr4BoOVYpyVTaTcssn4v4VZb1H/DxJhjx3LkpDWzpXn5KUGPrSdURKrGPgWl2/7ZFBa7xYLW9mfR09cluYVe8UVa07rtuYzCe05vkCd6S+mfaqzWvyBUbd8pZbX8P/XT0y6HqP0iLsu6/fc94NG1YmJfvcKToZb00+bagSlGMbZo6YdajS+S+P5o/Oe6T0ta3wRvl3T/LLzy454k+O9fvJ2dE/uiB91XvzlV2OwvtJrCP+9Hy6FugkHMgmxbZc1eWBYefeOpIUmBjuCUPplLum0CMDHUGm761ZuHB+vkA64fgyKfzopY/zmYq3nItSk6FKbroFAKB9Zu36ciLcO/0PVQrnTZmxHOmknzE2kHnz5uWfFnnXnddkim1YvzJMfPqpu/LDKooS68S8a8p1yaQT8YS69FClL784vXz54uQXHzq4M1Mg/YDGzO0mSdI3r2zc0OvRg7fcvDkpuWvnJaf8sbafZctm/pxrt23If4Z0br5p5vPkrypE2X5i/V3pZG5ieKHgwcY9EmW9Jzn7iwfD8lm1amn6i5i6Cm+a//V0V3fYKfIFktx1x9akZL53sGsG3U9Hsb4yGW8XY+kW82+v/Mv0jSAbr/3v4b/rt/5Vusyqv/uLMPHGwxs7/+3cUPI365fm53a4sS1m1ww/VClfdSQZ9FJkuZZlFFv+kDVV9OUzZE3VNYPWMD3S0JqhKHPtWDrz3Q4vn9mfL9Nnomz5EffoiJ1KmfHhGWf+ra/6KsoxZ8ROpaIM1Mk1FWm95zPeFiH95aU9vkYgZOvVM3e3F922pdO2/5Rb7z0y0PYccf+KtZyLouXtRMsbZUuLVXNORa0ZtLw9EmW951O6Bq7hUKUoV2UzKbd8Iu5fUdZ7xM+TZMhz56I0tKVz9SnJQEOVVq9eWvQFaLGOgWt1/bZHBq3xYrW8mfU16/cW9ki63Vy0aMFnF55Lv/rV719csWLmqn7XtnLULW+59TX839Ujg673KC1C+uCn9yPztl2zPilZdM7bNeOtyacNVYJybMPMEbMOVXr7d4/kj857pPS1rfBG+XdPkhziZ/7bT0Z9xD9V46vePS7ozzqf50/tSQrMmzdRdCY8aMpdU+iRgY4gHzo4M4R91gdebto4c7icv88m1nIuSk2GKgEAQPvM2vXlRLh3MkOVtm/f2MnWrevCGd+8eZfc0bthw8oLnzyTn8nUpc9FG9Rv3j6SmdsnH51csWKmmyQjnADefNPmZ5+e/OK3z+c/SZJYJ+ZdU65LJp2IJ9SlhypNXdrLHtZv+qX0/fdhSyh6VnH65pVrtq7PF0gSTsaTkpnenVjbz+rVS5Pps/aGpu/dyd+bHmX7ifV3pZO5ieGtNx7Ll5k1w6/3kNd//UhY45dWEr2sWJFdyFOXdnX3fmJi+rue1q1dkS+Qz6D76SjWVybj7WIs3WL+aMPS0CzueuIfOv+97OIjbLft/UlS4KF3f9ZpOncd/XOZzs0iP/77H+TndrixLWbXDD9UKeKlyHItyyi2/CFrqojLJ0pN1TWD1jA90tCaoShz7Vj6kUO7UlvQxMkn78yX6TNRtvyIe3TETqXeN0yH47ePPzyZ/61MohxzRuxUKspAnVxTkdZ7PuNtEdJfr7H71i35N0qS3jaKbtvSadt/yq33Hhloe464f8VazkXR8nai5Y2ypcWqOaei1gxa3h6Jst7zKV0D13CoUpSrspmUWz4R968o6z3i50ky5LlzURra0rn6lKSfoUrLli3etGnVw4d29Xi6XKxj4Fpdv+2RQWu8WC1vxKFKoWpdsmRhMquwatKvnn7+3uSlBQvmf/j+k/k5jLrlLbe+hv+7emTQ9R6lRbh6y9rk1dt3X53/9SThIyUli855u2a8Nfm0oUpQjm2YOaIpQ5UyqdUR/1SNr3oPM59HHr4pKbBs2aJ8gXIpd02hRwY6gkw/0CUcDecLpJMep555nM9UvOVcFEOVAABgREp3fRVlrp0Ip4cqzZs3L/Nq5wbfpEBw067s+VQnGzasTBfr37x5E+/+pssDDn/1y4c2rJ9lnuvWrejxrLuRnuiV65JJJ+IJ9TBDld54/XD6Bu6zP38weWn3rVuS6Vu2ZJ8blyR980r+dDudfffNdGquuWxZ+qVY20/664Au37Q6/xnS2bZtZtvOPw8yyvYT6+9KJ30Tw/z587784nS+zKwZfr2Hj7dq1czAsH4sXdrlelS6q7v3AwgPPTTTz7pkycJ8gXwG3U9Hsb4yGW8XY+kWs3OzyM3HLk//N3nMbcjeV7d2ms6bj/+5zDV71ob//uSflufndrixLWbXDD9UqXQNk0+5lmUUW/6QNVWs5ROrpuqaQWuYHmlozVCUuXYsfezobaktaOLRR8rfXRply4+4R0fsVOp9w3Rww/WFf2+SKMecETuVijJQJ9dUpPWez3hbhPWpY/KwzPNvlCT92PWi27Z02vafcuu9RwbaniPuX7GWc1G0vJ1oeaNsabFqzqmoNYOWt0eirPd8StfANRyqNBXjqmwm5ZZPxP0rynqP+HmSDHnuXJSGtnSuPiXJDH05+eSdzz492clzz0y+evbgpx8/nf+tfKJs+VM1u37bI4PWeLFa3ohDlaYyX9dz6UCa9Evbt3cfYzPqlrf0+hry7+qRQdd7lP0i3Q91397r8r+e5NZbrkpKFp3zds14a/JpQ5WgHNswc8SsQ5WKvke1KKWvbfX+HtVManXEP9XSq96PH7k1KbBo0YJ8gXIpd02hRwY6gtwzOfOEnswzgPNJj2jPH/zFWs5FMVQJAABGZNauLyfCvdN7qFLI55+dCqfGSZngxdP35YtdcfnqpMCNN1z+xW+f7z/5uSVv/cTjt23dum7+/MJvQwhnuK8V9IuP9ESvdJdMkogn1MMMVQrZclWXJ8CF9bJ06aJk+rGju/O/2En65pUeyznkwP6ZjS0zNCjW9rMlde4/0FMDwwfIvBpl+4n1d6WTvomh/1vq8xlyvad/feLi95DsvXd7qBzeeP3whU+f/farM5288tL+pEzXT5vu6t5+7YZ8gSTpTt8+v/Zk0P10FOsrk/F2MZZuMS+7/L+GZvGGh/++89+fbF4e/nvNnrVJgV1P/OkptiG3PXNlZ8r6a1aE/26+ZXV+bocb22J2TQuGKo1iyx+ypoq1fGLVVF0zaA3TIw2tGYoy146l09tPELaxfJk+E2XLj7hHR+xUytwwHU46Hjm0a/v2Sx5L/9jhm/O/mE6UY86InUpFGaiTayrSes9nvC1Cej5hmeffKEk4Ck1KFi1knbb9p9x675GBtueI+1es5VwULW8nWt4oW1qsmnMqas2g5e2RKOs9n9I1cD2HKk0NfVU2k3LLJ+L+FWW9R/w8SYY8dy5KQ1s6V5+SxBr6EmXLn6rZ9dseGbTGi9XyxlpfnZx+YW8yq4UL53/y0Z+/CPF3n7+Qvm7/5KVfTJRk1C1v6fU15N/VI4Ou9yj7RbrPtPfjOW679aqkZJ8LuZPx1uTThipBObbhKL7//o9ff30w/My+QG3MOlTp06+eyh+d90jpa1vhjfLvXpRaHfFPVXvV+8hjtyTF8kc2/c+n9xFSyEtn7k8KBO+/dyJfpkTKXVPokYGOINOH+8uXz3KSk36KWziPyrwaazkXxVAlgKZwxAtQseEr3lm7vpwI986sQ5VC3jl3dNGiBTNnQ7lBHSE7d87cBrF167p8gWFy4QkP6z0AAIAASURBVJNnwinngf03bL163cKF85M3+vPbXd397fo80Zv1xLxrSnfJJIl4Qj3kUKVjR3cnv7t06aJO93n6/HfJkoU9OtjSN69suarwS3imLn2kX2atxdp+0s+oW7Bgfu9nkS5fvjgpvG3b+syrUbafWH9XOrFuYhhmvb/1xqPpL2W6bvvG333+Qr5YZoZdP226q7tr3ZJk397rkpKzfmVWJ4Pup6NYX5mMt4uxdIu58dr/HprFq+9c0/nvltsvC/9dc+VfHvzNz8J/D77zs/Vb/6rTdG695093kNx87PI/3zty8or83A43tsXsmhYMVRrFlj9kTRVl+USsqbpm0BqmRxpaMxRlrh1Lh7YyffvmdYM/ADhJlC0/4h4dsVMpfcN0WFxPPH5bmBhmuGLFkmT6rLe6RjnmjNipVJSBOrmmIq33fMbbIuzYsSmZz803bc4XSHJ9qmTRbVs6bftPufXeIwNtzxH3r1jLuSha3k60vFG2tFg151TUmkHL2yNR1ns+pWvg2g5VSlLuqmwm5ZZPxP0rynqP+HmSDHnuXJSGtnSuPiWJNfSlzy1/1mPgWl2/7ZFBa7xYLW+s9dXJt1+dWblypr0+euRPjXjI0yfvTiYuWbLwswvP5X93avQtb+n1NeTf1SODrvc+94veLcKNN1yevBqOu/K/nuS61FjxonPerhlvTT5tqBKUYxuO4ptvDh0/PhF+Zl+gNmYdqvT7b17IH533SOlrW+GN8u9elFod8U9Fuup9+JGZ7wnNfHNlOnvv3Z4Uyx/ZTEU6Qgr58PyJpEDwykv782VKpNw1hR4Z6Ajy1LP3JIXnzZv31e9fzJdJsmzZzCj8zvW4dGIt56IYqgTQFI54gekYg2fo3/AV76xdX06Ee6efoUoh9+6ZOXsNnjpxZ6ZAur9q1qe1DZOPPzwZTqUzXePvvXMsXzLWiXnXpLtknnn67nyBWRPxhHrIoUqff3Yq/+C69LWR5Ct3uiZ988q6dSvyBZKke/Qz9yzG2n4OHpg5uw/O/uLBfJlO3n3niXTJ+/ZelykQZfuJ9XelE+smhmHW+wP7Z67erF699MKnz+bLdJK+ztP106YXUZhVvkCS3bdtSUr2WCPpDLqfjmJ9ZTLeLsbSLeY/3/23oVlc+0/LO//d++rWH21Y2rlfZPMtq//2H38Y/r1x+1+v+ru/CP/48d//oNOMXvGvf5OfVScNbTG7pgVDlUax5Q9ZU0VZPhFrqq4ZtIbpkYbWDEWZa8fSIRvWr0w2hgUL5pe+vSnKlh9xj47YqZS+YfrWW2ZuzXnh1L3zUmMKw5LscVtSlGPOiJ1KRRmok2sq0nrPZ7wtwl13bE3mEw4v8wWSbN68JilZdNuWTtv+U26998hA23PE/SvWci6KlrcTLW+ULS1WzTkVtWbQ8vZIlPWeT+kauP5DldLp/6psJuWWT8T9K8p6j/h5kgx57lyUhrZ0rj4liTX0JdYxcK2u3/bIoDVerJY31vpKcvddM2OAr9n65yespcfG3LSr8K8bdcs7zPoa5u/qkUHXe5QWIf3tVVu29BrRHX43KVl0zts1463Jp8c1VOn8d+cnP5gMP7MvQEMYqhSFu7Xqb9ahSiFPfXJr/gC9KOWubYW3yL9vj9TqiH8q0lXvY0dvS2aSP2RJcvNNm3sXi3KE1En6BpQH9l+fL1Ai6WsKL5y6N19g0Ax0BPn6rx9JCgevnj2YL9PJO+eOph+imb/8EXE5d01NhiqpxgFmpaoEpmMMnqF/w1e8s3Z9TTkR7pk+hyp9+vHTy5bNfAXN+nUrvv3qTLpA+nQpnH4WfXFBrDx98q7k7YLTz3e5NTzWiXnXbLlqbfJbRx67JV9g1kQ8oR5yqFLIHbuvTn592zXr33vnWPopxT0G/ExdevPKokULwqaSL9NJuh9r36VDg2JtPy+evi+ZT/DoI4V3eJx88s50yRdPZzehKNtPrL8rnYg3MZRe7+lvr9q1s9fVm/QNUl0/bbqre8GC+R++/2S+TCfpne6uO7bmC+Qz6H46ivWVyXi7GEu3mLc/94+dlvHO039uGSdf+en/ufNv/vbKv1z1d3+x/poV/3pkU5h461NXhH+HKWs3//Bn+9Y9fP66/Kwa3WJ2TW2HKvXfsoxiyx+ypoqyfCLWVF0zaA3TIw2tGYoy146lp3JD+g8euDFfpp9E2fLj7tGxOpXSe9kdl46FTh9JBrtv3ZL/9XzJ0secETuVijJQJ9dUpPWez3hbhIcO7kzms+ayZfkCnXz5xen0OWbRbVs6bftPufXeIwNtzxH3r4jLuWu0vIe1vBcTZUuLVXN2Eqtm0PL2SJT1nk/pGrhZQ5U66eeqbCbllk/E/SvKeo/4eZIMee5clIa2dK4+JYk19CXWMXCtrt/2SIkaL0rLG2t9JTn7iweTuc2fP+/9906ExiK0xcnE50/tyf9WJ6NueYdZX8P8XT0y6HqP0iKkV/rixQuLDpM++ehk+g8sOuftmvHW5NPjGqoETWeoEnNEP0OVfv35gfwxej57fr5l6z1rwxF/50wg/CP8N0zMl8wnvEX+fXukVkf8U5Guep9+YW8yk1Wruj9U4MsvToeXkmL5I5upSEdInVyRGqi9bNmiTz7qfpw0UMLySeaZfDvnMBnoCDIc36ePm3s87jf9JbPBO+cezxSIuJy7piZDldx0CwDQj+EHz1Clfrq+nAj3SJ9DlaYuPV+byH2x0qtnD6ZfffjQrvwc4mbFiiXJ2x072uWENNaJedekO/D23rs9X2DWRDyhHn6oUrpffP78eenn223atCpfPp3MbS5FHVSv/erhdLHMnxxr+wkrdMmShcl8ejzQ7obU4/oWLpyf70GMsv3E+rvSiXgTQ+n1nr7tqUev87m3jixYMD8p2fXTpru6J4oX0W/ePpJ+9vOhgzvzZfIZdD8dxfrKZLxdjMO0mOu2/LfQMq776fKH3+9+C0j/aW6L2TW1GqpUrmUZxZY/ZE0VZflErKm6ZtAapkeaWzNkMjePpUPefP3RdD/F+p5fO9AjUbb8uHt0rE6lHjdM/+7zFzZtnLm/OTj5ZPbrWzuJcswZsVOpKAN1ck1FWu/5jLdFePqpS+5gfulM930wc6Nz0W1bOm37T7n13iMDbc8R96+Iy7lrtLyHtbwXE2VLi1VzdhKrZtDy9kiU9Z5P6Rq4iUOVpvq4KptJueUTcf+Kst4jfp4kQ547F6W5LZ2rT53EGvoS6xi4Vtdve6REjRel5Y21vtIJhzfJDA8/ctOJY7cn/12xYnGP70oadcs75Poq/Xf1yKDrPUqLcObf9iWvBmEbyM9hKrdtFJ3zds14a/JpQ5WgHEOVmCP6Gap04etn8sfo+WzasbJzVSudMDFfMp/wFvn37ZFaHfFPRbrq/cbrh1MHG92/J/SJx2ceYDDR7chmKtIRUieZt7vv0kfa5BPOivMTM7nkOtfthQe4/WfQI8irt8yM11+yZOGFT5/NlwnHsukzq40butxtE3E5d01Nhiq56RYAgPbpp+vLiXCP9D9U6eMPT6YHgWxYvzJT4KrNa5JXly9ffOGT2ZdJmGd+Yj/53ecvLFw4c2Px0yfvzpeJdWLeNen+uXWlbouJeEI9/FClkCsuX52eSeKRgq7HJJmbV4oupGQex3v+3eOZArG2n/QYpLBJP/dMl6Xx8pn96RvTu45oirX9xPq7ksS9iaHcet9778xDrLdevS5foJObbroyNcvunzbT1d31ok3IvvtmioV112fXaYn9NPr6ymS8XYzDtJh3Pr951d/9RadZPPiba/MF+k9zW8yuqdVQpdItS/Qtf8iaKsryiVhTdU2JGqYoza0ZMpmbx9KdbN26LrUd/enukx532ISXjjx2y/vvnchMj7LlT0Xdo2N1KvW4YXrq4lOf048ZDmcc5946kp9JrGPOWJ1KRRm0kyvWes9kvC1C+K1lyxYl87nl5s353wrZfu1Mb+xE8W1bOm07Kdq/0im93osy6PYca/+KuJy7Rst7WMt7MbG2tCg1ZyexagYtb4/EWu+ZlK6BmzhUqZ+rspmUXj6x9q9Y6z3W50ky5LlzUZrb0rn61EmsoS+xjoHrdv22KCVqvCgtb6z1lc7+1GIJNc/27RuT/95Z/DieTkba8g65vob5u4oy6HqP1SKkv1Vy/boV+eUctoSwYJMyE8XnvF0z3pp82lAlKMdQJeaIfoYqhZz69zvyh+mZ7HriH7Y/sD6TMDFfMpMw8/w79k6tjvinIl31/uzCc+m7XrZdsz7z/b9nf/7gypUzzxqZKDiyiXWE1En6aSXz5s2bvHvbl1+czhd7950nrtu+cdGiBfmXMtlzz7XJDEP5N157JF9moAx6BJkZp7716nWZb9X84rfP79ixKV2m65OB4i7nfGoyVAkAANqnn66vKSfCxel/qFJIOItMCk90+2Kl+fNnnth21eY1b77+aH4mnZx6bs/2azeE8r95O3s/xEcfPLV69dK77rymxzlm+utfwkzee/dYvkysE/Ouee6ZyfQv7t+3I1+mdyKeUEcZqnTk0VvSM+lYuHB+WB35wulkbl4JwnaSKRPOxNProuvD/GJtP5lhA0uWLPzVLy/pQTz31pHlyxeny5x+vsvQgljbT6y/KzXDmDcxlFvvYd9Pl89vcl/9/sW9e7ann6M5UfBpM13dE93uozr17D3pm2D6uV7USYn9NPr6ymS8XYxDtpg7H93YuV9kzT/+5fWHNtz/639OXnrw3M/uObMlFNhy+2X/86kr8r+bpNEtZtfUaqhS6ZYl+pY/ZE0VZflErKm6pkQNU5RG1wzpzM1j6U5ef+2R9GFDcP2OTV/89vl8yRdP792wfmUo8ItXDmReirLlT8Xeo6N0KvW+YXoqd0AS3jR/x3msY85YnUpFGbSTK9Z6z2TsLUJ6vGjYco4euTVT4IH9Mwuqo+i2LZ22vfevdEqv96IMuj3H2r/iLud8tLxa3k5ibWmxas5OotQMWt4eibXeMyldA9dtqFKsq7KZlF4+sfavWOs91udJzXCoc+eiNLqlc/VpKt7Ql1jHwHW7fluUQWu8ToZveWOtr3TefvOxS69Xzcgf0mQy0pZ3yPU1zN9VlEHXe6wWIXPhMWxI6S6VsBmEPS5dYKL4nLdrxluTT49rqNL5785PfjAZfmZfgIYwVIk5os+hShe+fvrRj7JH6lESZhtmnn/H3qnVEf9UpKveIbt2Xpk63vjTrJ59evL11x558fTecByfflZNR9cjm1hHSJ2E04xM52so/Njhm3/+8gMXPn02fLZwILXnnms7z8nueoSdyYun70vPLZzk3HzT5gMP3HDs6G3Hn9jdSdGJ91tvPPr8qT2ZpC+cbblqbb5A/hEF6ecBBJs2rTp2dHc4un3n3OMnjt+efq7JRPGTAOIu53wMVQIAgBHps+vLiXBRBhqq9N67x9IdThs2rMwUuH331cmrExfPK+/ds/25ZybPvXXkswvPvXr2YDir2nvv9jVrlidl8o9uff+9E52XwvlrOOM7/MhNp1/Y++47T4SXPvnoZDinTj9rLdi6tfCrEqKcmBcl/dS04PJNq+/YffXePds7mbWTZpgT6kyiDFX69OOnFy+e+dasjh4nyEnyN68EYcmfevaeD99/8pUz+/fdtyPdJzp//rz8Su8kyvYzdemFnWDZssW33XrVUyfufPqpu8I6yvS/hs0pP4dOYm0/sf6uTuLexFBuvb9z7vH0Og3VQtjmw2f+9qsz4efJJ+/MXKvp6Ppp813dExc/QFjUH54/8YtXDjyw//r0e4Vq6rVfPZyfT1FK7Kdx11cm4+1iHL7FvOvFq36yeXnyyPa/Wb907eYf/mjD0vRz3P/1yKb8L7ajxQx56cz9YaNK57LVy1Lby8Tq1UszBV44dW9+PiO6FDlMyxJ3yx+ypoqyfCLWVEUpUcN0TdNrhiHTgpqhk/TNMR1rLlsW9sHHDt/88pn7Txy7ffLubVtSW13+LpwoW34nEffoKJ1Ks94wHbLjukuO8MNOlCkQ8ZgzSqfSVKROrojrPZ2xtwjhnC59tBy2onsmt515cd9HHzwVWsZwcJ68lCi6bUunbe/9K51h1nuU7Xkq0v4Vdznno+XV8nYScUuLUnN2EqVm0PL2qKkirvd0StfAmaFKy5cvzpxRFuXokdsys4qyfCJelU2n9PKZirR/RVzv/z979xcrVdnvCX7f9UXf70uuSCf0BQkXTpwwQw5hSAihHeIw0kZC8Miog4xKBGkQFQEBEbeIiGxQVBAO/uP1+P9f3P7DF4RXcfvO7Ezmok26++YkJ5PppHPepPv0nud96/SiXE/tqrWrVq31VO3PJ99UYNeqVXuvP8+zaq3nV6uU3ydLj5+dZ8qg93TOPpVY+lLKMXCC529LafEa6b3nza2v0JHFjXacnTvujGfVnOYaqswtq5bEU8Ypq+dtmS7WV3N6+btKWe9l9Qi/XL+wevXSbJpg2bKbtj60Lsw/9BTNvUBmps+8LVNvSz5dV6mSMg8GnW2YOaJgqVLIG1f2xMfrvSfMNn6vjknqiH+qvLPeF995uul4o7XGsWxDyyObso6Qsjy5777cQfZMWh5hx8mdjIgdPbI1flVIOALLT1pAOKzMzefNCwfjj08thY9GZ159Iv5NpvqwnHNRqgQAAH1S8NLXlA/CM2RWpUohO7ffmU0/En3d2rdfv7RmzZ+/rba4+GJtdlG8iPB5MB5ukqWUD+Yz5fUze5tmk1dkYXb9gTqXUkqVplp9Tp/pQ3RzWg5eaePRXRvjmTRSyvYz9ZfvOMzVI81k0aIFbb7Jtaztp6y/q5HSBzF0t94PHbzRdLSxdOmNFdHyt215qbuN7Q/P4nreVFf7abnrK5d6LzGW0mMe+WrzjpfvuPORlav/esmK//W///OQkf/lz0NG1m5edvfeWx49uz5MEL9qOHrMqej7MouIB5BN9fNUZNc9S7lbfo8tVVnLp6yWaqZ00cK0zBC0DL1kCFqGLI/t2pjfDmYWH8GWteVPlb1H935RqciA6W8mTjYfv4V3PH/uN/epK/GYs5SLSlOtDqKKyF3kKnG951J7j3Bwtod5MwzbctG2Yab9K5eu13sp2/NUSftX6cs5Fz1v/F4do+dtmGlLK6vlbKT3lkHP2yzxnjdXqlRc2E5ysypl+ZR4VjaX7pbPVEn7V4nrvZTfJ0uPn51nyhD0dHP87FOJpUqlHAMneP62lBYvS489b259FbSu1aJuzpFnt+Zf06rxb5myet6W6WJ9NaeXv6uU9V5ij3Dx7aeXLl2UTdbSqpU3vuVqps+8LVNvSz6tVAm6YxsuxZ/+9Pc//3w4POafIBnFS5V++eOFU5cejg/Ze0mYYZht/F4Dl7LOeofs3PGbIVw5t69d0Xxz7ZZHNiUeIWU5d3bfihU3Z9PPZNGiBfFr43zy0fPtP4rPdE6hlCPIRsIH+Fta1aM3W7785nAsHr+2kX4s5+YoVQIYFI54ASrWe8Nb/NKXD8ItM9tSpY8/fH7evBuXbeJvXPvD1df37d3U/C16bYR3/PzTF3JzKH5RfOHC+R3Lcnr/YN4m4UNi85W8ZkUWZtcfqHMpq1TprTcONs9n2bKbfrneefNuHryyY/uGe+6+tWkevzE6OnKg05fq9b79NHLx7aeXL+9w6mPVysVh0cWvbU5Z209Zf9dUHwYxdLfer/94fuPG1c0vjIXN+9zZfdl/W/62zZe6t25dd//mtdl/Y3ujr3kuki720xLXVy71XmLUY/ae9EuVeulZStzye2ypylo+ZbVUbdJFCxNHyxC/1+Dm4IH7m+9B2kY8rLOsLb+REvfoqZ4vKhUZMN14l+bxYeGYJHwuyJ4t95iz94tKUyVd5Cp3vTcnhR7huSNbmz885mxYv+qJ3TdW60zDtly0bZhp/8ql6/VeyvbcSO/7Vz+Wc3P0vPF7DW70vPFrp/S8v5V4zzu4pUpFzso2p7vl00jv+1e567333ydLj5+dZ4qeLn6vwUqJpUpTZRwDJ3j+tpQWrzm99Lx9KlUKDXKunQkd7kcfHI2nbJlSet6ZMtv11Zxe/q5S1nu5PcJnnxxr07s99ujdob/I/hsOqOI5zJR6W/JppUrQHdtwKSYnx8bHR8Jj/gmSUbxUKeTa5JkXvtsSH7h3lzCrMMP4XQYxm5uOqu+6c8bj1IIJn6jjz6jhc3v4MHDl8munX34s+2HLY+LmavKtD62LJ2ik43xy+f670+EXWLx4YfaqZosXL9rzxL1tPjDnEj6KHz+2/YH7b1+5YnE4GG0+pRW8cGx7/JKp6M7IBc10C+nwF4VPRC2/FWDBgnnhk9I3X52KX5WlT8s5i1IlgEHhiBeYLqN4huJ6b3iLX/qa8kG4Vcae2ZJ9zAmfnuIJ4jSPeBhpNdpj6i+FIuvXrYw/DjfMmzcaPm4fGXvoi8+Ox6/96dq548d2bNlyR/NdDnIWLVrwxO57modQtEmPH8zb59OPj+165K4N61fdfPNvPmIXXJjdfaDO5cMPnmt+1etn9sbTFMkv1y80f6wOSzieJk7z4JXwST8s0k2bbou/hXDJkkUnxx+JX94yvWw/Wb79+qXt2za0PFHQ8NYbha7Dlbj9lPJ3ffD+kewlS5cuiieYbbpb740XPv/cttyW3xA25sd2bbx65UzH3/bpQzeqJXduvzPs/mHfz+0II3/ZflrWexRMd/tpKesrl3ovMeoxe8+rp3fnN4VOWjZ9fT0V2WPPUsqW33Hfb58Sl08pLVX7dNfCNEfLMGT5+MOj4Wh5plE7YcMIz+buWtBIiVt+llL26EZ6uai0bev6bMrHH7s7niBLc+FKEHau7KnSjzl7vKg0VdJFrn6s9ywp9AhnXn2i5TcIhOVw6dvTTx28P/vJIzMMpnfRtv3+Fae79V7K9pylx/2rT8s5i553yKLnjaPnbZZ4zxs+j7Qp620j9KG5WZWyfEo/K9ucLpZPc3rZv/qx3nv5fbL0+Gl0pujpBj1hT2nelq79cDaeZlbp8Rg4wfO3pbR4uXTd8zavr+JaLupcmr+1Ibjj9hXxNG3Se8/bJrNaX7l0/XeVst5L7xHCB9sD+zffc/et2aIIu214SZhDeDbsMtl8OpZ2N6felnxaqRJ0xzZcCqO10jerUqWQ76+/dLyMg/4wkzCreP7SSDi2O3d27+FDD4Zjpv1Pbj5xfEcvR3vl5svPT5w9s+eZw1t27bzryX33vfjCjjcvHOj9c05duf7j+ff/9tmTJx7Zs/ve3Y/fExb13/7umfAxKZ6y4iRSqqQZB+hIUwlMl1E8Q3G9N7yzuvQ15YNwtQmf0T5478hLJx/dt3fTrkfueurg/eMv7rxwfv+3XxdddOEj3sunHj3y7NY9T9wbPlMf3L85zCF8br307cvxxG2S8gfzdNI8BH90dOTDD56Lp4mTG7zS+OEH7x95duyh8MH88cfuDh/SP/no+fiFHdP79hNy+dIrYQ5PH3rgsV0bc9/4uGTJoncvHo5fEqfc7aeUv6vEdLfes1z69nT45Y8+t+2xR+8OCUvp9EuPXbn8Wjxl8YQN5rkjW8P2E2YYFs7HH3az/ZSVctdXvZcY9ZhSPOVu+bWnHy1VidEyDGWu/XD2zGt7jow9tHfPpj8fP+y77/ix7ede3/fdN7M7iC0l5e7RdV1U6tMxZ7IXldJJKdvPF58dD3NorKmxZ7Z0vLVpX1PusX25qWv/6lOS3b/0vEMZPW/p0fNKWWdly025+1fvSe33aURPJ3FKPwZO6vxtuamr5+1T9LxVJuwIn31yLCzz7CfNdVlhLcQvmSn1tuTTSpWgO7Zh5ojZlipN/eUrCnq8oWp4+XB8LYFI/5JIqZJBtwAARfRePEOVZnvpa8oHYZEZcs89t2ZXTTasXxVP0DItB68kmz1P3Jv9tsHNNy8seG+lIU536126S72XGPWYImlGyyBSJIN1zCkiKUfPK1Ikel6RwY2eTkQkkaxevTQ7oHr7zafiCWZKvS35tFIl6I5tmDmii1KlkF/+eOHNy3vjQ/kiCS8ML4/nKSLNSaRUyaBbAACGTxeXvqZ8EBaJ8u7Fw6Ojo9lVkxPHd8TTtMzADV55bNfG7BcOFi1acOH8/niyOZKu17t0l3ovMeoxRdKMlkGkSAbumFNEko2eV6RI9Lwigxs9nYhICjl/7snsaCqY1a3M6m3Jp5UqQXdsw8wR3ZUqNXL559Nnfr8rPqafKWHi8JJ4PiISJ5FSJQAAGD7dXfpqxAdhkUZ+uX7hjjtWZpdMFi9edPVK0e+hHMTBKzu2b8h+55tuWvDaK7vjaeZCelnv0l3qvcSoxxRJM1oGkSIZxGNOEUkzel6RItHzigxu9HQiIhXkg/eOjL+488rl1+KnQq5eObNh/arsaGrTvWviadqk3pZ8WqkSdMc2zBzRS6lSI5d/fuX9q0+f+m7GO6uGp8IEYbL4tSIyU5QqAQBAn/Ry6asRH4RlbuarL0++/+7YxXeePnVyV3O9SrBvz6Z4+pkyiINXfrl+YetD68IvvGnTbV98/mI8wRCnrPUu3aXeS4x6TJE0o2UQKZJBPOYUkTSj5xUpEj2vyOBGTyciUkGOHtk68pfvwtuxfcOFv9l/+dI/NUo/XTv3xoUDq1cvzQ6l5s0bff9vn43n0Cb1tuTTSpWgO7Zh5ojeS5Wy/PTLue+vv/Tljy98cu3ZkPCP8N/ww3hKEekYpUoAANAnvV/6yuKDsMypPPDA7dmVkma3rl763Tcvx9PPlAEdvHL9x/NvXjgQ/3zoU9Z6l+5S7yVGPaZImtEyiBTJgB5zikiC0fOKFImeV2Rwo6cTEakgjVKlzOjoyLJlNy1dumj+/HnNPw92br8zfnn71NuSTytVgu7Yhkvxpz/9/c8/Hw6P+SdIRomlSiJSYpQqAQwKR7wAFeu94S3x0pfInErLkpXVq5d++cWJeOI2MXhlsFLWepfuUu8lRj2mSJrRMogUiWNOESkrel6RItHzigxu9HQiIhUkV6rU0ujoaDiOym64VDz1tuTTSpWgO7bhUkxOjo2Pj4TH/BMkQ6mSSJpRqgQwKBzxAtNlFM9QXO8Nr0tfIt0lV7KydOmi8JMvP591vYrBK4OVsta7dJd6LzHqMUXSjJZBpEgcc4pIWdHzihSJnldkcKOnExGpIBfO79+wftWCBfl7KGVWrVx8/tyT8QuLpN6WfLquUqWJXyd2f707POafgAGhVKkURmulT6mSSJpJpFRJMw7QkaYSmC6jeIbiem94XfoS6S4X33761MldIS+dfPTDD56LJyiYD94/0phPyPvvjsUTSFIpa71Ld6n3EqMeUyTNaBlEisQxp4iUFT2vSJHoeUUGN3o6EZHKcvXKmfPn9j3/3LYD+zfv2nnXzu13PnN4y5lXn/jsk2PxxMVTb0s+XVepEgw6pUrMEUqVRNJMIqVKBt0CABTRe/EMVXLpS0REBiX1XmLUY4qkGS2DiIhIldHziojIcEdPJyIy6Km3JZ9WqgTdUarEHKFUSSTNJFKqZNAtAADDx6UvEREZlNR7iVGPKZJmtAwiIiJVRs8rIiLDHT2diMigp96WfFqpEnRHqRJzhFIlkTSTSKkSAAAMH5e+RERkUFLvJUY9pkia0TKIiIhUGT2viIgMd/R0IiKDnnpb8um6SpUmfp3Y/fXu8Jh/AgaEUiXmCKVKImlGqRIAAPSJS18iIjIoqfcSox5TJM1oGURERKqMnldERIY7ejoRkUFPvS35dF2lSso8GHS2YeYIpUoiaUapEgAA9IlLXyIiMiip9xKjHlMkzWgZREREqoyeV0REhjt6OhGRQU+9Lfm0UiXojm24FH/609///PPh8Jh/gmQoVRJJM0qVAAaFI16AivXe8Lr0JSIig5J6LzHqMUXSjJZBRESkyuh5RURkuKOnExEZ9NTbkk8rVYLu2IZLMTk5Nj4+Eh7zT5AMpUoiaUapEsCgcMQLTJdRPENxvTe8Ln2JiMigpN5LjHpMkTSjZRAREakyel4RERnu6OlERAY99bbk00qVoDu24VIYrZU+pUoiaSaRUiXNOEBHmkpguoziGYrrveF16UtERAYl9V5i1GOKpBktg4iISJXR84qIyHBHTyciMuiptyWfVqoE3bENM0coVRJJM4mUKhl0CwBQRO/FM1TJpS8RERmU1HuJUY8pkma0DCIiIlVGzysiIsMdPZ2IyKCn3pZ8WqkSdMc2zByhVEkkzSRSqmTQLQAAw8elLxERGZTUe4lRjymSZrQMIiIiVUbPKyIiwx09nYjIoKfelnxaqRJ0xzbMHKFUSSTNJFKqBAAAw8elLxERGZTUe4lRjymSZrQMIiIiVUbPKyIiwx09nYjIoKfelnxaqRJ0xzbMHNEoVQLSpFQJAABK17j0BQCDoq5LjHpMSJmWAQCqpOcFYLjp6QAGXV0t+bRSJeiObZg5QqkSpEypEgAAlM6lLwAGS12XGPWYkDItAwBUSc8LwHDT0wEMurpa8mmlStAd23Ap/vSnv//558PhMf8EVOvv/tPfvTP1Tv6nDCwrFIB0OOIFqJiGF5J1ceriv/v//l3+pwAAQBkcbwNAEXpMAIAqKVWCbtiGSzE5OTY+PhIe809AtR7+4uF/8cK/+C//9b/kn2AwWaEApMMRLzCteKZaGl5I0z/+13/8ly/+y00fbco/AQAA9MzxNgAUoccEAKhYPaVKE79O7P56d3jMPwEDQqlSKYzWIgV/95/+7p8f+Odhjz47eTb/HAPICq2SZhygI00lMK14ploaXkjThT9eCB/V/9mT/8zX1gIAQOkcbwNAEXpMAICK1VOqBINOqRIMjYe/eDjsziHuwzMcrNAqGXQLAFCE4hlgjmt8YW3j07qvrQUAgHI53gaAIvSYAADVU6oE3VCqBMMhuwNPI+7DM+is0IoZdAsAAEBHjS+sbcTX1gIkyFk+gIHmeBsAitBjAlA6Z9WgI6VK0A2lSjAcsjvwNOI+PIPOCgUAAICkNH9hbSO+thYgNe6dDjC4HG8DQBF6TAD6wVk16KieUqWJXyd2f707POafgAGhVAmGQO4OPI24D8/gskIBAAAgNc1fWNuIr60FSI3vfwUYXI63AaAIPSYA/eCsGnRUT6mSMg8GnW0YhkDuDjyNuA/P4LJCAQAAICnxF9Y24mtrAQCgd463AaAIPSYAQF2UKkE3bMOlUFJMjVregacR9+EZRFYoAGlyxAtQMQ0vJCX+wtpGfG0tAAD0zvE2ABShxwQAqItSJeiGbbgUk5Nj4+Mj4TH/BPRfyzvwNOI+PIPICgUgTY54gWnFM9XS8EI6ZvrC2kZ8bS0AAPTC8TYAFKHHBACokVIl6IZtuBRGa1GXNnfgacR9eAaLFVoXzThAR5pKYFrxTLU0vJCOmb6wthFfWwsAAL1wvA0ARegxAQBqpFQJumEbhoHW5g48jbgPz2CxQuti0C0AQBGKZ4A5qP0X1jbia2sBAKA7jrcBoAg9JgBAvZQqQTdswzC4Ot6BpxH34RkUVmiNDLoFAACgpfZfWNuIr60FSISzfAADx/E2ABShxwSgr5xVg46UKkE3bMMwuDregacR9+EZFFYoAAAAJKXIF9Y24mtrAVLg3ukAg8XxNgAUoccEoN+cVYOOlCpBN2zDMKAK3oGnEffhSZ8VCgAAAKkp8oW1jfjaWoAU+P5XgMHieBsAitBjAtBvzqpBR0qVoBu2YRhQBe/A04j78KTPCgUAAICkFP/C2kZ8bS0AABTneBsAitBjAgCkQKkSdMM2XAolxVRsVnfgacR9eFJmhQKQPke8ABXT8ELtin9hbSO+thYAAIpzvA0ARegxAQBSoFQJumEbLsXk5Nj4+Eh4zD8B/TGrO/A04j48KbNCAUifI15gWvFMtTS8UK/ZfmFtI762FgAAinC8DQBF6DEBABJRT6nSxK8Tu7/eHR7zT8CAUKpUCqO1qFIXd+BpxH140mSFpkAzDtCRphKYVjxTLQ0v1Gu2X1jbiK+tBQCAIhxvA0ARekwAgETUU6oEg06pEgycLu7A04j78KTJCk2BQbcAAEUongHmiO6+sLYRX1sLAADtOd4GgCL0mAAA6VCqBN1QqgSDpes78DTiPjypsUITYdAtAAAAme6+sLYRX1sLUCNn+QAGguNtAChCjwlAZZxVg46UKkE3lCrBYOn6DjyNuA9PaqxQAAAASEovX1jbiK+tBaiLe6cDpM/xNgAUoccEoErOqkFH9ZQqTfw6sfvr3eEx/wQMCKVKMEB6vANPI+7Dkw4rFAAAAFLTyxfWNuJrawHq4vtfAdLneBsAitBjAlAlZ9Wgo3pKlZR5MOhswzBAerwDTyPuw5MOKxQAAACS0vsX1jbia2sBACDmeBsAitBjAgCkRqkSdMM2XAolxVTjP/zH//Bv/99/2yYPfvpg2KPDY/xUc/7zP/7n/KypgxUKwABxxAtQMQ0v1CJ8xI4/dzen4Ef1f/8f/31+1gAAMOc53gaAIvSYAACpUaoE3bANl2Jycmx8fCQ85p+Aatmjh4wVCkA6HPEC04pnqqXhhTT5qA4AAP3jeBsAitBjAgBUTKkSdMM2XAqjtUiEPXrIWKGV0YwDdKSpBKYVz1RLwwtp8lEdAAD6Z+LXiXCwHR7zTwAATZyhAgComFIl6IZtGIaJPXrIWKGVMegWAKAIxTMAPqoDAAAAUC9nqAAAKqZUCbphG4ZhYo8eMlZoZQy6BQAAoAgf1QFS5iwfAAAwFzhDBUC5nFWDjpQqQTdswzBM7NFDxgoFAACApPioDpAy904HAADmAmeoACiXs2rQkVIl6IZtGIaJPXrIWKEAAACQFB/VAVLm+18BBt3ErxPhYDs85p8AAJo4QwVAuZxVg46UKkE3bMMwTOzRQ8YKBQAAgKT4qA4AAP3jeBsAilDcCwBQMaVK0A3bcCmUFJMIe/SQsUIBSIcjXoCKaXghTT6qAwBA/zjeBgAAABKkVAm6YRsuxeTk2Pj4SHjMPwHVskcPGSsUgHQ44gWmFc9US8MLafJRHQAA+sfxNgAAAJCgekqV3EyTQedkXymM1iIR9ughY4VWRjMO0JGmEphWPFMtDS+kyRUBAADoH5fGAAAAgATVU6oEg87JPhgm9ughY4VWxqBbAIAiFM8AAAAA/ePSGAAU4ct0AAAqplQJuuFkHwwTe/SQsUIrY9AtAAAAAAw6Z/kABp1LYwBQhB4TgHI5qwYdKVWCbvjoAsPEHj1krFAAAAAAgILcOx1g0Lk0BgBF6DEBKJezatBRPaVKbqbJoPPRBYaJPXrIWKEAAACQFFcEAFLm+18BBp1LYwBQhB4TgHI5qwYd1VOq5LCPQWcbhmFijx4yVigAAAAkxUd1AADoH8fbAFCEHhMAoGJKlaAbtuFSKCkmEfboIWOFApAOR7wAFdPwQpp8VAcAgP5xvA0ARegxAQAqplQJumEbLsXk5Nj4+Eh4zD8B1bJHDxkrFIB0OOIFphXPVEvDC2nyUR0AAPrH8TYAFKHHBAComFIl6IZtuBRGa5EIe/SQsUIroxkH6EhTCUwrnqmWhhfS5KM6AAD0z8SvE+FgOzzmnwAAmjhDBQBQMaVK0A3bMAwTe/SQsUIrY9AtAEARimcAfFQHAAAAoF7OUAEAVEypEnTDNgzDxB49ZKzQyhh0CwAAQBE+qgOkzFk+AABgLnCGCoByOasGHSlVgm7YhmGY2KOHjBUKAAAASfFRHSBl7p0OAADMBc5QAVAuZ9WgI6VK0A3bMAwTe/SQsUIBAAAgKT6qA6TM978CDLqJXyfCwXZ4zD8BADRxhgqAcjmrBh0pVYJu2IZhmNijh4wVCgAAAEnxUR0AAPrH8TYAFKG4FwCgYkqVoBu24VIoKSYR9ughY4UCkA5HvAAV0/BCmnxUBwCA/nG8DQAAACRIqRIVaXwtwdDkr177qzm+Dc809GdWP5+cHBsfHwmPzT+k34ZsZywl9uha9G9TtEKr1LJ5T/DnAHVxxAtMO0SploYX0rTbFQEAAOgbx9sAAABAguopVXIzzTmocXZsyDKXT/bNNPRnVj83WqsWQ7kzlpK5vEfXot+bohVajZbNe4I/B6iLI15g2iFKtTS8kCZXBAAAoH+UKgEAAAAJqqdUiTmocXbsr177q93R7S8GN3P54vpMQ39m+3Oqt3sYd8ZSMpf36Frs7vOmaIVWY6bmPbWfAwDUyCEKAAAA0D+7lSoBQAG+TAcAoGJKlaiIs2OQCDsjibApAgAAAADUTmk9wKBz0Q0AitBjAlAuZ9WgI6VKVMSxPiTCzkgibIoAAAAAALWbnBwbHx8Jj/knABgQLroBQBF6TADK5awadFRPqZKbac5BjvWHgyLgIWBnJBE2RfpKhwUAAJAOVwQAUuZMGsCgc9ENAIrQYwJQLmfVoKN6SpUc9s1BVvpwUAQ8BOyMJMKmSF/psAAAANLhJAAAAPSP420AKEKPCQBQMaVKVMRKHw6KgIeAnZFE2BTpKx0WkAjNEUDFNLyQJicBAACgfxxvA0ARekwAgIopVaIiVjokws5IImyKAMwFbvIGTCueqZaGF9LkJAAAAPSP420AKEKPCQBQMaVKVMRKh0TYGUmETRGAuUB9AjCteKZaGl5Ik5MAAADQPxO/ToSD7fCYfwIAaOIMFQBAxZQqURErHRJhZyQRNkUAAOYIxTMATgIAAAAAUC9nqAAAKqZUiYpY6ZAIOyOJsCkCAADAHOEkAEDKlNYDAABzgTNUAJTLWTXoSKkSFbHSIRF2RhJhUwQAAIA5wkkAgJRNTo6Nj4+Ex/wTAAAAQ8QZKgDK5awadKRUiYpY6cNBEfAQsDOSCJsifaXDAgAASIeTAAApcyYNYNBN/DoRDrbDY/4JAKCJM1QAlMtZNehIqRIVsdKHgyLgIWBnJBE2RfpKhwUAAJAOJwEAAKB/HG8DQBGKewEAKqZUiYpY6cNBEfAQsDOSCJsifaXDAhKhOQKomIYX0uQkAAAA9I/jbQAAACBBSpWoiJUOibAzkgibIgBzgZu8AdOKZ6ql4YU0OQkAAAD943gbAAAASFA9pUpupjkHOTsGibAzkgibIgBzgfoEYFrxTLU0vJAmVwQAAKB/XHQDAAAAElRPqRJzkLNjkAg7I4mwKQIAMEcongEAAAD6x0U3ACjCl+kAAFRMqRIVcXYMEmFnJBE2RQAAAACA2imtBxh0LroBQBF6TADK5awadKRUiYo41odE2BlJhE0RAAAAAKB2k5Nj4+Mj4TH/BAADwkU3AChCjwlAuZxVg47qKVVyM805yLH+cFAEPATsjCTCpkhf6bAAAADS4YoAQMqcSQMYdC66AUARekwAyuWsGnRUT6mSw745yEofDoqAh4CdkUTYFOkrHRYAAEA6nAQAAID+cbwNAEXoMQEAKqZUiYpY6cNBEfAQsDOSCJsifaXDAhKhOQKomIYX0uQkAAAA9I/jbQAoQo8JAFAxpUpUxEqHRNgZSYRNEYC5wE3egGnFM9XS8EKanAQAAID+cbwNAEXoMQEAKqZUiYpY6ZAIOyOJsCkCMBeoTwCmFc9US8MLaXISAAAA+mfi14lwsB0e808AAE2coQIAqJhSJSpipUMi7IwkwqYIAMAcoXgGwEkAAAAAAOrlDBUAQMWUKlERKx0SYWckETZFAAAAmCOcBABImdJ6AABgLnCGCoByOasGHSlVoiJWOiTCzkgibIoAAAAwRzgJAJCyycmx8fGR8Jh/AgAAYIg4QwVAuZxVg46UKlERK304KAIeAnZGEmFTpK90WAAAAOlwEgAgZc6kAQy6iV8nwsF2eMw/AQA0cYYKgHI5qwYdKVWiIlb6cFAEPATsjCTCpkhf6bAAAADS4SQAAAD0j+NtAChCcS8AQMWUKlERK304KAIeAnZGEmFTpK90WEAiNEcAFdPwQpqcBAAAgP5xvA0AAAAkSKkSFbHSIRF2RhJhUwRgLnCTN2Ba8Uy1NLyQJicBAACgfxxvAwAAAAmqp1TJzTTnIGfHIBF2RhJhUwRgLlCfAEwrnqmWhhfS5IoAAAD0j4tuAAAAQILqKVViDnJ2DBJhZyQRNkUAAOYIxTMAAABA/7joBgBF+DIdAICKKVWiIs6OQSLsjCTCpggAAAAAUDul9QCDzkU3AChCjwlAuZxVg46UKlERx/qQCDsjibApAgAAAADUbnJybHx8JDzmnwBgQLjoBgBF6DEBKJezatBRPaVKbqY5BznWHw6KgIeAnZFE2BTpKx0WAABAOlwRAEiZM2kAg85FNwAoQo8JQLmcVYOO6ilVctg3B1npw0ER8BCwM5IImyJ9pcMCAABIh5MAAADQP463AaAIPSYAQMWUKlERK304KAIeAnZGEmFTpK90WEAiNEcAFdPwQpqcBAAAgP5xvA0ARegxAQAqplSJiljpkAg7I4mwKQIwF7jJGzCteKZaGl5Ik5MAAADQP463AaAIPSYAQMWUKlERKx0SYWckETZFAOYC9QnAtOKZaml4IU1OAgAAQP9M/DoRDrbDY/4JAKCJM1QAABVTqkRFrHRIhJ2RRNgUAQCYIxTPADgJAAAAAEC9nKECAKiYUiUqYqVDIuyMJMKmCAAAAHOEkwAAKVNaDwAAzAXOUAFQLmfVoCOlSlTESodE2BlJhE0RAAAA5ggnAQBSNjk5Nj4+Eh7zTwAAAAwRZ6gAKJezatCRUiUqYqUPB0XAQ8DOSCJsivSVDgsAACAdTgIApMyZNIBBN/HrRDjYDo/5JwCAJs5QAVAuZ9WgI6VKVMRKHw6KgIeAnZFE2BTpKx0WAABAOpwEAACA/nG8DQBFKO4FAKiYUiUqYqUPB0XAQ8DOSCJsivSVDgtIhOYIoGIaXkiTkwAAANA/jrcBAACABClVoiJWOiTCzkgibIoAzAVu8gZMK56ploYX0uQkAAAA9I/jbQAAACBB9ZQquZnmHOTsGCTCzkgibIoAzAXqE4BpxTPV0vBCmlwRAACA/nHRDQAAAEhQPaVKzEGuRkMi7IwkwqYIAMAcoXgGAAAA6B+lSgBQhGEqAAAVU6qUkMuXL38FQBn+4R/+Id/IVkJLDgyuulpOAAAAAGqktB5g0ClVAoAi9JgAlMtZNehIqVJCDHAHKEtdA+615MDgqqvlBAAAAKBGk5Nj4+Mj4TH/BAADwsBrAChCjwlAuZxVg47qKVVyM82WGgPc/5//+8Op//NtERHpLo22tK4B91pyERnE1NtyAgAAQ88VAYCU+f5XgEFn4DUAFKHHBKBczqpBR/WUKjnsa8kAdxGR3lPvgHstuYgMYuptOQEAgKHnigAAAPSP420AKEKPCQBQMaVKCTHAXUSk99Q74F5LLiKDmHpbThhuvkQHoGIaXkiTKwIAANA/jrcBoAg9JgBAxZQqJcQAdxGR3lPvgHstuYgMYuptOWG4TU6OjY+PhMf8E8BconimShpeSJMrAgAA0D+OtwGgCD0mAEDFlColxAB3EZHeU++Aey25iAxi6m05YbipTwCmFc9US8MLaXJFAAAA+mfi14lwsB0e808AAE2coQIAqJhSpYQY4C4i0nvqHXCvJReRQUy9LScADD3FMwCuCAAAAABQL2eoAAAqplQpIQa4i4j0nnoH3GvJRWQQU2/LCQAADD1XBABSprQeAACYC5yhAqBczqpBR0qVEmKAu4hI76l3wL2WXEQGMfW2nAAAwNBzRQAgZZOTY+PjI+Ex/wQAAMAQcYYKgHI5qwYdKVVKiAHuIiK9p94B91pyERnE1NtyAgAAQ88VAYCU+f5XgEE38etEONgOj/knAIAmzlABUC5n1aAjpUoJMcBdRKT31DvgXksuIoOYeltOAABg6LkiAAAA/eN4GwCKUNwLAFAxpUoJMcBdRKT31DvgXksuIoOYeltOGG6+RAegYhpeSJMrAgAA0D+OtwEAAIAEKVVKiAHuIiK9p94B91pyERnE1NtywnCbnBwbHx8Jj/kngLlE8UyVNLyQJlcEAACgfxxvAwAAAAmqp1TJzTRbMsBdRKT31DvgXksuIoOYeltOGG7qE4BpxTPV0vBCmlwRAACA/lGqBAAAACSonlIlWjLAXUSk99Q74F5LLiKDmHpbTgAYeopnAAAAgP5RqgQARfgyHQCAiilVSogB7iIivafeAfdachEZxNTbcgIAAABQI6X1AINOqRIAFKHHBKBczqpBR0qVEmKAu4hI76l3wL2WXEQGMfW2nAAAAADUaHJybHx8JDzmnwBgQBh4DQBF6DEBKJezatBRPaVKbqbZkgHuIiK9p94B91pyERnE1NtyAgAAQ88VAYCU+f5XgEFn4DUAFKHHBKBczqpBR/WUKjnsa8kA9z7lm4mTH7x/5NK3L8dPiczZnDq5a90dKxs5fOjBeILBTb0D7rXkiaeuLX/8xZ0rVyxuZPfj98QTyECkru2ngtTbcgIAAEPPFQEAAOgfx9sAUIQeEwCgYkqVElLWAPeffjn3/fWXvvzxhU+uPRsS/hH+G34YTznEeeetQ1sfWnfHHSsXL1448t8sXDj/llVL7t+89vix7RNfjMevkopzZOyhLQ/eMavs3H5nPB/pIgcP3J/tGlu3rosnGNzUO+BeS95LXj+zN97rGwlb6f59942/uDM075e+PR2/tmDq2vIPP/1g9r4PPHB7PEHxaDlrTF3bTwWpt+WE4eZLdAAqpuGFNLkiAAAA/eN4GwCK0GMCAFRMqVJCehzgfvnnV96/+vSp7x5+7pv/o2XCU2GCMFn82mHKl5+f2LZ1/ejoaDaYuKUwwfr1q+KXS5W59541+RXTycKF8+P5zIUcPvTgrkfuauTzT4/HE8w2Btz3iZa8lxx66oGm3X1GCxbMe/yxu7+ZOBnPoWPq2vJLLFXSchaPlrN46m05YbhNTo6Nj4+Ex/wTwFyieKZKGl5IkysCAADQP463AaAIPSYAQMWUKiWk6wHul38+feb3u+IR7TMlTBxeEs9nCPLuxWduumlB0/DsDuI5SJUx4L54blm1JFsIF87vjyeYbQy47xMteS8pWKrUEFr7o89ti2fSPnVt+UqVaomWs3jqbTlhuKlPAKYVz1RLwwtpckUAAAD6Z+LXiXCwHR7zTwAATZyhAgComFKlhHQxwP2XP1548/LeeAh7kYQXhpfH8xzcfP/d6eZByQ2rVy/ddO+ah7et37hx9fLlN+futhTPRKqMAffFY8B98dQ74F5L3ktmVaoUzJs3Otvdoa4tX6lSLdFyFk+9LScADD3FMwCuCAAAAABQL2eoAAAqplQpIbMd4H5t8sypSw/HI9eLJ7w8zCSe84Bm+7YN2QDiYP26lfG45O+/O/38c9tWrljcmCaeiVSZ5gH3t65e+u7FZzrmow+OxvOZCyl9wP2XX5w49/q+Rj756Pl4gsFNvQPuteS9JFeq9OXnJxr54vMX337zqZMnHtn60Lpcxeny5Td/+/VL8axmSl1bfp9KlbSc7aPlLJ56W04AAGDouSIAkDKl9QAAwFzgDBUA5XJWDTpSqpSQWQ1w//76S8e/2xKPWZ9twkzCrOL5D1yu/3j+ppsWZCOS77h9xbUfzsaTZROfOL7jrjtviZ+SKtM84H79upXxBJKl9AH3Q5x6B9xryXtJc6nS6OhoPEHIuxcPL1myKJss2L/vvniy1NKnUiUtZ/toOYun3pYTAAAYeq4IAKRscnJsfHwkPOafAAAAGCLOUAFQLmfVoCOlSgkpPsD92uSZF8oY3d5ImNUQ3JHj7TefyoYjBx9/OEfvIDFYMeC+eAy4L556B9xryXtJkVKlkJdPPZpNFmy+77Z4mtSiVKmWaDmLp96WEwAAGHquCACkzPe/Agy6iV8nwsF2eMw/AQA0cYYKgHI5qwYdKVVKSMEB7r/88cKpSw/H49R7SZhhmG38XgOUpw/dGOC+dOlN8QTd5dK3p8+8tufQwQe2PHjH2tuWr127/IEHbj944P7XXtn97dcd7mHy+acvvHzq0UbevfhMPEEjX315MpvsrQsH4wmyXLn82onjOxt55fTj2c/fuHBgx/YNd915y6pVS25dvfTee9bsfvyeIsVaV6+cCa89+ty2XY/cFV6+csXi8Afev3ltePmFvyk6pPvjD58/dXLXnifuDe+7auXiO+5YGX6ZMM93Lx6OJ86llAH3ZS3nTz56Plu877x1qPHDt944GP6cOzf8ednetmb51ofWPXN4y8QX4/HL26SL5Rx+w+yXaeTmmxdmyyq8MPdsI599ciyeVSO/XL/w+pm9YWNumQ8/eC5+SZv0sl/0bzlnqXfAvZa8lxQsVQoJ+1E2Zdhs4gkaKXfLb6SLPXpqhlKl7rZ8LedMy1nL2cVyzlJvywkAAAw9VwQAAKB/HG8DQBGKewEAKqZUKSEFB7i/cWVPPEK994TZxu81UyZ+evHlS//mma//9ye//OvDX9178tK2T//w3P/1x7fiKSvL7sfvyYYjr75laTxBF3n7zadWrLg5m23O0qWLzp97Mn5VlpYD0+OcOrkrm+yOO9oNOn/34jPZlDffvHDqL2PN169flf2w2bx5o4/u2hjPJMsbFw6sarrdRGzNmmXHnn84fmGWq1fOhLcYHc2/MLNr513XfjgbvzBLKQPuy1rOuflc+vblTZtuy37SbPnym7OR4h3T3XKe6a3bO3pka/wLNPLNV6fyUzfZunVd/JKZUu5+UdZybk69A+615L2keKlSc+sRprxy+bV4mqlSt/xGutujp0rd8rWcIzMs55neuj0tZyP1tpww3HyJDkDFNLyQJlcEAACgfxxvAwAAAAlSqpSQIgPcL/98+ui3+bHppSTMNsw8fsc47189/OSXfx3n/OXd8cSVpXkU7/z587775uV4mlnl2bGHwnyaRv+2MG/e6IH9m3+53vo2JmUNBM+SK1X66IOjbcY9B7etWR7PZOovd2d67NG7R9vUGP03CxfOj1/eyHvvjq1Zsyz/gsja25aH3zN+eSPJDrjffN9tYell/40tWDDv4ttPxzNpTi/LeaYx6O1VMOC+3P2ilOUcp94B91ryXlK8VClsPE1Tjly+9Eo8zVR5W/5Ub3v0VKlbvpazIV7OWs6GIss5Tr0tJwy3ycmx8fGR8Jh/AphLFM9UScMLaXJFAAAA+sfxNgAAAJCgekqV3EyzpSID3M/8flc8Nj2Xh17815ueujWX8MN4ylzCzON3zOXnX84fnNj45Jd//czXm964vPfiDwfCY/h3Y4z774sNke9Hzry2p3mc7rat6+NpiueFY9ub5zbyl0Hzq1YtCZk3Lz9++vChB+M5TJU3EDxLrlRp/bqV2X9bmqlUaUOrGzEtXbpo/fpV4Q9sHiAeDwRv5OI7Ty9YkB91vWzZTWHOK1cszg0xv2XVkj9cfT2eyVTCA+6bzZ8/L/wJYYHnft7mvRrpZTk/vG19eMfmNM3jz8PQc882cvLEI/Gv0cilb18Om254zyzNCg64L32/aNb1co5T74B7LXkvKV6qdOvqpdmUYbeKJ2iklC2/kV726KlSt3wtZ0O8nLWcmY7LOU69LScMN/UJwLTimWppeCFNrggAAED/KFUCAAAAElRPqRItdRzgfvnnV+JR6XHWbl72P/3P/10u4YfxlHHCW8Tv25wvf3yhMZb9u59OZj8M/2788KNrY/FLqskXn7+Yq5BZv27lhb/ZH0/ZMT9dO7dyxeLmWe1+/J5L3/7TbZouX3rlqYP3N7/VkiWLLn//ajyfsgaCZ2kuVWq28a7V4y/ufO/dsfCbf/7p8bNn9jy0ZV1YGi1LlU4c39H82nnzRg/u3/zVlzfW5pXLr104vz/8JiOtBoI3cueGW5pncs/dt3768bHs2TC3+zevbZ4gLLF4JlO/HXAfFuO+PZvap+WA8rKWczwQfNGiBSfHH7l65UxjgnNn94VfMns2LLrPPrnxV+dSynJuzi2rlmRzCy+MJ5htDh64P5thkQH3/dgvGnpZzi1T74B7LXkvKViqdPGtQ801HhvWr4qnmSmz3fIb6X2PLnHL13K2Wc65aDmLp96WEwCGnuIZAAAAoH+UKgFAEb5MBwCgYkqVEtJxgPt7Vw/FQ9Lj7H7rr/+33f9q1R3/Q2Noe/hH+G/4YTxlnPAW8fs254NrzzTGsv/xj29kPwz/bvzwdz8cjF9SWXZs33BjDO9/s3TpTeHnJ0888vmnL8QvaZncDRAOPfVAd9OUNRA8S1yqNH/+vPDWv1y/EE/8zluHnjm8JffDS9+eXrr0xlDm8O+ZqrnCPMee2bJ8+c3xUy+dfLTpVxg5sH9zPE3Int33ZtMsXDj/i8+Ox9M0D7gv4q47b4lnUtZyzg0EX7RowXvv5gs2wlJtnuboka3xfKZKWs651D7gvsg2X2SaEpfzTKl3wL2WvJcUKVX6ZuLkmjXLmjaQkRPHd8STzZTZbvlTJe3RJW75Ws42yzkXLWfx1NtyAgAAAFAjpfUAg06pEgAUoccEoFzOqkFHSpUS0nGA+0uXtsdD0mfKY+c3NAa4h3/Ez86U8Bbx+zbndz8cbIxlz/288cOLPxyIX1JZvvvm5aVLb2oep5tz25rlTx28v/n+Py2zqmlk8y2rlsQTNLJ+3Z/v6tCwePGiP1x9PTdBWQPBs8SlSjPdrWim7H78nuaXv3zq0Xia5sRFUFevnFmx4uZsDndvvDV+VSPXfjjbPEa8ZUVTygPuH3v07niaqd+u9717NsUTTJWxnOPUPuC+H/vFSG/LeabUO+BeS95LmkuVgiuXX2vk8vevfvLR8+fO7t3/5OabblrQPM3ta1fE82mT2W75UyXt0SVu+VrORlou51y0nMVTb8sJAAAAQI0mJ8fGx0fCY/4JAAaEgdcAUIQeE4ByOasGHdVTquRmmi21H+D+4+Tr8Xj0NulugHtIeKP43bP87oen0hzg3sinHx9rHqfb0ujo6KZNt018MR6/POTbr19qnvjwoQfjaRo5fmxH85Qfvn8kN0FZA8Gz5EqVlixZdPn7V+PJ2uTW1Uuzl6+9bXk8Qcdc+Jv9Tb/CyAfv5f/q5hx9bls25eb7bosnSHbAfdhIWt4Gauq3g+lnGqfe+3KOU++A+z7tFz0u55lS74B7LXkvyZUqdXTfptu+/OJEPJ82mdWW30gpe3SJW76Ws3i0nMVTb8sJAAAMPVcEAFLm+18BBp2B1wBQhB4TgHI5qwYd1VOq5LCvpfYD3L+//lI8GL1Nuh7gHt4ofvcs7/72Xhzf/HTy4g8HQho/PPndtsZ/WyZMHM+w9Fz/8fzR57atvW15Nlq3paVLF509syd++cW3n26e7IvPX4ynaeTK5dfmz5+XTRnPrayB4FlypUqHDj4QT9Mmv1y/sHDh/OzlJ088Ek/TMceef7jpVxg59/q+P+dslr2NvH7mz2kuVVq5YnE8t+YB92GC0y8/1j7vvHUonklZy7l5PsuW3RRP0MjYM1uyyTZuXB1PUMpyjlPvgPs+7Re9LOc2qXfAvZa8lxQvVQobz/iLO+M5dMystvyp8vboErd8LWfxaDmLp96WEwAAGHquCAAAQP843gaAIvSYAAAVU6qUkPYD3Cd+Oh4PRm+Trge4hzeK3z3L7678ZoB7NrS9SC5We6eOi28d2rtn0/r1qxYsuDH8t9n8+fPiGxe8fOrRbILwwni2zVm27KZs4qPPbcs9W9ZA8Cy5UqXXz+yNp2mTTz8+1vzy994di6fpmOY7NszK6OhofA+o5gH369e1+9vbpKzl3DyflhM0cvLEI9lkd25oca+SUpZznHoH3Pdpv+hlObdJvQPuteS9pHipUtiQ/nC13Z2jZsqstvyp8vboErd8LWfxaDmLp96WE4abL9EBqJiGF9LkigAAAPSP420AKEKPCQBQMaVKCWk/wP2TPxyJB6O3SdcD3MMbxe+eJRvRnvtvkfR1gHub/OHq6+fPPfnYro0rVyzOhvA23HvPmtzEzxy+cUeC5ctvjufWnOZ7N+154t7cs2UNBM+SK1X6+MPn42na5OyZPdlrR0dH4sKhItl8321Nv8LsfPbJsdzckh1wH/7MeIKC8yllOcepd8B9n/aLXpZzm9Q74F5L3ktypUqbNt3WyMaNq8MuMBr2qCZr1iy7fOmVeCbtM6stf6q8PbrELV/LWTxazuKpt+WE4TY5OTY+PhIe808Ac4nimSppeCFNrggAAED/ON4GgCL0mAAAFVOqlJCBGOCeSzoD3Ivkl+sXDj/94MKF87OBvME7bx1qnuaxR+/Onlq7dnk8k+bcc/et2cQPbckPWS5rIHiW5lKlefNGf7p2Lp6mTY48uzV7+eLFC+MJimTNmmXZTGZldHTki8/yt3lJdsB9L/MpZTnHqXfAfcr7RZx6B9xryXtJc6nS6Oho7tkP3jty98YbW1ew9aH8BtYxs9ryp8rbo0vc8rWcxaPlLJ56W04YbuoTgGnFM9XS8EKaXBEAAID+mfh1Ihxsh8f8EwBAE2eoAAAqplQpIe0HuE/8dDwejN4mXQ9wD28Uv/tMSWeAe/G8cGx7NpA3OHb04eZn9+y+N3tqzZpl8cubc9edt2QTb9+2Ifds6QOLm0uVbr551iO5m//whQvnxxMUyR23r8hm8uADt1/74WzxxHMbygH3pSznOPUOuE95v4hT74B7LXkvaV+qFHL1ypnQVmTTBOfPPRlP1iaz2vKnytujS9zytZzFo+UsnnpbTgAYeopnAFwRAAAAAKBezlABAFRMqVJC2g9w//76S/Fg9DbpeoB7eKP43WdKOgPcZ5VVKxdnY3l3P35P81NHn9uWPbVkyaL4tc25dfXSbOID+zfnni04sPjY8w9nk7UfWNxjqdIbFw5kLw+++vJkPE3HbNlyRzaHjRtXxxPMKlUOuO+4nAvOp+NA8FKWc5x6B9xXv190XM5tUu+Aey15L+lYqhTy+afHm2+Od8ftK+Jp2mRWW/5UeXt0iVu+lrN4tJzFU2/LCQAADD1XBABSprQeAACYC5yhAqBczqpBR0qVEtJ+gPuPk6/Hg9HbpOsB7uGN4nefKekMcJ9VNt17Y5z35s1rm5868+oT2VOjo6PXfzwfvzzL4sULs4lffGFH7tnnjmzNnt18323xyxvZt3dTNln7gcU9lip9M3Eye3nw1hsH42k65sD+zdkcOt4jomNKGXBf1nIuayB4Kcs5Tr0D7kvcL8pazm1S74B7LXkvKVKqFLJ3z43dOXjp5KPxNDNlVlv+VHl7dIlbvpazeLScxVNvywkAAAw9VwQAUjY5OTY+PhIe808AAAAMEWeoACiXs2rQkVKlhLQf4B7y0qXt8Xj0mdLdAPfwFvH7tkk6A9xnlXvuvjUby7tt6/rmpz5470j2VPDuxcPxyxv5/NPjo6M3pozHQJ84viN7ts2I4fALFJlsqudSpZDwqmwOTx28P56gY5qHQYe5/eHqLMoh4pQy4L6s5VziQPDel3Oc5gH3r5/ZG08w28xqwH2J+0WJy3mm1DvgXkveSwqWKn3/3enFixdlU966eukv1y/Ek7XMrLb8RkrZo0vc8rWcxaPlLJ56W04AAGDouSIAkDLf/wow6CZ+nQgH2+Ex/wQA0MQZKgDK5awadKRUKSEdB7i/d/VQPCQ9zp6379z4xC3/at3/2BjgHv4R/ht+GE8ZJ7xF/L5tks4A91ll6dKbsrG8zxze0vzU1StnmocLP7Lzrvjljezfd9+N6UZGPv/0hdwE517flz27fPnN8RxCfrp2LjyVTdZ+YHHvpUph/tkcFi9eeOnb0/E07fPuxcPZHIJnxx6KpymeUgbcl7WcSxwI3vtyjhOWTzbP48fyN9zoIrMacF/iflHicp4p9Q6415L3koKlSlO/3YBHZnNjpVlt+Y2UskeXuOVrOYtHy1k89bacAADA0HNFAAAA+sfxNgAUobgXAKBiSpUS0nGA++WfX4mHpMdZu3lZY2h7c8IP4ynjhLeI37dN0hng/vmnx++685ZXT++On8rluSNbs4G8wbmz+dsshPlkz95004LL378az+T6j+ebB3DftmZ5PM2HHzyXTRC89cbBeJoXX7hxX4uRTgOLey9Vyr3dk/vui6dpTnjH+Icb1q/K5rBkyaLLlzpvM99983L8w6mSBtyXtZxLHAheynLOZcuDd2Qz3PXIjOPdi2dWA+6nytsvSlzOM6XeAfda8l5SvFQptCphO8wmXnPrsnialpntlj9V0h5d4pav5Wyk5XLORctZPPW2nDDcfIkOQMU0vJAmVwQAAKB/HG8DAAAACVKqlJCOA9xDzvx+VzwqPZeHXvzXm566NZfww3jKXMLM43dsn3QGuL//t882xuauXbv89MuPxRM0curkrvnz52UDecO/v/ryZG6aC3+zP5sg2HjX6u+/+829Ha79cHbz5rXN07x8qsUNPa5cfq35ve65+9Y/XH29eYKLbz+9bNmN+zuNdBpY3Hup0tRvbzExOjq6+/F7frp2Lp7si89fvG/TbQsXzo+fevfi4XnzbtwnYsP6VR99cDSerJEzr+3ZdO+aMP1nnxyLny1lwH1Zy7ncgeC9L+dc9jxxbzbDMP2H7x+Jp5lVZjvgvqz9otzl3DL1DrjXkveS4qVKIWG3yiYeKXxjpdlu+Y30vkeXuOVrOdss51y0nMVTb8sJw21ycmx8fCQ85p8A5hLFM1XS8EKaXBEAAID+cbwNAAAAJKieUiU302ypyAD3yz+fPvptfmB6KQmzDTOP37F90hngnpUqNay+ZelDW9Y9dfD+V04/fvHtp197ZfezYw/dtmZ58zTBwQP3x7Oa+u1tEEb+Uv504vjOTz56/vNPXzg5/kjzbYVGZrgBQiPhd2iecv26la+e3v3B+0fOn9t3YP/mhQvnNz870mlgcSmlSmFpjI7eKDQa+cubPv/ctrfffOry96+G3+2lk4/ueeLexu1KZhoI/sjOu5rnECbbu2dTWMiffnzsyuXX3r14+NTJXfv2blq1akk2TXgqnk8pA+6nSlrO5Q4EL2U5N+f8uSeb5zZ//rxtW9cfeuqBE8d3jL+4s5GW9WAhH3949OyZPbk032zkzg23xBPEdywpZb8odzm3TL0D7rXkvWRWpUpffnFiwYIbxTZr1uRvrFTWlj9Vxh5d4pav5WyznHPRchZPvS0nDDf1CcC04plqaXghTa4IAABA/yhVAgAAABJUT6kSLRUZ4B7yxpU98fD03hNmG79Xx6QzwD1XqlTEnRtu+eX6hXhWIW9eOBiP0m5p/vx5Z159Ip5DIxffeTr/gkhjyHVD+4HFpZQqhTy5777cWPCZzDQQ/NuvX1qzZll+6rb6WqpUynIufSB478s5l02bbsu/8reOHtkavypk+7YN+UkLCDtIbj6l7BelL+c49Q6415L3klmVKoXs3H5nNv1IdDuasrb8Rnrco0vc8rWcDS2XcxwtZ8HU23ICwNBTPAMAAAD0j1IlACjCl+kAAFRMqVJCCg5w/+WPF05dejgeod5LwgzDbOP3GqB8/OHR+fNv3F6jo3vuufWLz47H88ny7sVnbmm6KVBLy5ff/OaFg/Frm7Nzx29G0ufcvnbFsaMPZ/9tP7C4rFKlkHNn961YcXM2t5ksWrQgfm0jf7j6+r69mwou89HR0c8/fSGeSVkD7qfKWM79GAje+3JuzicfPd++QqzfA+6nytgv+rGcc6l3wL2WvJfMtlTp4w+fnzfvRllL7o40JW75jfSyR5e45Ws5G1ou5zhazoKpt+UEAAAAoEZK6wEGnVIlAChCjwlAuZxVg46UKiWk4AD3kGuTZ174bks8Tr27hFmFGcbvMnC59O3pkyceuX/z2kWLbtwFInbnhlvevFDoriDff3d669Z1LW+GsGDBvPBG33x1Kn5VnKNHtsYlPWG2O3fceeXya6dffiz7Ycshzlk+eP9INuXSpYviCWaV8NeFX2Dx4oXZPJstXrxozxP3tqwvas7Ft59ev25l/Nc1zJs3etedtxwZe2imqrDNm9dmE4cp4wlmlR6X85Fnt2YTbH1oXTxBIx3nk0spyznLH66+fvzY9gfuv33lisU33bQgd++RF45tj18S8sjOu5onK2jjxtXxrKZ63i/6tJybU++Aey15Lxl7Zku23sPmFE8QZ8uDd2QvCd5561D2VLlbfiNd79ElbvlazjbLuWW0nEVSb8sJAAAAQI0mJ8fGx0fCY/4JAAaEgdcAUIQeE4ByOasGHdVTquRmmi0VH+Ae8v31l46XMcY9zCTMKp7/QOfqlTMX3376ldOPP3dk654n7t21866nDt5/8sQjb104OPHFeDx9+1z/8fz7f/tsePme3ffufvyeE8d3/O3vnvnp2rl4yjb55qtT587uPXzowUd23rX/yc1hJu0HJVeZLz8/cfbMnmcObwkL6sl99734wo43Lxy49sPZeMqZEhbRB+8deenko/v2btr1yJ+X9viLOy+c3//t11VvWsO9nJNKKftFn1LvgHst+RzJMO3RWs7KouUEAADmLFcEAFLm+18BBp2B1wBQhB4TgHI5qwYd1VOq5LCvpVkNcJ/6yx05Tl16OB6zXjzh5UNwFw4RkebUO+BeSy4ig5h6W04AAGDouSIAAAD943gbAIrQYwIAVEypUkJmO8A95Jc/Xnjz8t545HqRhBeGl8fzFBEZ6NQ74F5LLiKDmHpbThhuvkQHoGIaXkiTKwIAANA/jrcBoAg9JgBAxZQqJaSLAe7/NLr059Nnfr8rHsI+U8LE4SXxfEREhiD1DrjXkovIIKbelhOG2+Tk2Pj4SHjMPwHMJYpnqqThhTS5IgAAAP3jeBsAitBjAgBUTKlSQroe4N7I5Z9fef/q06e+ezge0d5IeCpMECaLXysiMjSpd8C9llxEBjH1tpww3NQnANOKZ6ql4YU0uSIAAAD9M/HrRDjYDo/5JwCAJs5QAQBUTKlSQnoc4J7lp1/OfX/9pS9/fOGTa8+GhH+E/4YfxlOKiAxf6h1wryUXkUFMvS0nAAw9xTMArggAAAAAUC9nqAAAKqZUKSFlDXAXEZnLqXfAvZZcRAYx9bacAADA0HNFACBlSusBAP5/9u7uWYpyzxP9upr5D7jkihsmYojgwhNEMIfYHA5zOAbj0DYHxsZmoKHFjbRKCLpFUARURFgiIrB4UxDc+IZu39m4WcqLGxSVvdzd60THOTF0T/T1mbmfac+jtTtJ8qlVlVWVVZlV6/OJb1TAyqcya+XKlc+zsp5fJTAZuEIFQLFcVYOmlCpViAnuIiKdp9wJ987kItKPKffMCQAADDzvCABU2djY8MjIUHjMLgAAABggrlABUCxX1aAppUoVYoK7iEjnKXfCvTO5iPRjyj1zAgAAA887AgBV5vNfAfrd6M3RMNgOj9kFAECKK1QAFMtVNWhKqVKFmOAuItJ5yp1w70wuIv2Ycs+cAADAwPOOAAAAdI/xNgDkobgXAKDHlCpViAnuIiKdp9wJ987kItKPKffMCYPNh+gA9JgTL1STdwQAAKB7jLcBAACAClKqVCEmuIuIdJ5yJ9w7k4tIP6bcMycMtrGx4ZGRofCYXQBMJopnesmJF6rJOwIAANA9xtsAAABABZVTquRmmnWZ4C4i0nnKnXDvTC4i/Zhyz5ww2NQnAD8qnuktJ16oJu8IAABA9yhVAgAAACqonFIl6jLBXUSk85Q74d6ZXET6MeWeOQFg4CmeAQAAALpHqRIA5OHDdAAAekypUoWY4C4i0nnKnXDvTC4i/Zhyz5wAAAAAlEhpPUC/U6oEAHnoMQEolqtq0JRSpQoxwV1EpPOUO+HemVxE+jHlnjkBAAAAKNHY2PDIyFB4zC4AoE+YeA0AeegxASiWq2rQVDmlSm6mWZcJ7iIinafcCffO5CLSjyn3zAkAAAw87wgAVJnPfwXodyZeA0AeekwAiuWqGjRVTqmSYV9dJriLiHSecifcO5OLSD+m3DMnAAAw8LwjAAAA3WO8DQB56DEBAHpMqVKFmOAuItJ5yp1w70wuIv2Ycs+cMNh8iA5AjznxQjV5RwAAALrHeBsA8tBjAgD0mFKlCjHBXUSk85Q74d6ZXET6MeWeOWGwjY0Nj4wMhcfsAmAyUTzTS068UE3eEQAAgO4x3gaAPPSYAAA9plSpQmqTRAHoXFkT7p3Jgf5V1pkTBpv6BOBHxTO95cQL1eQdAQAA6J7Rm6NhsB0eswsAgBRXqAAAekypUoWY4A5QlLIm3DuTA/2rrDMnAAw8xTMA3hEAAAAAoFyuUAEA9JhSJaAF//jf//H9//v97FcB6L5/+G//8O74u9mvAgAAQOV5RwCgypTWAwAAk4ErVAAUy1U1aEqpEtCCX378y3976N/+84//nF0AQJet+WjNvzn4b/7nP//P7AIAAACoNu8IAFTZ2NjwyMhQeMwuAAAAGCCuUAFQLFfVoCmlSkBe//jf//FfP/Ovwy/v23/3dnYZAN30D//tH/7VM/8qnIHP/PFMdhkAAABUm3cEAKrM578C9LvRm6NhsB0eswsAgBRXqAAolqtq0JRSJSCvX378y/CbG+LGSgA9tuajNbUzsBsrAQAA0He8IwAAAN1jvA0AeSjuBQDoMaVKQC7JLZVqcWMlgJ5JbqlUixsrAfQRH6ID0GNOvFBN3hEAAIDuMd4GAAAAKkipEpBLckulWtxYCaBnklsq1eLGSgB9ZGxseGRkKDxmFwCTieKZXnLihWryjgAAAHSP8TYAAABQQeWUKrmZJvSXzC2VanFjJYAeyNxSqRY3VgLoF+oTgB8Vz/SWEy9Uk3cEAACge5QqAQAAABVUTqkS0F8yt1SqxY2VAHogc0ulWtxYCQCgjyieAQAAALpHqRIA5OHDdAAAekypEtBE3Vsq1eLGSgBdVfeWSrW4sRIAAAAA0Dml9QD9TqkSAOShxwSgWK6qQVNKlYAm6t5SqRY3VgLoqrq3VKrFjZUAAAAAgM6NjQ2PjAyFx+wCAPqEidcAkIceE4BiuaoGTZVTquRmmtAvGtxSqRY3VgLokga3VKrFjZUAAADoC94RAKgyn/8K0O9MvAaAPPSYABTLVTVoqpxSJcM+6BcNbqlUixsrAXRJg1sq1eLGSgAAAPQF7wgAAED3GG8DQB56TACAHlOqBEyo6S2VanFjJYDCNb2lUi1urARQcT5EB6DHnHihmrwjAAAA3WO8DQB56DEBAHpMqRIwoaa3VKrFjZUACtf0lkq1uLESQMWNjQ2PjAyFx+wCYDJRPNNLTrxQTd4RAACA7jHeBoA89JgAAD2mVAmoL+ctlWpxYyWAAuW8pVItbqwEUGXqE4AfFc/0lhMvVJN3BAAAoHtGb46GwXZ4zC4AAFJcoQIA6DGlSkB9OW+pVIsbKwEUKOctlWpxYyUAgIpTPAPgHQEAAAAAyuUKFQBAjylVAupo6ZZKtbixEkAhWrqlUi1urAQAAECVeUcAoMqU1gMAAJOBK1QAFMtVNWhKqRJQR0u3VKrFjZUACtHSLZVqcWMlAAAAqsw7AgBVNjY2PDIyFB6zCwAAAAaIK1QAFMtVNWhKqRKQ1cYtlWpxYyWADrVxS6Va3FgJAACAyvKOAECV+fxXgH43enM0DLbDY3YBAJDiChUAxXJVDZpSqgRktXFLpVrcWAmgQ23cUqkWN1YCAACgsrwjAAAA3WO8DQB5KO4FAOgxpUrAbdq+pVItbqwE0La2b6lUixsrAVSQD9EB6DEnXqgm7wgAAED3GG8DAAAAFaRUCbhN27dUqsWNlQDa1vYtlWpxYyWAChobGx4ZGQqP2QXAZKJ4ppeceKGavCMAAADdY7wNAAAAVFA5pUpupgnV1OEtlWpxYyWANnR4S6Va3FgJoGrUJwA/Kp7pLSdeqCbvCAAAQPcoVQIAAAAqqJxSJaCaOrylUi1urATQhg5vqVSLGysBAFSQ4hkAAACge5QqAUAePkwHAKDHlCoBt/zX//5f/8v/918a5OFzDw9tGwqP8aJ0/sc//4/sqgHojPeZAAAAAIDCKa0H6HfeQgKAPPSYABTLVTVoSqkS0AJ/swGUxRkYAAAAACjc2NjwyMhQeMwuAKBPeAsJAPLQYwJQLFfVoKlySpXcTBP6lL/ZAMriDAwAAECf8o4AQJX5/FeAfuctJADIQ48JQLFcVYOmyilVMuyDPuWXF6AszsAAAAD0KX/SAgBA9xhvA0AeekwAgB5TqgS0wC8vQFmcgQH6kQ/RAegxJ16oJn/SAgBA9xhvA0AeekwAgB5TqgS0wC8vQFmcgQH60djY8MjIUHjMLgAmE8UzveTEC9XkT1oAAOge420AyEOPCQDQY0qVgBb45QUoy+jN0XD6DY/ZBQBUmPoE4EfFM73lxAvV5KIiAAB0j7eQACAPV6gAAHpMqRLQAr+8AAAA0BLFMwAuKgIAAABQLleoAAB6TKkS0AK/vAAAAABAS1xUBKgypfUAAMBk4AoVAMVyVQ2aUqoEtMAvLwAAAADQEhcVAapsbGx4ZGQoPGYXAAAADBBXqAAolqtq0JRSJaAFfnkByjJ6czScfsNjdgEAAABUm4uKAFXm818B+p23kAAgD1eoACiWq2rQlFIloAV+eQHK4gwMAABAn/InLQAAdI/xNgDkobgXAKDHlCoBLfDLC1AWZ2CAfuRDdAB6zIkXqsmftAAA0D3G2wAAAEAFKVUCWuCXF6AszsAA/WhsbHhkZCg8ZhcAk4nimV5y4oVq8ictAAB0j/E2AAAAUEHllCq5mSb0KVc5AcriDAzQj9QnAD8qnuktJ16oJu8IAABA93gLCQAAAKigckqVgD5Vu8r5ixO/CP8QEZFe5hcnf/HTGfjkL+JFIiKDHVNagX6neAYAAADonq1KlQAgBx+mAwDQY0qVgBbUrnKKiIiIiPQs3mIHAACA7lFaD9DvlCoBQB56TACK5aoaNKVUCWhB7eMlRESk93FXJRGZhPnFiZ9OfVu9YQAAAABdMzY2PDIyFB6zCwDoE1tNvAaAHPSYABTLVTVoqpxSJTfTBABoiatmwCTk1AcAMBi8IwBQZT7/FaDfuY4KAHnoMQEolqtq0FQ5pUqGfQAALTF8AiYhpz4AgMFgXAcAAN1jvA0AeegxAQB6TKkSAEAfMHwCJqEBOPX5EB2AHnPihWoagHEdAABUlvE2AOShxwQA6DGlSgAAfcDwCZiEBuDUNzY2PDIyFB6zC4DJRPFMLznxQjUNwLgOAAAqy3gbAPLQYwIA9JhSJQCAPjB6czSMncJjdgHA4BqAvxzVJwA/Kp7pLSdeqKYBGNcBAEBleQsJAPJwhQoAoMeUKgEAAFBF/nIEBoPiGQDjOgAAAADK5QoVAECPKVUCAACgivzlCAAwGIzrAKpMaT0AADAZuEIFQLFcVYOmlCoBAABQRf5yBAAYDMZ1AFU2NjY8MjIUHrMLAAAABogrVAAUy1U1aEqpEgBAHxi9ORrGTuExuwBgcPnLEQBgMBjXAVSZz38F6HfeQgKAPFyhAqBYrqpBU0qVAAD6gOETMAk59QEADAbjOgAA6B7jbQDIQ3EvAECPKVUCAOgDhk/AJDQApz4fogPQY068UE0DMK4DAIDKMt4GAAAAKkipEgBAHzB8AiahATj1jY0Nj4wMhcfsAmAyUTzTS068UE0DMK4DAIDKMt4GAAAAKqicUiU30wQAaIn3mYBJaABOfeoTgB8Vz/SWEy9Uk3cEAACgewbgOioAAAAweMopVQIAoCXeZwImIac+YDAongEAAAC6x3VUAMjDh+kAAPSYUiUAgD7gfSZgEnLqAwAAgG5TWg/Q71xHBYA89JgAFMtVNWhKqRIAQB9w1QyYhJz6AAAAoNvGxoZHRobCY3YBAH3CdVQAyEOPCUCxXFWDpsopVXIzTQCAlrhqBkxCTn0AAIPBOwIAVebzXwH6neuoAJCHHhOAYrmqBk2VU6pUG/b94sQvwj/qJv2eZe1dzMbRvnG0bxztG0f7xtG+cRq3Ty+FDjU+wOKlcSrePgycXDUr10R/Xvq6r/t6976++XePhVNfeMx8faL2/fJ1mMwm+r2YbF8HmGy2mggCAABdY7wNAHnoMQEAeqzMUqUGSY8ImzbWPm6gvfYNon3jaN84xbZPL4UONT7A4qVx+qK935oSTXTTXl/3dV/v3td/+db/EU594THz9Yna98vXYTKb6Pdisn2d7lEeBtVU+6vWn7QAANANxtsAkIceEwCgx4ayX+iJpncS6PC2A3ED7bVvEO0bR/vG0b5xJmrv/jAUbuvPF5XS92yc6PCbKH3RPv1Femyiaa++7uu+3r2vu6sSDJ6Jfi8m29fpHuVhUE1bTQQBAICuMd4GgDz0mAAAPVZOqRIAk5y//ymcg4rCmVsMpXNuhwGgP6XHHHJQTcZ1AADQPbUPvPNpdwDQmCtUAAA9plQJgBL4+5/COagonI/kh9I5t8MA0J8C8KNxHQAAAABlc4UKAKDHlCoBUAJ//1M4BxWF85H8UDrndhgA+lMAfjSuA6g2g3YAAGAycIUKgGK5qgZNKVUCoAT+/qdwDiqAwePcDgAwGIzrAKrMrVABAIDJwBUqAIrlqho0pVQJgBL4+5/COagABo9zOwDAYDCuA6gyn/8K0O9Gb46GwXZ4zC4AAFJcoQKgWK6qQVNKlQAogSvmFM5BBTB4vGEAADAYjOsAAKB7jLcBIA+zSgAAekypEgAAAFXkLXYAWuXTy6CajOsAAKB7jLcBAACAClKqBAAAQBV5ix2AVo2NDY+MDIXH7AKgVMZ1AADQPcbbAAAAQAUpVQIAgDp8JD+UzlvsMAD0p/SYQw6qafTmaBjUhcfsAgAAoGOuowIAAAAVpFQJgBKYoULhHFQUzkfyQ+m8xQ4DQH8KAAAA0FWuowJAHmaVAAD0mFIlAErgijmFc1BROB/JD6VzbocBoD8FAICKM2gH6HeuowJAHnpMAIrlqho0pVQJgBL4+5/COagABo9zOwAAAHSbW6EC9DvXUQEgDz0mAMVyVQ2aUqoEQAn8/U/hHFQAg8e5HQBgMIzeHA2DuvCYXQBABfj8V4B+5zoqAOShxwSgWK6qQVNKlQAogb//KZyDCmDwOLcDAAwG4zoAAOge420AyEOPCQDQY0qVACiBv/8pnIMKYPA4twPQKp9eBtVkXAcAAN1jvA0AeegxAQB6TKkSACXw9z+Fc1ABDB7ndgBaNTY2PDIyFB6zC4BSGdcBAED3GG8DQB56TACAHlOqBEAJ/P1P4RxUFM5H8kPpnNthAOhP6TGHHFSTcR0AAHTP6M3RMNgOj9kFAECKK1QAAD2mVAmAEvj7n8I5qCicj+SH0jm3wwDQnwLwo3EdAAAAAGVzhQoAoMeUKgFQAn//UzgHFYXzkfxQOud2GAD6UwB+NK4DqDaDdgAAYDJwhQqAYrmqBk0pVQKgBP7+p3AOKoDB49wOADAYjOsAqsytUAEAgMnAFSoAiuWqGjSlVAmAEvj7n8I5qAAGj3M7AMBgMK4DqDKf/wrQ70ZvjobBdnjMLgAAUlyhAqBYrqpBU0qVACiBK+YUzkEFMHi8YQAAMBiM6wAAoHuMtwEgD7NKAAB6TKkSAAAAVeQtdgBa5dPLoJqM6wAAoHuMtwEAAIAKUqoEAABAFXmLHYBWjY0Nj4wMhcfsAqBUxnUAANA9xtsAAABABSlVAgCAOnwkP5TOW+wwAPSn9JhDDqpp9OZoGNSFx+wCAACgY66jAgAAABWkVAmAEpihQuEcVBTOR/JD6bzFDgNAfwoAAADQVa6jAkAeZpUAAPSYUiUASuCKOYVzUFE4H8kPpXNuhwGgPwUAgIozaAfod66jAkAeekwAiuWqGjSlVAmAEvj7n8I5qAAGj3M7AAAAdJtboQL0O9dRASAPPSYAxXJVDZpSqgRACfz9T+EcVACDx7kdAGAwjN4cDYO68JhdAEAF+PxXgH7nOioA5KHHBKBYrqpBU0qVACiBv/8pnIMKYPA4twMADAbjOgAA6B7jbQDIQ48JANBjSpUAKIG//ymcgwpg8Di3A9Aqn14G1WRcBwAA3WO8DQB56DEBAHpMqRIAJfD3P4VzUAEMHud2AFo1NjY8MjIUHrMLgFIZ1wEAQPcYbwNAHnpMAIAeU6oEQAn8/U/hHFQUzkfyQ+mc22EA6E/pMYccVJNxHQAAdM/ozdEw2A6P2QUAQIorVAAAPaZUCYAS+PufwjmoKJyP5IfSObfDANCfAvCjcR0AAAAAZXOFCgCgx5QqAVACf/9TOAcVhfOR/FA653YYAPpTAH40rgOoNoN2AABgMnCFCoBiuaoGTSlVAqAE/v6ncA4qgMHj3A4AMBiM6wCqzK1QAQCAycAVKgCK5aoaNKVUCYAS+PufwjmoAAaPczsAwGAwrgOoMp//CtDvRm+OhsF2eMwuAABSXKECoFiuqkFTSpUAKIEr5hTOQQUweJzbAQAGg4kgAADQPcbbAJCHdx4BAHpMqRJAkf7+7//+CwCYfP7pn/4p2yn2hJ4XAKqgrJFAzKeXQTWZOgkAAN1jvA0AAABUkFIlgCKZMA3A5FTWBGU9LwBUQVkjgdjY2PDIyFB4zC4ASmXqJAAAdI/xNgAAAFBBSpUAilSbMP3//j+Xx//2HRERkcmQWt9X1gRlPa+IiEi5KXckEHNXJaim0ZujW7/cGh6zCwAAgI4pVQIAAAAqSKkSQJFMmBYRkcmWcico63lFRETKTbkjAQAAAECpEgDk4cN0AAB6TKkSQJFMmBYRkcmWcico63lFRETKTbkjAQAAOue+lAD9TqkSAOShxwSgWK6qQVNKlQCKZMK0iIhMtpQ7QVnPKyIiUm7KHQkAANC5sbHhkZGh8JhdAECfMPEaAPLQYwJQLFfVoCmlSgBFMmFaREQmW8qdoKznFRERKTfljgSAfjF6c3Trl1vDY3YBABXg818B+p2J1wCQhx4TgGK5qgZNKVUCKJIJ0yIiMtlS7gRlPa+IiEi5KXckAPQLE0EAAKB7jLcBIA89JgBAjylVAiiSCdMiIjLZUu4EZT2viIhIuSl3JBDz6WVQTSaCAABA9xhvA0AeekwAgB5TqgRQJBOmRURksqXcCcp6XhERkXJT7kggNjY2PDIyFB6zC4BSmQgCAADdY7wNAHnoMQEAekypEkCRTJgWEZHJlnInKOt5RUREyk25I4GYuypBNZkIAgAA3TN6czQMtsNjdgEAkOIKFQBAjylVAiiSCdMiIjLZUu4EZT2viIhIuSl3JAD0CxNBAAAAACiXK1QAAD2mVAmgSCZMi4jIZEu5E5T1vCIiIuWm3JEA0C9MBAGoMvelBAAAJgNXqAAolqtq0JRSJYAimTAtIiKTLeVOUNbzioiIlJtyRwJAvzARBKDKxsaGR0aGwmN2AQAAwABxhQqAYrmqBk0pVQIokgnTIiIy2VLuBGU9r4iISLkpdyQA9AsTQQCqzOe/AvS70ZujYbAdHrMLAIAUV6gAKJaratCUUiWAIpkwLSIiky3lTlDW84qIiJSbckcCQL8wEQQAALrHeBsA8lDcCwDQY0qVAIpkwrSIiEy2lDtBWc8rIiJSbsodCcR8ehlUk6mTAADQPcbbAAAAQAUpVQIokgnTIiIy2VLuBGU9r4iISLkpdyQQGxsbHhkZCo/ZBUCpTJ0EAIDuMd4GAAAAKkipEkCRTJgWEZHJlnInKOt5RUREyk25I4GYuypBNY3eHN365dbwmF0AAAB0TKkSAAAAUEFKlQCKZMJ0RbL/5UfvXDC7lh3b18YNRNrIkcOb7112Zy27dz0cN+hSRg5uSo7nrU+tiRtIX6Ss46cHKXeCsp5Xup1tT98/bdrUiXL69R3xU+qmqPUUla6+noujhz/6cO+VS8fiRSKTNkYCAAAAQJcoVQKAPHyYDgBAjylVAihSUROm//Zv3/3DD2e//+Hsdz+8FxL+Ef4bvhi3HPjs3vXw+oeXJXlmxwNxmzjPPbtu6F9s3LA8biCDl1Mnt6cPlXQ2bLj32R0PjBzc9O7bu65cOh4/N2d2PvdgclyFdcYNupTdLzycbPehh+6JG+TP3uFH4v3TOJseWxmvR9pIWcdPD1LuBOWiet7vfzj91Y2jF7575bPrL4aEf4T/hi/GLQcsb555Lv7Fv3UGeHzl8J71r5/cdv7cgfi5kySbn1iV/PLGXju+NX5K3RS1nqJS+OsJneyGR+5dtuzO2bNnJOuZMWPaXQvnPLhu6YH9j41+PhI/S3ocI4ESYyQAAEBluS8lQL9TqgQAeegxASiWq2rQlFIlgCJ1OGH68h8+OPPN589f/mrLxa/rJiwKDUKz+LkDme+vn54169Zs12DatKl5Sk0qXqq0e9fDm59YVctknvw9UdrbP7uefyh1pExo+vSpTz1538XRw/EamqasCaYFlirdv2ZxsqqcZsyYFq9nMqS947BByjp+epByJyh32PNe/cOrH37zwpHLj7508W/qJiwKDUKz+LmDkX0vbUz9xjeydOn806c6utNOn6aokp6i1lNUCnw9F84fCsOtKVOmZNdyu9Bg+fKF8dOllzESyB8jgfwpdyQAAEDnxsaGR0aGwmN2AQB9wsRrAMhDjwlAsVxVg6aUKgEUqe0J01f+8MG+31+Ma5MmSmh8ZRIULJ0+tSM1T/JPjhzeHLfMpOKlSnctnJO8vDNvPBs3mORpb//kLFWqueOO6fte2hivpHHKmmCqVKmUtHccNkhZx08PUu4E5bZ73qt/OH7y95vj2qSJEhqHp8Tr6ffkL1WqCaeRS18ejdczwPnow73HjmxJZ968O5Idkr+kp6j1FJWiXs/7Z/eEXjV5YlPxGqSXMRLIHyOB/Cl3JAD0i9Gbo1u/3BoeswsAqACf/wrQ70y8BoA89JgAFMtVNWhKqRJAkdqbMH3s6hdxMVKehCfGaxukbNm8OpnPl1j/8LK4ZSZKlfo67e2flkqVgqlTp+RfeS1lTTBVqlRK2jsOG6Ss46cHKXeCchs97w9/PPPW1e1xMVKehCeGp8fr7N+0Wqo0lK8jHuwsXTo/2Rv5S3riFLWeotLG6/nq8vH02bJm0aK5a+9f/OjG5atXL5o/f1bmbkvxSqSXMRLIHyOB/Cl3JAD0CxNBAACge4y3ASAPPSYAQI8pVQIoUhsTpkPiGqT8idc2SLlzwexkPl9i1qwZN757I26cjlKlvk57+ydTqnTh/KFaPj9/8J23nj986IkNj9ybmS09f/6slu4NcuHzQ6dP7ajls09ejht0KV0qVbp70dz3z+5pmk8+2hevZzKkveOwQco6fnqQcicot9rzXh87eeTKo3ENUv6Ep4eVxGvu02RKlc59uj85f3704d5Xjz8VutTQ86bbDOW7w+EAp42Snropaj1FpY3X89jGFclTguX33hmfML+6fPzllzYmg7p4JdLLGAnkj5FA/pQ7Eoj59DKoJhNBAACge4y3ASAPPSYAQI8pVQIoUksTpv/uX/4RFyDlT2ZVg5TfvLcnmR04a9aMefPuSP57+tSOuH06SpX6Ou3tn3Sp0pQpU+IGIe+f3T1nzsykWfDsjgfiZlVLl0qVlt97Z9xAkrR3HE7OlDtBuaWe96sbRw9cXh9XH7WasJKwqnj9/ZhMqdI31+pUYV0cPbz2/tvuxDJ37sy42eRJGyU9dVPUeopKq6/nxndv3HHH9OQpy+5ZcP3r1+NmSeNDBx5ftfKueJH0MkYC+WMkkD/ljgRiY2PDIyND4TG7ACiViSAAANA9xtsAkIceEwCgx5QqARQp/4TpG9+/++WVd2v/jguQ8qe2hrCq77/PbqLfszNVbrRu3dJHNy5P/rtl8+q4fTpKlfo67e2fPKVKIceObEmaBeseWBK3qVqUKpWS9o7DyZlyJyjn73mvj518pYg6pVrCqgbj3kp5SpVCLn15dO7cWzXDQz/fvC5uNknSaknPRClqPUWl1dfzzlvPJ+2DTz+epPfe6a8YCeSPkUD+lDsSiLmrElSTiSAAANA9ozdHw2A7PGYXAAAprlABAPSYUiWAIuWcMP3HH95595OzFy4VVqoUVhVWGFYbb6t/s+yeBcnswP37Hj16+FaFycI7Z8ft04lLlS5fPLZ3+JE1a+5efPe8hQvnPLhu6e5dD5/59bM/3DgTP71uQssjhzc/uXn1ugeWLF06f8GCWUuXzF9z391h/S8OP3Lu0/3xU2p5+8zOQwc2pTNr1ozk5W19ak1maS2//WzCFYZcu3oiafnq8aeSr7955rnHH1uxauVd4Xu8e9Hc+9csDutvMHU4bGXvixs2Pb5y7do/fVPhWStX3LVhw72HDz1x8Ysj8VMa55trJ8Nr2PfSxs1PrAov484Fs8Nqw94OLyPs7bj9eHH7J2epUkh4VUnLsKPiBrWEn/ipk9tPnthWNx9/9FL8lKZpY/+MT1Cq9PabO8PPOvywwrewZPH8DY/cu2f3+tHPR+Knp1PIBOXz5145dmRLLe+f3RM3qOWLC4eTZuGnHDf47JOXkx/ou2/vqn2xve8rkzb2c1HHYZJij58rl46HZ+3a+dD6h5eFM0/4dsKRsPO5B0+8uvXSl03u7dO9/Zyk3AnKOXveH/545siVR+OKo04SVhhWG2+rv5KzVCkkHCTplq+f3Ba3GS+uZ6lsTzfeeknPROl8PZ9+/HIYnGx7+v6wH8LoaNmyO8POCT/T98/ujhs3Tauv54Vdt3reuXPviBu0l07OeEX1UEmKOg6TtNFDxenk524kMNF+NhJoYz8nKXckAPQLE0EAAAAAKJcrVAAAPaZUCaBIOSdMf/q7s2/85r1iS5XCCsNq421NlNHvDx678qs9X/7ymQt/tfuL+w9f2Xju25f+7o9vxy1LyYXzh6ZMmZLMDjx/7pVLXx6dOvXWVz54fzh+VpJMqdJnn7w8f/6s5Ctpa+9f/NXl4/EaMhk5uGnRXXOzT77d4sXzPv345fi5a9cuyTbNYd/eDfGqkrx/dk/SctasGeM/zxldvnxhagW3hP2WuQ/V99dPb3v6/vCCU/u4jpkzpz+/88HrX78ev4C6efPMcwtTHz8fC1vc//KjmWcVtX/ylyqlJ+mGlteunojbhFz84kjSLLZhw73xUxqnvf0zHpUqXbl0bKKdFo7zZAZq3RQyQblu6VScI4c3J82WLauzrQK/r3Ta288Tbbqx+DhMUuDx885bzy9YUP8MNvRTecDMN04/Ez8rSZf2czrlTlDO2fO+eW1bXGvUecJq421NlGr2vPlLlU6/viPdcs/u9emlhfcs1ezpamm1pGeidLKe8JMK33KD727zplXd/r62PrUmaR+GSXGDNlLsGS9uUEvTHipJh8dhJu31UOl0/nM3EhiaYD9PtOnGjARqKXckAPQLE0EAqsx9KQEAgMnAFSoAiuWqGjSlVAmgSHkmTH/33bu/fv+9bpQqhdV+++2f1tk4H36z+5kLfxXnjavNp6X2Ji+nZk4vWvSnya/3Lrsz+eLOZ9fFz0qSLlVac9/d6bvoxJYsnn/+3CvxSpKkp/c1dvrUjvjpE80FbKzBxMfxaOLsJx/tazB/cejn7zH99KtfvZZtMbHVqxc1mLley7WrJ57ccl+6umwiM2ZMyzy3qP2Tv1Rp3QO3thhe8tUrr8ZtxgudYNrJ/hm//QgMLz78NFPPyJo+ferZd16IV1JLZScod/h91dLJfi7qOExS1PHz4vAj06ZNzT7/dlOnTgknvYnuEVf4fo5T7gTlPD3v1T8c33cpW2VUSMJqw8rjLcapbM+bv1Qp3fUM/XyPkfTSwnuWqvV06bRa0jNR2l7PB+8PL148L3nuRJYumR/2W/z0idLq60mfXsKZ6vLFY3GbllLsGa+THipJh8dhkk56qCSF/NyNBGri/WwkUJNnP8cpdyQA9AsTQQCqbGxseGRkKDxmFwAAAAwQV6gAKJaratCUUiWAIuWZMP3hk4RFfwAAgABJREFUb3+qU2paqrTpwu9/+dqvV+87+JfPD68+ePSXr77xq88vx81qa6iVKoWElcdbzOQPP7yxc3T1Mxf+as+Xa9+8uv3s18+Fx/Dv2pzp3+ebct3tpKdRPvkvn0//zI4Hki/Wne+YJF2qlDZjxrR7li6YO3dm5uuLFs2daG7fW2eey8x3nD17xorlCx9Yu2T5vXeGVaUX1i1VenTj8lmzZqRz6wk/TwfMLK3l8KEn4lUlyUycDa8ktco6mk7gDi/jroVzVq28a+nS+bNnZ/fPYxtXxK8hnRX1bi8Qds7y5QsXLpyT3oHxxNCi9k/+UqW7F926QVZ4kXGDWq5cOjZ16k+vPUla/gmm453tn/GJi+WmTfvpp5bZY0MNJw1XdoJyWhvfVy2d7OeijsMkhRw/r+x/7Lan/Xxsh+8lJH2XuZrdux6O1zDehf0cp9wJynl63pO/3xxXGWXyyMH/tPb5uzMJX4xbZhJWHm8xkyr3vPlLlY4d2ZJu+dztNcOF9yxV6+nSabWkZ6K0t56z774QvpfkiTXz5t0RzoF3LpidGbSEb/nbb07FK6mbVl/PyRPbUpv66T6WcZv8KfyM1+Bs1rSHStLhcZikkx6qlqJ+7kYCNfF+NhJINN3PccodCQD9wkQQgCrz+a8A/W705mgYbIfH7AIAIMUVKgCK5aoaNKVUCaBITSdMf/vtO7WaogalSr86f2nZjufn/vmS2Yv+PJ25f7bkni1P/+rcFw1KlULCJuLtpnPhu1dqc6Mvf384+WL4d+2Ln1wfjp/S41z96rUZM6Yls+VOnthW+/rbb+5MvjhlypQL5w/Fz60lLlWaNm3qoQObklmbH7w/vHDhnHSDo4e3xOsJeezRFUmbsJID+x/PTP28fPHY8O71C+/86cZNdUuV4tyV2vSZN56NGzRN5tYWidWrFo0c3BS+u++vnz5/7sDrJ7c9sv7esK8mmsAddsKe3es/++TlTKXWsSNb0i8yfOOfnz8Yv4xaDh14PGk59PPHuu98dt0XF24dXdeungjf5rKfb4oVTwyN097+yVmqdPbtXemZnSuWL4zbTJSdzz2YPDHnBNPxIvZPPMF05szph0eeSCoKTr++Y86cW9PuwyZ++9n+eD3jt09QDk/ZsW1t49SdgNu9Ccptf1/jReznTNo7Dhuk1eMn/BZn7gi39ak1Vy796aYlV6+8+vzOB9PznsO+Cr/a8XqK3c91U+4E5aY979U/vBrXF8VZum7e//4f/5dMwhfjlnHCJuLtplPlnjd/qdITm1alW4YuJr202J5lvGI9XSatlvRMlPbWs3LFXcmzhn6+e+S5T2/9zobz3oPrlqYbhHNFvJK6afX1hD2WqZBZfu+dZ37dzgmzG2e8TnqoJB0eh7UU0kMV9XM3Emi8n9MxEsifckcCQL8wEQQAALrHeBsA8lDcCwDQY0qVAIrUdML07768VVNUt1TpkQ/O/fu/Wp0pUkpn/l/+51+d+7JBqVLYRLzddD66vqc2N/qPf3wz+WL4d+2L7329M35Kj3P86JPJVLkZM6Yls+h+uHFm9uxbH/v98ksb4+fWkilVmjp1Sjzj9vPzB9PVSkuX1plaGjJv3h1Jmxd2PRQ3qCW8tpMntl2++Ke5g43T+cTHeOLstGlTdz3/UN17Q7379q49u9env/LtN6c2blh+8rWn48ZJzn26P10wtmP72rjN+E8fGH88fZeq8O+J5iiH1za8Z/38+bPiRZm0t3/ylCpdHD28ePG8pFlw6MDjcbOJ0uoE0/GC9k9mgunMmdM/eD9b2BB+yuk2+/ZuiNczfvsE5TxWrbwrXkmXJih38n0Vsp8zae84bJBWj5/MjRTCEd5emwL380Qpd4Jy0573g292xcVFcba+/Vd/vfU/LFz272pFSuEf4b/hi3HLOGET8XbTqXLPm7NU6e0zO9N1nuHfX12+7WZQBfYstVSnp4vTaknPRGljPUcPN7q3VZJtW+9P2oTv8fPfHojbxGnj9Tz+2IrkKYm5c+8IXz986Inz516Jn1I3ec5medoU1UMl6fA4HC+ohyrw524k0GA/Z2IkkD/ljgRiPr0MqsnUSQAA6B7jbQAAAKCClCoBFKnphOmzn/ypoKhuqdLjv7347//zqlpJ0t0bfvU3p97+1flLP91n6dwXf3P6nb94+tm5f7bkL3fuaXxXpbCJeLvpvPf1ztrc6MzXa188+/Vz8VN6nI0blifz5FavXpRe9NCD9ySL7l+zOH5uLZlSpbVrl8RtQg7cPrfv9Ovb4zbpmdlvnSlm53Q+8TGeODvRZ+d3kq1PrUnWf9/qu+MGmTbBsSP1b06VpO7U3kza2z/pUqXg2tUTtVz96rXPPnk5/HCffWbdHXdMT7e5Z+mCeD0N0uoE0/GC9k9mgumTW+6L24Qsv/enuwTUbN9Wf8J9lScod/J9FbKfM2nvOGyQVo+fdC1leDFxg1rS+2f27JmZ276NF7qfJ0q5E5Sb9rxHrzwWFxdNlCffWFErVQr/iJdOlLCJeLvpVLnnzVOqdOjApvQNN4Ym+KXOkzw9Sy3V6enitFHSUzetrif8dBYsmJU8pcELvv716+mT2ESVLZm0+nrGf7635Ny5t4q6Y0sWzw8/uPT9f+qmG2e8TnqoJJ0fh533UMX+3I0Eaon3cxwjgfwpdyQQGxsbHhkZCo/ZBUCpTJ0EAIDuMd4GAAAAKkipEkCRGk+Y/sONd5KCorqlSn/x9LOzF/35v1u0eOX+w+l6pCQb3v9sy8VrjUuVQsKG4q0nee/r5ys7YXr854mD6fnQu194OL00/cHhM2ZMu/rVa/EaxqNSpePHnorbhFy98mr6dgrPPrMubpMubjn4Sgt34GmQzic+ZibOhj020a7oJCMHNyWbWLRobtwg5O5Fc5M2S5fUvzNVq2lv/2RKlZp6YO2SC58fitfTIK1OMB0vaP+kJ5hOmTKl7k0Sxm+fpDvRy6vsBOUOv69C9nMm7R2HDdLS8XPpy6NJ42D3rtvOhOkc2P94uuXHH+7NNChwP0+UcicoN+55vxs7FVcWNUh7pUohYUPx1pNUuefNlCrt2vlQOGZq2bF97fqHly1K/X7VTJs29d23d8WrypM8PUst1enp4rRR0lM3ra7nzK+fTdoHH32Q/X1PJ/2TXfdA/ZrtTFp9PbWc+3R/usKhrnDyWbt2yejnI/HTx7t2xuukh0rS+XHYeQ9V7M/dSCB/jATyp9yRQMxdlaCaRm+Obv1ya3jMLgAAADqmVAkAAACoIKVKAEVqPGH6m+u3FRRlSpV+df7S3MVLZi/68/9r01NxkdJEqa0hU6oUNhRvPcn7t9/b4eL3h89+/VxI7YuHL2+s/bduQuN4hcXmzTPPJZPkgg9/82J66ee/PTDl1l2Oho4ffTJew/jtpUozZ06/8d0bcZtaHly3NGn52MYVcYP0tN05c2aefn1H3KbVdD7xMTNxdtfOh+I2LSXsovPnXgk7/8SrW5OE1SabmD9/VvysH26cSdd6HT70RNymjbS3f/KXKs2bd8fIwU3xGpqmpQmm48Xtn/QE0/Di4wa1DO9ZnzTL3I4sSXqC8p0LZh8/9mTj1K1G6MYE5U6+r6L2cybtHYcN0tLxc/adF5LGwefnD8Ztarl29cS0aVOTlq+f3JZpUNR+bpByJyg37nm/unE0LitqkLZLlcKG4q0nqXLPmylVyqPBjPl02utZklSkp6ub9kp64rS6nv0vP5q0D06f2vFTXk+yvZZTJ39K+icbTvjx2uK0+nqShH0bNrd0ya2n1zV37sz4HDXetTNeJz1Ukg6Pw0J6qGJ/7kYC+WMkkD/ljgQAAAAApUoAkIcP0wEA6DGlSgBFajJh+lqjUqU1x07NXvTnIQ+++X5ckjRRamvIlCqFDcVbT/LetdsmTCdTpfPkbPfv/JD+PO+6k4YX3z0vabBxw/K4wfjtpUp3LZwTN0jy5ObVScu6c/Ke3HJf0qAmvIDwxeNHn/ziQpvTxzuf+JiZOHvq5Pa4TZ6cffeFhx66J+znqVNTFWD1zJkzM376uU/3p9t88P5w3KaNtLd/8pcq7X7h4W+/aXT/k4nS0gTT8eL2T3qCad2ZvrUcPvRE0mzlijr3QBi/fYLy8nsnXFXjdGOCct0GtTT9voraz5m0dxw2SEvHz7EjW5LG06dPjRukM2/eHUnjfS9tzCwtaj83SLkTlBv3vKPfH4jLihqk7VKlsKF460mq3PO2VKq0YMGspjcY7LBnSVKRnq5u2i7pyaTV9aTHSC2ZMmVKnnsBtfp64px9e9f2bWuXL18YTlyp7d8ybdrU+JYvXTrjddJDJenwOCykhyr2524kkD9GAvlT7kgAAIDOuS8lQL9TqgQAeegxASiWq2rQlFIlgCI1njD95ZWzDUqVVrz4Sq1U6fELV+KSpIlSW0OmVClsKN56kmSGdOa/edLtCdMhi+6am0ySq3ubo6eevFU7NGfOzB9unInbpEuVVixfGDdI8vzOW1MGw6bjBlcuHZs799bkv4z582dt3LD8teNbr3/9evzcidL5xMfMxNlPP345btM4H32w977Vd6dvUdXY3Ll1JnC/fnJb0iCsKp4O217a2z+ZUqW1a5fUsnr1orDCKbd/q4sXz7t65dV4JY3T0gTT8eL2T3qC6boHlsQNamk6IXi8whOUO/m+itrPmbR3HDZIS8fPnt237mxQt2gznfSdTLY9fX9maVH7uUHKnaDcuOf97Nu9cVlRg7RdqhQ2FG89SZV73jylSrNnz1y6dP6Lw480rvMspGdJUpGerm46L+mppdX1hF/hpH2rfvvZ/niFmbT6ehokHCpvnH7myc2r71wwO/UqfhJ6okzjLp3xOumhknR4HBbSQxX7czcSyB8jgfwpdyQAAEDnxsaGR0aGwmN2AQB9wsRrAMhDjwlAsVxVg6aUKgEUqfGE6ZylSr/6/HJckjRRamtoqVQpk0pNmP74w73JDLngyc2rz7zxbCbP7ngg3ebNM3VeUrpUad26pXGDJMN7bs0CvOOO6XGDkN+8tyd9K6e6Fi2am/8T3Duf+JieODt16pTvr5+O2zTI5789MH/+rGQNecyaNSNez94XNyQNZs+u06C9tLd/0qVKU6ZMySytTVhPGgQbHmkyQzROSxNMx4vbP0VNCB6v8ATlTtZT1H7OpL3jsEFaOn7S93NbunR+3CCdNffdOrYfWZ9dc1H7uUHKnaDcuOetSKlSJpXqeTOlSseObHnt+NZaTry69f2zu7+6fDx+VpyiepYkFenp6qaokp5W17N4cZPRyESmTBkKOyReYSatvp48+eHGmXAWmjFjWurlDL379q50myqf8To8DgvpoYr9uRsJ5I+RQP6UOxIA+sXozdGtX24Nj9kFAFSAz38F6HcmXgNAHnpMAIrlqho0pVQJoEiNJ0x/de22gqJMqdKaY6dqpUp/c/pPX8mT2hoypUphQ/HWJ0qlJky/sOu2G+PksfWpNfF60qVKa+/Pfnh/Oukp2g1up/DNtZMHX3l89epFU6dOeHeGGTOmfZivWqnziY/pibP5p1YnWbniruTpQz9/4zu2r33j9DMff/TS1a9e++HGmVrefnNn0qbuVl7Z/1jSIHz7cYP20t7+aVyqNP7zD3H5vXcmbYLwLcfNGqSlCabjxe2fAieYDuQE5aL2cybtHYcN0tLxs23r/UnjxYvnxQ3SWbXy1m90fDO6ovZzg5Q7Qblxzzv6/YG4rKhB2i5VChuKtz5RKtXzZkqVwqkybpMnRfUsSSrS09VNUSU9ra5n2T0LkvYPP3TP9a9fz594bXFafT35kz5RB/v3PZpeWuUzXofHYSE9VLE/dyOB/DESyJ9yRwJAvzARBAAAusd4GwDy0GMCAPSYUiWAIjWeMP3N9UalSr86f2nu4iWzF/353Y/+Ki5Jmii1NWRKlcKG4q1PlEpNmF6+fGEyQy6nRXfNjdeTLlVads+CuEGS9D2a7lnaqGUtV6+8euaNZ3ftfGj1qkXTp09NnlsTvhg/JU7nEx87mTj76cf7pqTqrR5Yu+Tbb07FzcZvn7BYdytvnnnu1oqGhr64cDhu00ba2z9NS5VCzp87kL6xQ+NjI05LE0zHi9s/BU4w7eUE5f0vP5o0q/t6cq6n6fdV1H7OpL3jsEFaOn7S1SNz5kxYRVnL3YvmJo3D2S+ztKj93CDlTlBu3PN+deNoXFbUIG2XKoUNxVufKJXqeQspVSqwZ0lSkZ6ubooq6Wl1PevXL0var16da8jRUlp9PS1l4Z2zk5Vn6sx7f8Zr2kMl6eQ4HC+ohyr2524kkD9GAvlT7kgg5tPLoJpMBAEAgO4x3gaAPPSYAAA9plQJoEiNJ0z/4cY7DUqVQu7Zsq12Y6WVe/bFVUkhf33g2LqTbzYtVQobirc+UaozYfqLC4cb3LOogY8/eimzqnSp0oIFs+JtJdn0+Mqk5boHlsQNGuTyxWM7tq/NFCxdOH8obplJ5xMfO5k4+/zOW7Mkw865+tVrcZta0vMp627l4ujhpEHw9ps74zZtpL39k6dUKWT7trVJs+Do4S1xm4nS0gTT8eL2T4ETTAuZoPzS3g3JShr81oTfjqRZ3ddT1PdV1H7OpL3jsEFaOn5OvvZ00jgczze+eyNuk2T27BlJ44OvPJ5ZWtR+bpByJyg37nm/GzsVlxU1SNulSmFD8dYnSnV63vGCSpUK7FmSVKSnq5t0Sc+rx5+KG+RMq+tJD2+a3mWljbT6elrK2vtvdUDr1i1NLyrwjFdUD5Wkk+NwvKAeqtifu5FA/hgJ5E+5I4HY2NjwyMhQeMwuAEplIggAAHSP8TYA5KHHBADoMaVKAEVqPGE65OwnjUqVfnXui/l/ubJWrfRnDz36y1ffePTj3225eG3DR+fvP3Ji0UOPhK//b4vvWf/2hw1KlcIm4u02SHUmTB/Y/3gyPS7Y9fxDLw4/Ujd7dq9P3y3hhV0PZVaVntM5bdrUi18ciTdXy8oVdyUtn9y8Om7QNMePPZmsITj9+o64TSbpiY+nTm6PGzRNJxNnH3t0RfLcR9Y3miW5/uFbn+I/0VbC15M2z+98MG7QRtrbPzlLlb66fHz27JlJy7sXzf3hxpm4Wd20NMG0lkL2T4ETTAuZoHzowK1f1Yk2FLJxw/LGzQr8vgrZz5m0dxw2SEvHz0cf7E0aB++f3R23qeX8uQPp82E8l7rA/TxRyp2g3LTnPXrlsbiyaKK0V6oUNhFvt0Gq0/OOF1SqVGzPUkt1ero46cHD/pcfjRvkTKvrydwDaqJbRbWdVl9PS1lz393JykMHkV5U4BmvqB4qSSfHYS2d91DF/tyNBPLHSCB/yh0JxNxVCarJRBAAAOie0ZujYbAdHrMLAIAUV6gAAHpMqRJAkZpOmP7dl7dqiuJSpZBH3vskqVaqm//zr9c+9slog1KlsIl4uw1SnQnT6x5YkkyPW7hwTtwgnSWLb33w//LlCzNL06VKwYvDj8RrCPntZ/unpGb2De9eH7fJk7lz70hWcuhA9oPM4yy/986k/YH9zdvH6WTibHpadoPqrHOf7p827dYNoybayrJlt76X2bNnXLl0PG7TatrbPzlLlcZvnyc61MqNlVqaYFpLIfunwAmmhUxQPn1qR7KS+fPr37Xs++unw6KkWd3XU+D3Vch+zqS947BBWjp+vrl2Mj3t+IlNq+I2tTy744Fb7YaGzp97JdOgwP08UcqdoNy05/3gm11xcVGcbe+sXP30Xf/h3v+1VqoU/hH+G74Yt4wTNhFvt0Gq0/OOF1SqVGzPUkt1ero46QKMHdvXxg1yptX1vH92d9J+aOLhTdtp9fW0lPRgac/tI64Cz3hF9VBJOjkOa+m8hyr2524kkD9GAvlT7kgA6BcmggAAAABQLleoAAB6TKkSQJGaTpj+9tt3Gpcq/XxvpS/v2bJt7uIlmSKleX/xl8t379s0+vt049oa0qVKYRPxdhukIhOmv7l2csaMacn0uE2Pr4zbpPP01jVJ46lTp1wcPZxemilVWrJ4fryGkGefue3mS/HEvjz59ptT06ffmuh8/NhTcZtM0lOoNz8x4bzDBulk4uyO7WuT565etShuUMuGDfcmzYYm3srBV267F9YzOx6I26QTXnn8xUza2z/5S5UuXzx2xx3Tk8aL754Xt6mbliaY1lLI/ilwgmkhE5Q//uilZCXB22/ujNtkvvG6r6fA76uQ/ZxJe8dhg7R6/Kxaeev2JuGIvfrVa3GbG9+9kZ4IXvdcV+B+nijlTlBu2vNe/cOrcXFRnKXr5tWKlNIJX4xbxgmbiLfbIBXpeWsppFSp2J6llur0dHHSw4xFi+bGDXKmjfWsWL4wecqcOTOvXml+7IVeL/5i3bT6es6fOxDOVK8d3xovyuSlvRuSNQ/9dAvK7A1qijrjFdVDJenkOKylkB6qwJ+7kUAtdfdzJkYC+VPuSADoFyaCAFSZ+1ICAACTgStUABTLVTVoSqkSQJGaTpgO+fC3TUqV/lSw9PnlNcdOrRjev3z3vr8+cOzBM+9tuXgtblZbQ1KqFFYeb7FxKjJh+sSrW5O5cUM5Cn7eOP1Mun3mk84zpUrB5uiTyE++9nS6xKjufMFLXx5dsGDWk1vu+/jDvfHSWp568r5kJVOnTrnw+aG4TSbbnr4/ecqMGdMarHyidDJx9ujhLclzg3iG8Y3v3tixbW36flNDDbeS/sj58KytT635/vrpuNnn5w8+sHZJ+H7jRZm0t3/ylyqFhBeZNB7KfWOlVieY1tL5/ilwgmkhE5SvXT2Rvg/Jmvvu/vabU+kGZ995Yd68W3fPGJrg9RT4fY0XsZ8zae84bJBWj58zv342aT/0c7nFV5dvu0fE9a9fX7duabrNsSN1juRi93PdlDtBOU/Pe/L3m+P6okweOfif1j5/dybhi3HLTMLK4y02TkV63loKKVUqvGcZr1hPl0lm0LLz2XVxmzxpYz3vn90dBhvJU1YsX/jJR/viZrWcPLFt7f2LQ/vffrY/Xhqn1dfz4W9erLVcunT+8WNPxg1qCaeXdK8R/v3FhdsqzMeLO+MV1UMl6eQ4TNJ5D1Xgz91IoMF+zsRIIH/KHQkA/cJEEIAqGxsbHhkZCo/ZBQAAAAPEFSoAiuWqGjSlVAmgSHkmTH/33bu/fr95qVLO1NZQK1UKqw0rj7fYOBWZMP3YoyuSuXHTpk1t+mnx318/nb4xzroHlqSXxqVKQz/PzHvt+NaLo4fffXvX8zsfTM+wnDJlyoe/eTHeyhcXDv9Lg6FVK+96ae+G06d2fH7+YFh05dKxN07vWLt2SbKSYPXqCW/dkE6mziq8ko0blu96/qFDBx4fObiplrqzS5N0MnH2/LlX0t/79OlTd2xbe+7T/T/cOBMejx3Zkv4E90SDrZx954XMbO9ly+58+aWN77z1/NWvXvvow71HD2/Z9vT9tZ9Xnomh7e2flkqVLnx+KF2otnhx9sZKn3687/WT2zJJf7j+yhV3xQ3qfkJ/5/unwAmmhUxQDnlk/W23IgmrCr9c4XsJvxThty99h7Sauq+nwO9rvIj9nEl7x2EtRR0/mV/GpUvnHzqw6bNPXg6/xYdHnkjfZGNoghspjBe9n+um3AnKeXreq384vu9StsSokITVhpXHW2ycivS8tRRSqlR4zzJesZ4uTvh9TD/3nqULNm9aFbZSS9Min07W88SmVemnhBPa9m1rT7y6NXxr166eeP/s7vDrvGP72oUL5yRtwqJ4PXXT0utJSpVqFt01N/QOYYj16vGnwjk5vKQXhx8Jp6Z0m2Dncw/G2x0v6Iw3XlAPlaST4zBJIT1UUT93I4HG+zkdI4H8KXckAPQLE0EAqsznvwL0u9Gbo2GwHR6zCwCAFFeoACiWq2rQlFIlgCLlmTAd8unvznajVCmsNt5W01RkwnT6k9dXrrgrbhBn3QO3yoRmzpx+/evXk0V1S5UaeOzRFfH6x1OlSnnMmDHt3bd3xSupm0yNU2zf3g3xs5J0OHF2185bVT0NzJ1764fSeCvP7HggMzd0Inkmho63tX9aKlUK2fTYytT6sh9C/9jGFemlOU106Ha4fwqcYFrUBOWz776QrGci6WLCuq+nwO+rlg73c5w2jsNaijp+3jqzM57tXde0aVNPvvZ0/ErGu7Cf45Q7QTlnz/vmtW1xoVHnCauNt9U0Fel5aymkVGm8Cz1L1Xq6TE6d3J5aTVaebqjt9Vz68ujixfOyTRuqW7JSNy29nkypUh7hRPfDjTPxdscLOuONF9RDJenwOEzSeQ9V1M/dSKBmov2ciZFAzpQ7EgD6hYkgAADQPcbbAJCH4l4AgB5TqgRQpJwTpv/4wzvvfnK22FKlsMKw2nhbfZF3396VTIwbmvjj9jPJzK4+8erWZFG6VGnDhnsfXLc01TBr+7a18cpryV+qNGPGtNeO33oBTfPZJy83nm860cTHWjqcOHvjuzdWr16U2lod4eWdfn1H8t+mWwmNFyyYlVpBfTNnTo+fG6eN/dNqqdKnH788deqtyayZz6EvaoJpkk72T4ETTIuaoByy6fHbar0y7lm6YP++R5P/1n09BX5fSTrZz3HaOA5rKfD4Cb/sd6VukVHX/Pmz3jqzM35uLd3Yz5mUO0E5Z8/7wx/PHLnyaFxr1EnCCsNq4231V4oqVSq8Z6lgT5dJ+K1JV2Kk5emGOlnPt9+c2rF9bfrOUQ2ElZw/90q8komS//V8+vG+nK+hZs2auz//7YF4i0k6P+PV0nkPlaTD4zCdznuoQn7uRgI1DfZzOkYCOVPuSCDm08ugmkydBACA7jHeBgAAACpIqRJAkXJOmA658f27X14prFQprCqsMN5Kv2R4z/pkYlxw9t0X4jZxzp97Jf2sdMXRC7tuVa1semzl99dPr1+/LP6Q9TlzZh7Y/3i85iThiaFBeG76rgsZM2dOf3rrmi8uHI6f3jjffnPqwP7HHnrwnjsXzL7jjumZl/fK/sfipyT56MO9Scu5c2fGDZrmhxtnXn5p46xZM1Lb/JPwYp7cvPqbaydb3cpXl49venzl7Nl11hnMnj1z29P31501Wzet7p/0UTR9+tR4hXHWP7wstcqh9E2xnti0Kr0op9WrF8VbSdL2/tn74oak2YZH7o0b1HL82JNJs7pTXUPWpcr2Vq2s3yZ/9u3dEE+YnjFjWvg2r1090fT1FPh9pdP2fq6bVo/DWoo9fsJ3tGHDvXVvqhAO9QfXLb34xZH4WUm6tJ/TKXeCcv6e9/rYyVcur48rjtpLWFVYYbyVvks4wpMf/dSpU9K3KGw1xfYs+VtOlGJfT92c+3T/5idWrVi+MLOVnN1Qh+s5+84Ly++9Mz4P14SfZjjP7x1+pHF1UN3kfz1XLh0/fOiJcCIKw6F0y4xwVnnrTK77g3V4xkvSYQ+VpMMjJJNCeqgOf+5GAjn3cxIjgTwpdyQQGxsbHhkZCo/ZBUCpTJ0EAIDuMd4GAAAAKkipEkCR8k+YDvm7f/lHXICUP5lVSYN89snLL+3dsPWpNU9uuW/k4KZPP345btMgH/7mxWNHtux9ccO2p+9/YtOqnc+uCyt568xzVy4dixv3S65cOn7mjWf3vbQx7JOQ3bsePn70yWtXT8QtW8qF84deP7ltz+71mzetembHAwdfeTzsqE6mvw9YBmn/XPziyOnXt4cjJ/xSPPvMukMHHm88WbaXGaT9PP7zLWLCWejwoSe2bb0/nMfCrv7Ne3u+v346btn7lDtBuaWe96sbRw8UUa0UVhJWFa9fxrvWs7Sdqr2ewhNODh99sPfo4S07tq/d/MSq53c+GMYn4Vu+9GVPD9Fvrp08+84Lrx5/Koy1wkgpnHjDKwmnrLfP7Bz9fCRu3ziFnPEGu4eqyM99fND3c6VSyO9Fl1LuSCDmrkpQTaM3R7d+uTU8ZhcAAAAdU6oEAAAAVJBSJYAitTRhOklcgJQ/8dpERER6mXInKLfa814fO3nkyqNx9VH+hKcPxv2URERECkm5IwEAAABAqRIA5OHDdAAAekypEkCRWp0wXcuxq1/ENUh5Ep4Yr01ERKSXKXeCchs97w9/PPPW1e1xDVKehCeGp8frFBERmbQpdyQAAEDn3JcS+P/Zu7ceKc4EXdR1Mb+BS6644QaJC0tIbKGpjVhiI4QYNxvkgWbBwBgGM7aRwQcwdhkwxjaUMcaYAoPNsXHbxoyP0NBOc2wwPlDF9HCxe2vVH/AaaZa0xFzt/dnRE4QjqiojKyMzI7KeR69CdsWXkUlUZUUo6nszqDpVJQDIwxETgGK5qgZ1qSoBFGkcE6ajXB/8dN+frmTLSKMlDA4PyW5HRESkzensBOVxH3lvDh49/qfns2Wk0RIGh4dktyMiIjLB09kzAQAAmjc01D8w0BOW6RUAVISJ1wCQhyMmAMVyVQ3qUlUCKNK4J0xHuTb46Znbl169diPbTYoSVoUB15SURESkNOnsBOUmj7w3B9/77Pbrh689ne0mRQmrwoAwLPtYERERudfpMwGgKmrDtb7LfWGZXgFACfj8V4CqM/EaAPJwxASgWK6qQV2qSgBFanLCdJw///njwbtnf7x79oe7n4SE/wj/G76YHSkiItLZdHaCclFH3h/vnrpx592vf3j7/HdvhIT/CP8bvpgdKSIiIsl09kwAqAoTQQAAoHWcbwNAHo6YAABtpqoEUKSiJkyLiIhUJZ2doOzIKyIi0tl09kwgy6eXQTmZCAIAAK3jfBsA8nDEBABoM1UlgCKZMC0iIhMtnZ2g7MgrIiLS2XT2TCBraKh/YKAnLNMrgI4yEQQAAFrH+TYA5OGICQDQZqpKAEUyYVpERCZaOjtB2ZFXRESks+nsmUCWuypBOZkIAgAArVMbroWT7bBMrwAAElyhAgBoM1UlgCKZMC0iIhMtnZ2g7MgrIiLS2XT2TACoChNBAAAAAOgsV6gAANpMVQmgSCZMi4jIREtnJyg78oqIiHQ2nT0TAKrCRBCAMnNfSgAAYCJwhQqAYrmqBnWpKgEUyYRpERGZaOnsBGVHXhERkc6ms2cCQFWYCAJQZkND/QMDPWGZXgEAANBFXKECoFiuqkFdqkoARTJhWkREJlo6O0HZkVdERKSz6eyZAFAVJoIAlJnPfwWoutpwLZxsh2V6BQCQ4AoVAMVyVQ3qUlUCKJIJ0yIiMtHS2QnKjrwiIiKdTWfPBICqMBEEAABax/k2AOSh3AsA0GaqSgBFMmFaREQmWjo7QdmRV0REpLPp7JlAlk8vg3IydRIAAFrH+TYAAABQQqpKAEUyYVpERCZaOjtB2ZFXRESks+nsmUDW0FD/wEBPWKZXAB1l6iQAALSO820AAACghFSVAIpkwrSIiEy0dHaCsiOviIhIZ9PZM4Esd1WCcqoN1/ou94VlegUAANA0VSUAAACghFSVAIpkwrSIiEy0dHaCsiOviIhIZ9PZMwEAAABAVQkA8vBhOgAAbaaqBFAkE6ZFRGSipbMTlB15RUREOpvOngkAANA896UEqDpVJQDIwxETgGK5qgZ1qSoBFMmEaRERmWjp7ARlR14REZHOprNnAgAANG9oqH9goCcs0ysAqAgTrwEgD0dMAIrlqhrUpaoEUKRokhYATDSdmqDsyAsAZdCpMwGgKmrDtb7LfWGZXgFACfj8V4CqM/EaAPJwxASgWK6qQV2qSgBFMmEagImpUxOUHXkBoAw6dSYAVIWJIAAA0DrOtwEgD0dMAIA2U1UCALrEwYPfp78EAJTewe8Ppr8EMF4+vQzKyUQQAABoHefbAJCHIyYAQJupKgEA3eD8+b/8zd/s+Mtf/md6BQBQYuf/cv5vdvzNX/7nX9IrAMZlaKh/YKAnLNMrgI4yEQQAAFrH+TYA5OGICQDQZqpKAEA3mDHjSE/PtpUrP02vAABKbMaRGT3belZ+ujK9AmBc3FUJyslEEAAAaJ3acC2cbIdlegUAkOAKFQBAm6kqAQCVd/78X3p6toW4sRIAVMj5v5z/5QDe48ZKANDdTAQBAAAAoLNcoQIAaDNVJQCg8qJbKkVxYyUAqIrolkpR3FgJALqYiSAAZea+lAAAwETgChUAxXJVDepSVQIAqi2+pZIbKwFAhcS3VHJjJQDoeiaCAJTZ0FD/wEBPWKZXAAAAdBFXqAAolqtqUJeqEgBQbclbKkVxYyUAKL/kLZWiuLESAHQrE0EAysznvwJUXW24Fk62wzK9AgBIcIUKgGK5qgZ1qSoBABWWuqVSFDdWAoCSS91SKYobKwFAtzIRBAAAWsf5NgDkodwLANBmqkoAQIVlb6kUxY2VAKDMsrdUiuLGSkCTfHoZlJOpkwAA0DrOtwEAAIASUlUCAKpqxFsqRXFjJQAorRFvqRTFjZWAJg0N9Q8M9IRlegXQUaZOAgBA6zjfBgAAAEpIVQkAqKrRbqkUxY2VAKCcRrulUhQ3VgKa4a5KUE614Vrf5b6wTK8AAACapqoEAAAAlJCqEgBQSWPcUimKGysBQAmNcUulKG6sBAAAAAD5qSoBQB4+TAcAoM1UlQCAShr7lkpR3FgJAMpm7FsqRXFjJQAAgLZxX0qAqlNVAoA8HDEBKJaralCXqhIAUD11b6kUxY2VAKBU6t5SKYobKwEAALTN0FD/wEBPWKZXAFARJl4DQB6OmAAUy1U1qEtVCQConjy3VIrixkoAUB55bqkUxY2VAKCb1IZrfZf7wjK9AoAS8PmvAFVn4jUA5OGICUCxXFWDulSVAICKyXlLpShurAQAJZHzlkpR3FgJALqJiSAAANA6zrcBIA9HTACANlNVAgAqJv8tlaK4sRIAlEH+WypFcWMlYBx8ehmUk4kgAADQOs63ASAPR0wAgDZTVQIAqqShWypFcWMlAOi4hm6pFMWNlYBxGBrqHxjoCcv0CqCjTAQBAIDWcb4NAHk4YgIAtJmqEgBQJY3eUimKGysBQGc1ekulKG6sBDTKXZWgnEwEAQCA1qkN18LJdlimVwAACa5QAQC0maoSAFAZ47ilUhQ3VgKADhrHLZWiuLESAHQHE0EAAAAA6CxXqAAA2kxVCQCojPHdUimKGysBQKeM75ZKUdxYCQC6gIkgAGXmvpQAAMBE4AoVAMVyVQ3qUlUCAKph3LdUiuLGSgDQEeO+pVIUN1YCgC5gIghAmQ0N9Q8M9IRlegUAAEAXcYUKgGK5qgZ1qSoBANXQzC2VorixEgC0XzO3VIrixkoAUHUmggCUmc9/Bai62nAtnGyHZXoFAJDgChUAxXJVDepSVQIAKqDJWypFcWMlAGizJm+pFMWNlQCg6kwEAQCA1nG+DQB5KPcCALSZqhIAUAE//fS//8f/+Pcx8uSTF3p6toVldlUy//Ef/5neNADQMj/9758yR+Nf5ckLT/Zs6wnL7Kpk/uM//yO9aYCR+PQyKCdTJwEAoHWcbwMAAAAlpKoEAHSDvr7LPT3bwjK9AgAoMRMpgGINDfUPDPSEZXoF0FGO+AAA0DrOtwEAAIASUlUCALqBqhIAVJGJFECx3FUJyqk2XAuH+7BMrwAAAJrmChsAAABQQqpKAEA3UFUCgCoykQIAAAAAmuEKGwDk4cN0AADaTFUJAOgGqkoAUEUmUgAAAHSW+1ICVJ0rbACQhyMmAMVyVQ3qUlUCALqBqhIAVJE/CwEAAHTW0FD/wEBPWKZXAFARrrABQB6OmAAUy1U1qEtVCQDoBqpKAFBF/iwEABNBbbgWDvdhmV4BQAn4/FeAqnOFDQDycMQEoFiuqkFdqkoAQDdQVQKAKvJnIQCYCBzxAQCgdZxvA0AejpgAAG2mqgQAdANVJQCoIn8WAorl08ugnBzxAQCgdZxvA0AejpgAAG2mqgQAdANVJQCoIn8WAoo1NNQ/MNATlukVQEc54gMAQOs43waAPBwxAQDaTFUJAOgGqkoAUEX+LAQUy12VoJwc8QEAoHVqw7Vwsh2W6RUAQIIrVAAAbaaqBAB0A1UlAKgiEykAYCIwEQQAAACAznKFCgCgzVSVAIBuoKoEAAAA5WQiCECZuS8lAAAwEbhCBUCxXFWDulSVAIBuoKoEAAAA5WQiCECZDQ31Dwz0hGV6BQAAQBdxhQqAYrmqBnWpKgEA3UBVCQAAAMrJRBCAMvP5rwBVVxuuhZPtsEyvAAASXKECoFiuqkFdqkoAQDdQVQKAKjKRAgAmAhNBAACgdZxvA0Ae/iYFANBmqkoAQDdQVQKAKjKRAiiWTy+DcnLEBwCA1nG+DQAAAJSQqhIA0A1UlQCgikykAIo1NNQ/MNATlukVQEc54gMAQOs43wYAAABKSFUJAOgGqkoAUEUmUgDFclclKKfacC0c7sMyvQIAAGiaK2wAAABACakqAQDdQFUJAKrIRAoAAAAAaIYrbACQhw/TAQBoM1UlAKAbqCoBQBWZSAEAANBZ7ksJUHWusAFAHo6YABTLVTWoS1UJAOgGqkoAUEX+LAQAANBZQ0P9AwM9YZleAUBFuMIGAHk4YgJQLFfVoC5VJQCgG6gqAUAV+bMQAEwEteFaONyHZXoFACXg818Bqs4VNgDIwxETgGK5qgZ1qSoBAN1AVQkAqsifhQBgInDEBwCA1nG+DQB5OGICALSZqhIA0A1UlQCgivxZCCiWTy+DcnLEBwCA1nG+DQB5OGICALSZqhIA0A2iqtLf/u2x8B8iItLS1GrD6d/CMF59mT8L1YZrmR+6dMKYto2HLjZaq6fSXx8a6h8Y6AnL5BeBjuvLHPEBAICiON8GgDwcMQEA2kxVCQDoBn2/VJVERKQN6XMLO4qT/bNQ9JWx087x0MVGa/VU+usj9peAjsse8QEAgKJEH83jw3cAYGyuUAEAtJmqEgDQDWq14fQNEUREpOj87d8e61FVolDZiRSN3vWo1eOhi43W6qn614ES6jMRBAAAAICOcoUKAKDNVJUAAADIpe+XW9j1qSoBANAIE0EAykwDHAAAmAhcoQKgWK6qQV2qSgAAAOSiqgQAwDiYCAJQZkND/QMDPWGZXgEAANBFXKECoFiuqkFdqkoAAADkoqoE0AV8vhfQfiaCAJSZ80OAqqsN18LJdlimVwAACa5QAVAsV9WgLlUlAAAAclFVouuZ2MFE4PO9gPYzEQQAAFrH+TYA5OFvQAAAbaaqBAAAQC6qSnQ9EzuYCHy+F9B+jrAAANA6zrcBAACAElJVAgAAIBdVJbqeiR0A0AqOsAAA0DrOtwEAAIASUlUCAAAgF1Ulup6JHQDQCrXhWji8hmV6BQAA0DRXtAAAAIASUlUCAAAgF1Ulup6JHQAAAABUiytaAJCHD9MBAGgzVSUAAAByUVWi65nYAQAATDT37/80OLg7LNMrAKgIV7QAIA9HTACK5aoa1KWqBAAAQC6qSnQ9f6YCAAAmmqGh/oGBnrBMrwCgIlzRAoA8HDEBKJaralCXqhIAAAC5qCrR9fyZionA53sB7VcbroXDa1imVwBQAs4PAarOFS0AyMMRE4BiuaoGdakqAQAAkIuqEl3Pn6mYCHy+F9B+jrAAANA6zrcBIA9HTACANlNVAgAAIBdVJbqeP1MxEfh8L6D9HGEBAKB1nG8DQB6OmAAAbaaqBAAAQC6qSnQ9f6YCgFZwhAUAgNZxvg0AeThiAgC0maoSAAAAuagq0fX8mQoAWsERFgAAWqc2XAsn22GZXgEAJLhCBQDQZqpKAAAA5KKqRNczsQMAWsFEEAAAAAA6yxUqAIA2U1UCAAAgF1UlAADGwUQQgDK7f/+nwcHdYZleAQAA0EVcoQKgWK6qQV2qSgAAAOSiqgQAwDiYCAJQZkND/QMDPWGZXgEAANBFXKECoFiuqkFdqkoAAADkoqoE0AV8vhfQfiaCAJSZ80OAqqsN18LJdlimVwAACa5QAVAsV9WgLlUlAAAAclFVouuZ2MFE4PO9gPYzEQQAAFrH+TYA5OFvQAAAbaaqBAAAQC6qSnQ9EzuYCHy+F9B+jrAAANA6zrcBAACAElJVAgAAIBdVJbqeiR0A0AqOsAAA0DrOtwEAAIASUlUCAAAgF1Ulup6JHQDQCrXhWji8hmV6BQAA0DRXtAAAAIASUlUCAAAgF1Ulup6JHQAAAABUiytaAJCHD9MBAGgzVSUAAAByUVWi65nYAQAATDT37/80OLg7LNMrAKgIV7QAIA9HTACK5aoa1KWqBAAAQC6qSnQ9f6YCAAAmmqGh/oGBnrBMrwCgIlzRAoA8HDEBKJaralCXqhIAAAC5qCrR9fyZionA53sB7VcbroXDa1imVwBQAs4PAarOFS0AyMMRE4BiuaoGdakqAQAAkIuqEl3Pn6mYCHy+F9B+jrAAANA6zrcBIA9HTACANlNVAgAAIBdVJbqeP1MxEfh8L6D9HGEBAKB1nG8DQB6OmAAAbaaqBAAAQC6qSnQ9f6YCgFZwhAUAgNZxvg0AeThiAgC0maoSAAAAuagq0fX8mQoAWsERFgAAWqc2XAsn22GZXgEAJLhCBQDQZqpKAAAA5KKqRNczsQMAWsFEEAAAAAA6yxUqAIA2U1UCAAAgF1UlAADGwUQQgDK7f/+nwcHdYZleAQAA0EVcoQKgWK6qQV2qSgAAAOSiqgQAwDiYCAJQZkND/QMDPWGZXgEAANBFXKECoFiuqkFdqkoAAADkoqoE0AV8vhfQfiaCAJSZ80OAqqsN18LJdlimVwAACa5QAVAsV9WgLlUlAAAAclFVouuZ2MFE4PO9gPYzEQQAAFrH+TYA5OFvQAAAbaaqBAAAQC6qSnQ9EzuYCHy+F9B+jrAAANA6zrcBAACAElJVAgAAIBdVJbqeiR0A0AqOsAAA0DrOtwEAAIASUlUCAAAgF1Ulup6JHQDQCrXhWji8hmV6BQAA0DRXtAAAAIASUlUCAAAgF1Ulup6JHQAAAABUiytaAJCHD9MBAGgzVSUAAAByUVWi65nYAQAATDT37/80OLg7LNMrAKgIV7QAIA9HTACK5aoa1KWqBAAAQC6qSnQ9f6YCAAAmmqGh/oGBnrBMrwCgIlzRAoA8HDEBKJaralCXqhIAAAC5qCrR9fyZionA53sB7VcbroXDa1imVwBQAs4PAarOFS0AyMMRE4BiuaoGdakqAQAAkIuqEl3Pn6mYCHy+F9B+jrAAANA6zrcBIA9HTACANlNVAgAAIBdVJbqeP1MxEfh8L6D9HGEBAKB1nG8DQB6OmAAAbaaqBAAAQC6qSnQ9f6YCgFZwhAUAgNZxvg0AeThiAgC0maoSAAAAuagq0fX8mQoAWsERFgAAWqc2XAsn22GZXgEAJLhCBQDQZqpKAAAA5FKrDff1XQ7L9AroFiZ2AEArmAgCAAAAQGe5QgUA0GaqSgAAQFX9+7//+zcAAOV2586d9EkMTDAmggCU2f37Pw0O7g7L9AoAAIAu4goVAMVyVQ3qUlUCAACqSlUJACg/VSUwEQSgzIaG+gcGesIyvQIAAKCLuEIFQLFcVYO6VJUAAICqiqpKd+7cuffnj0RERETKlv/3//mjqhL8fyaCAJSbz38FqLracC2cbIdlegUAkOAKFQDFclUN6lJVAgAAqkpVSURERMocVSWImAgCAACt43wbAPJQ7gUAaDNVJQAAoKpUlURERKTMUVWCiKmTAADQOs63AQAAgBJSVQIAAKpKVUlERETKHFUliJg6CQAAreN8GwAAACghVSUAAKCqVJVERESkzFFVgkhtuNZ3uS8s0ysAAICmqSoBAAAAJaSqBAAAVJWqkoiIiJQ5qkoAAAC0mqoSAOThw3QAANpMVQkAAKgqVSUREREpc1SVAIDyu3//p8HB3WGZXgFARagqAUAejpgAFMtVNahLVQkAAKgqVSUREREpc1SVAIDyGxrqHxjoCcv0CgAqwsRrAMjDEROAYrmqBnWpKgEAAFWlqiQiIiJljqoSRGrDtb7LfWGZXgFACfj8V4CqM/EaAPJwxASgWK6qQV2qSgAAQFWpKomIiEiZo6oEERNBAACgdZxvA0AejpgAAG2mqgQAAFSVqpKIiIiUOapKEDERBAAAWsf5NgDk4YgJANBmqkoAAEBVqSqJiIhImaOqBBETQQAAoHWcbwNAHo6YAABtpqoEAABUlaqSiIiIlDmqShAxEQQAAFqnNlwLJ9thmV4BACS4QgUA0GaqSgAAQFWpKomIiEiZo6oEERNBAAAAAOgsV6gAANpMVQkAAKgqVSUREREpc1SVIGIiCECZ3b//0+Dg7rBMrwAAAOgirlABUCxX1aAuVSUAAKCqVJVERESkzFFVgoiJIABlNjTUPzDQE5bpFQAAAF3EFSoAiuWqGtSlqgQAAFSVqpKIiIiUOapKEDERBKDMfP4rQNXVhmvhZDss0ysAgARXqAAolqtqUJeqEgAAUFWqSuXP4UPPL1s6L8ru157MDmhRBt7ZPG/uzCh9L67JDpCisu2ltVOmTB4tp07syD5kxBS1naLS0tdzpXbo88/2Xr96JLtKZMKmU8eLVkdVCSImggAAQOs43waAPJR7AQDaTFUJAACoqgKrSn/+88eDd8/+ePfsD3c/CQn/Ef43fDE7spty8vj2DU8uHTEbNy7bueOxgXc2f/zha9evHs0+Nmd2vfJ4z38J28wOaFF2v/5k/LxPPPFIdkDOfHDmlezOibP5uZX9ezacOL7t4oUD2cdOkDy/ZVW8q7PeP9qXfciIKWo7RaXw1xPeShufWrZ06byZM6fF25k2bcqC+bMeX7/kwP5napcGso+SNmdv/1PZd/rY2fzMyux2ZBzp1PGi1VFVgoipkwAA0DrOtwEAAIASUlUCAACqqvmq0rXBT8/cvvTqtRtbr3w7YsKqMCAMyz62C/Laq0/E88LHMHXq5BdfePRK7VB2C3XTqannRVWV9r25Kd7O2JYsmXPqZFN32qloiqr0FLWdolLg6/n64sFNG5dPmjQpvZVfCwOWL5+ffbi0M2vXLEp/Y+qZNm1KdjsTIbtfezK8TaIUUtfs1PGi1VFVgoipkwAA0DrOtwEAAIASUlUCAACqqpmq0vXBT/f96Uq2mzRawuDrXVdYyllVijz00NR9b27KbmTsdGrqefurSpG1axZdvfxudjtdnM8/23vk8NZkZs9+KN4h+Ss9RW2nqBT1es6d3RPeO/ED68puQdoZVaX8WTB/VrwTzpzemR3QaDp1vGh1VJUgUhuu9V3uC8v0CgAAoGmqSgAAAEAJqSoBAABVNe6q0pGb32TLSHkSHpjdWnXTUFUpmDx5UqPz0Ts19bxTVaVgw5NLs9uZUFmyZE68N/JXerIpajtFZRyv58a1o8k6R2Thwt51axc9vWn56tUL58yZkbrbUnYj0s6oKuWPqlLOqCoBAADQaqpKAJCHD9MBAGgzVSUAAKCqxl1VynaQ8ie7teomVVX6+uLBKJcuvvPR7189dHDLxqeWpXoUc+bMaOiuQV9fOnjq5I4o5798KzugRWlRVenCV/vjvfT5Z3vfO/riKzvXz5gxLTkmOHzo+eymJk7GUekZMUVtp6iM4/U8s2lF/JBg+bJ52UbHjWtH33pz07y5M6Mx2Y1IO5OsKj28sPfc2T118+Xn+7LbmQgpvKrUqeNFq6OqBACU3/37Pw0O7g7L9AoAKkJVCQDycMQEoFiuqkFdqkoAAEBVNVpV+rf/+o9sASl/UpuqdJJVpUmTJmUHhJw7u3vWrOnxsGDnjseyw8qWFlWVbt86nh1zpXZo3dpf3Ymlt3d6dtjEyTgqPSOmqO0UlUZfz50fTj/00NT4IUsfmfvdtyeyw+LBBw88t2rlguwqaWeSVaXly+ZlB0icwqtK3RpVJQCg/IaG+gcGesIyvQKAijDxGgDycMQEoFiuqkFdqkoAAEBVNVRVuvPjx5evfxz9d7aAlD/RFsKmfvwx/RSVS56qUsiRw1vjYcH6xxZnx5Qt7awqhVy9/G5v70PJkV9fPJgdNkHSaKVntBS1naLS6Ov56PevxuODr76YoPfeqVZUlfJHVSlnVJUgUhuu9V3uC8v0CgBKwOe/AlSdidcAkIcjJgDFclUN6lJVAgAAqip/Velf73708Zdnv75aWFUpbCpsMGw2+1wVSs6qUsi8uTPjkfPnz8oOiHL3zpmTx7cfP7ZtxHzx+ZvZh9TN7VvHPzjzyr43Nz2/ZdWqlQvCK1myZM7j65f0vbjmzO9GnRw/YlXpww92PffMipUrFoR/wuJFczY+tWzP7g21SwPZh8fJWVUKCZtKjjxxfFt2TMgfzu/f+8bGzc+tXLducfiHzJ074+GFveElbdy47NDBLVe+OZx9yIi5dfPYwQObo7x39MX462FfhX9j2FHh3xi2vHbNorCjxijJFPV6kmm00jNamt/OV1+8dfjQ89teWhv2w/x5M5cunRd2Tvienju7Ozu4bhp9Pa+/9uD91dv7UHbA+HL96tHwbnpt1xMbnly6ZPGc8KrCT/iuVx4/9l7f1cvvZscnc/HC20cOb41y7uye7IAo33x9KB724Zld2QFxivo5jDO+93sqzXzfC6kqFbWfz3/5Vrx7P/7wteiL4/g9ls049nN4hfGLiTJjxrR4X4UHptZGCb9hspuKUuzxopn3Rev2cxRVJYiYCAIAAK3jfBsA8nDEBABoM1UlAACgqvJXlb7649nT//JJsVWlsMGw2exzjZbaj+8cuf7snsv/9PLX/7D7m7WHrm+68P2b//avH2ZHti35q0rJ6fth5K2bx7JjQq58czgelrVx47LsQ8bOB2demZ+4cUfWokWz97/1dPaBqarS9atH1q1bnHjcA3PmzIjnpmeTv6p06sSO5Mg9uzck1/743altL60Nr3bSpOSotOnTp7666/Hvvj2R3X4q587uiR81Y8a0e7+0I5Yvn5/Y2AOTJ0/a+vzqlr6eZBqt9IyWZrYTvlPhnzzGv+75zata/e/qe3FNPH7hgt7sgHHko9+/OnfujHizKb2900+fejn7qDgjVviyOXzo+XjY0qVj1XWa/DlMZdzv9zjNf98LqSoVtZ+L+j2Wyvj282hPPbZ9ezdmX0CUAo8Xxb4vitrPcVSVIGIiCAAAtI7zbQDIwxETAKDNVJUAAICqyllV+uGHj3937pNWVJXCZr///q/bHDuf3d798tf/kM3pm/ULD61L/qrS+scezNueNKnn5vX3smPuFTr1/NbNYy9sfXTSGJ2D/zJt2pTsw5NTz8OLX7zoQckka+rUyWc/ej27kXuNVJWSnY2eX+4xklx788b7ybVjW7164RhPlH26GTOmffn5vjFm6gdhD7T09STTaKVntIx7O5+e61+0aHb82NEsWTwn7Lfsw0dLo68n+UM4Zcrka1eOZMc0lDf6nwrbibc5osmTJ72yc/3dO2eyD7+XqWRkB0SpW6GJ0+TPYZwm3+9RCvm+l7aq1MzvsTjN7OfR2jtja0NVqdj3RSH7ORVVJYiYCAIAAK3jfBsA8nDEBABoM1UlAACgqnJWlT77w889pbpVpc1f/+mf3v/d6n3v/PbV/tXvvPtP751+9tK17LBoC1FVKSRsPPuMqQzePb2rtvrlr/9hz+V1H9zcfvbbV8Iy/HfUVvrT4NHsQ9qT/FWlhxf2xiN7e6dnB0S5fvXI5Mk/T4OPk5R/6nnIipFuzBKeevny+fPnz0pOtc9Oqb/366nnSVOmTF4wf9aMGdNSXx+tTpC/qnTk8NbkyFd2rk+uzVaDpk79+ZWsWrlgyZI5M2dOT619ZtOK7FMkk6qILF82L/HoEdStKjX5epJptNIzWsa3nbMfvx7+LfEDI7NnPxR+oubNnZkqaYR/8ve3T2Y3MmIafT3Hj21LPFXPpo3Ls2Py5+39zyS31vPLeza8F0LCmy61avdrT2a3cK+4Ck2cJn8O4zT5fr9X3Pe9tFWlpEZ/j8VpZj8/vWl5eMZkEtv4+RdIam2UQwe3ZF9GlEKOF4W/L5LGvZ9TUVWCiIkgAADQOrXhWjjZDsv0CgAgwRUqAIA2U1UCAACqKk9V6fvvP4o6RWNUlZ69eHXpjld7f7N45sLfJNP7d4sf2frSsxe+GaOqFBKeIvu8yXz9w9tRK+naj4fiL4b/jr745Xf92Ye0JzmrSmc/fC0553vF8vnZMaNl1yuPxw/MOfU85OCB5+JH9fxyQ4xdO9d/8/WDvXfr5rEzp3cuXfpzLyI7pf7eSFPPp0+femhgS9w1OnVix6xZDwo54Sn+cH5/djv5q0pbNq9KjjxxfFtybVwNmj9/1p7dG85/+Vbq/h5HDm9dMH9W/PApUyZfuvhO9lnipG7iFFu9auHAO5s/Pdf/43enLl44EF7GUxuWhW/uaFWlol5PMo1WekbL+LazcsWC+FHBmkcfvvDVg+9s+Cl6fP2S5IBXdz2e3ciIafT1hD2WasgsXzbvzO92ZkfWTfhuzps7M7mpvhfXXL/619s03bz+XvhXJJ8q/GyHb3F2O0VVaOI0+XMYpfn3+73ivu/JqlLYjTu2rRs7I1ZxitrPRf0ei1LIfk4m+SsiPDA7oNE0erxoxfsi0sx+zkZVCSImggAAAADQWa5QAQC0maoSAABQVXmqSn+8/KBTNGJV6alPL/y3f1idKiklM+e3//3ZC5fHqCqFp8g+bzKff7cnaiX9679+EH8x/Hf0xU++3ZV9SHuSp6p0pXZo0aLZ8bDg4IHnssNGS6NTz+/9fKuNo729DyaFh/8erd1x986Z/j0b5syZkV2Vmno+ffrUT8+lK2Eff/hacsy+vRuz28lZVfrwzK5kmyv8941rv7pZ1ve3T27auPz4+y9lHxvnwlf7p02bEm9kx/Z12TFxshWRKVMmh29oqnEUJfxL9+zekPxK4a8nmUYrPaNlHNt599BY97aKs61vbTwm/Bsv/eFAdkw243g9zz2zIn5IrLf3ofD1Qwe3XLzwdvYhIyZ165jwjR7fmKIqNHGa/Dm8V9D7vcDve7KqlMeqlQuyGylqPxf1e+xeQfs5lY5XlfL8zOcZU+B+HjGqShAxEQSgzO7f/2lwcHdYplcAAAB0EVeoACiWq2pQl6oSAABQVXmqSme//GuhaMSq0nN/uPLf/vuqqJL08MZn//nkh89evPrzfZYufPPPpz76+5d29v7d4t/u2jP2XZXCU2SfN5lPvt0VtZJSX4++ePbbV7IPaU+SVaXg1s1jUW7eeP/8l2+dOrF958vrH3poanLMI0vmZrczRhqdeh7S9+KaxBP2HDm8NTsmmRFLEamp5y9sfTQ7JmT5sp/vHxLZvm2EKk6eqtLBA5uTN9zoGaV1kCfJf/ujqx/ODoiTrYiMdpeYZpL/9SQzjkrPiGl0O+G7M3fujPghY7zg7749kWxZjNZsSaXR1xNy7cqR3t6H4kdlLV40J3zjkvf/GTHzE682vPLsgCjJn+eZM6d/f/tkakBRFZo4zf8cNv9+L/b7Xuaq0rh/j90rYj9n0/GqUiveFz3N7ecRo6oEERNBAMpsaKh/YKAnLNMrAAAAuogrVAAUy1U1qEtVCQAAqKq6VaXBOx/FhaIRq0p//9LOmQt/838sXLRy/6FkHynOxnPnt165NXZVKSQ8UfbZ43zy7auVqCrV9di6xV9fOpjdzhhpdOp5yMMLe+OHLFk8JzsgT5JTzydNmjTi7VPu/Xr6/ogvL1VVem3XE2HLUXZsX7fhyaULE682MmXK5I8/fC27qTwZeGdzvJ2w5eyAOKmKyKxZ02/eeD87rMnkfz3JjKPSM2Ia3c6Z3+2Mxweff7o3OyZO8ju7/rHF2QHZNPp6olz4an+y4TCi8CO6bt3i2qWB7MNDrl5+Nzl492tPZsdEObD/ueTILz5L74GiKjRxmv85bP79Xuz3vbRVpWZ+j90rYj9n09mqUoveF03u5xGjqgQRE0EAysznvwJUXW24Fk62wzK9AgBIcIUKgGK5qgZ1qSoBAABVVbeqdPu7XxWKUlWlZy9e7V20eObC3/zfm1/MlpRGS7SFVFUpPFH22eOc+/Vdla78eOjst6+ERF88dG1T9L8jJgzObrCo5K8qzZ790MA7m7NbqJuGpp7f++VWHtOmTYkfcujgluyYPElOPQ8vPjsgSv+eDfGw1asXZgekqkp5jDFjPpk7P5y+eOHtD868cuy9vjiv7XrwHZkzZ0b2UXFSFZHwwOyYhtLk60lmfJWebBrdzv63no7HB6dO7vg5J+Jsj3Ly+M9JfmfnzZ2Z3Vo2jb6eOGHfhqdbsvjBw0fU2zv9xPFt2Yef/ej15LBLF9/Jjoly6+axKVMmxyOzWyuqQhOnyZ/DQt7vxX7fk1WlMODokRfGzoi9xKL2c1G/xwrZz9l0tqrUovdFM/t5tKgqQcREEAAAaB3n2wCQh3IvAECbqSoBAABVVbeqdOPWWFWlNUdOzlz4m5DHPziXrSSNlmgLqapSeKLss8f55NavqkpxSSlPWnrPpfxVpd2vP/n97ZPZLdRNQ1PP7/1yC5rE0/Z8eq4/OyZPklPPR+wARDl0cEs8bOWKEe6O0lBVae7cGe+8/Vx2I8mc/fj1J554ZM6cGZMnT0o//tdmzZqefXicVEXk5PHt2TF5UtTrSWbclZ5UGt1O8p4nDZk0aVKeewE1+nqyOfvha9u3rVu+fP7UqQ+KE0lTpkzO3vLlyOGt8YDwwOxmk5k9+6F4cPjpTa0tqkITp8mfw0Le78V+35NVpeXLxvq3j5Gi9nNRv8cK2c/ZdLaq1KL3RTP7ebSoKkHE1EkAAGgd59sAAABACakqAQAAVVW3qnT5+tkxqkor3ng7qio99/X1bCVptERbSFWVwhNlnz1O3E1K/W+etLOqtG7d4iirVy9cMH/WpEm/6q4sWjT75vX3shsZOw1NPQ85cXxbPD48f7ZIkDPJqefrH1ucHRClblUgT1Vp5szpS5bMeaP/qbHbXJ9/uvfR1Q//eqeOpbd3rGpQqiLy1RdvZceMnWJfTzLNV3qiNLqd8I2OxzfqD+f3ZzeYSqOvZ4yEH5XTp15+4fnV8+bOTLyKn61dsyg1eM/uB/dyqXtvq+S9m7a9tDa1tqgKTZwmfw4Leb8X+30vbVWpmd9jheznbDpbVWrR+6KZ/TxaVJUgYuokAAC0jvNtAAAAoIRUlQAAgKoqqqr07KVr2UrSaIm20FBVKZVyVpUmTZqUWhtVWeIBwcan6swdz6ahqeche9/YGI+fOXNadkDOFFUVSFWVjhze+v7RvijH3us7d3b3jWtHs4/K5tIfDsyZMyO5qbpmzBjrn5+siEyePOnH705lx4yRwl9PMkVVehrdzqJFs+PxDZk0qSfskOwGU2n09eTJ3Ttnws/qtGlTEi+n5+MPX0uOeWHro/Gq8BqyG0lmzaMP3rNPbUi/44p6X8Rp8uewkPd7sd/30laVmtlOIfs5m85Wlcr8vkhFVQkiteFa3+W+sEyvAAAAmqaqBAAAAJSQqhIAAFBVdatKN279qlCUqiqtOXIyqir986m/fiVPoi2kqkrhibLPPlqqUlUKuX3r+PJl8+IxwelTL2eHjZGGpp6HvL3/mXj8tGlTsgNypqip56mqUtgh2TF5snLFguR2enun79i+LuzMLz5/8+aN9+/eORPlww92xWPGrgYlKyJjjxwxhb+eZIqq9DS6naWPzI3HP/nEI999eyJ/slvLptHXkz/JH/tg/76nk2u39a2NVy1aNDv78GRWrXzwnX1m04rU2qLeF3Ga/Dks5P1e7Pe9K6tKheznbDpbVSrz+yIVVSUAAABaTVUJAPLwYToAAG2mqgQAAFRV3arS7e/Gqio9e/Fq76LFMxf+5uGnn81WkkZLtIVUVSk8UfbZR0uFqkohFy8cSN7yZekjc7NjxkhDU89DPjjzSjw++ObrQ9kxeVLU1PNCqkpffbFv0qQHG3ls3eLvb5/MDrv369czdvGjmYpIK15PMkVVehrdzoYNS+Pxq1cvzA5oMo2+noYyf97MeON9L65Jrkr+EM6aNT372GQeXtgbD35l5/rU2pzvi/1vPR0PG/F9EaeZn8N7Bb3fi/2+t7OqVHc/59xO3d9jheznbDpbVWr/+6Lufh4tqkoAQPndv//T4ODusEyvAKAiVJUAIA9HTACK5aoa1KWqBAAAVFXdqtLgnY/GqCqFPLJ1W3RjpZV79mVbSSH/eODI+uMf1K0qhSfKPvtoqVZVKWT7tnXxsODdQ1uzY0ZLQ1PPQ67UDiWequfDD3Zlx+RJUVPPC6kqvbrrwU6YO3fGzRvvZ8dESe6usYsfzVREWvF6kklWet47+mJ2QM40up1Xdq6Px9e9y8o40ujraSjr1j5oyKxfvyS56vj7L8Wrwvv0zg+nsw+PM3PmtHjwO28/l1r75t6N8dr1jy3OPjzKju0P3vIjvi/iNPNzeK+g93ux3/dCqkpF7eeifo8Vsp+z6WxVqcD3RVH7ebSoKgEA5Tc01D8w0BOW6RUAVISJ1wCQhyMmAMVyVQ3qUlUCAACqqm5VKeTsl2NVlZ698M2c366M2kp/98TT//Te6ae/+OPWK7c2fn5x7eFjC594Knz9/1z0yIYPPxujqhSeIvu8Y6RyVaUb147OnDk9Hvnwwt67d85kh42YhqaeR5kx48Gc8ld3PZ4dkCdFTT0vpKr0zNMr4i08tWGsnbDhyQf3hxm7+NFMRaQVryeZlSsWxI/a/9bT2QE50+h2UveAGu1WUeNOo6+noax59OF445s2Lk+u+vzTvfGq4NzZ3dmHR7l44UDyflnZ9sjBA8/Fa0f8gY8SXkCeYfea+zmM0vz7vdjveyFVpaL2c1G/x+4VsZ+zSVaVTh7fnh3QaBo6XhT4vihwP48YVSWI1IZrfZf7wjK9AoAS8PmvAFVn4jUA5OGICUCxXFWDulSVAACAqspTVfrj5QedomxVKeSpT76M20oj5v/6x3XPfFkbo6oUniL7vGOkclWle7+eQd7TyI2VGpp6HmXp0nnxQ2bOnHb96tHsmLopaup5IVWlZOHnhedXZwdEufDV/ilTJscjxy5+NFMRacXrSSZZwNixfV12QM40up1zZ3fH44M3+p/Kjmkmjb6ehtLb+1C88T27NyRXhZ+6ZNFiy+ZV2YdH2bnjsQfjenouXng7NeDUyR3x2jlzZmS3EPLjd6fCqnjYiO+LOM38HEZp/v1e7Pe9kKpSUfu5qN9j94rYz9mE/RNv88D+9K2KxpGGjhcFvi8K3M8jRlUJIiaCAABA6zjfBoA8HDEBANpMVQkAAKiqPFWl77//aOyq0i/3Vrr8yNZtvYsWp0pKs//+t8t379tc+1NycLSFZFUpPEX2ecdIFatK164ceeihqfHgRQ/Pzo4ZMQ1NPY/yztsPbkgSvLzjseyYZM6d3ZP9YlFTzwupKu3Yvi7ewupVC7MDooT9k3iqOsWPZioirXg9ybyyc338qIULe7MDcmYc21mxfH78kFmzpt+8/l52TCrhZzv7xRHT6Ou5eOHAqpUL3j/al12Vypt7N8ZbDk6dSN+gJmwnXhveiTdvvJ/dyJ0fTierL4sXzcmO+eLzN+MBwYcf7MqOSb0BR3xfxGnm5zBKIe/3Ar/vhVSVitrPRf0eu5d5uvHt51SSpcfnt4zaFMqfRo8XRb0vCtzPI0ZVCSImggAAQOs43waAPBwxAQDaTFUJAACoqjxVpZDP/lCnqvTXwtKla2uOnFzRv3/57n3/eODI42c+2XrlVnZYtIW4qhQ2nn3GsVPFqlJI34tr4sE9uW+s1OjU8yjJm3WEFxae+sfvTmWHXbr4zmPrFk+bNiW7qqip54VUlcK+Sm4k212588PpHdvWTUreIqRe8aOZikgrXk8yx97rSz5w18712TF5Mo7tnDu7e/LkBy97xfL5X36+LzssyvFj29atXRTG/+H8/uzabBp9PZ/9yxvRyCVL5hw98kJ2QJTwQ5i8e1X472++PpQac+Z3O+MBPb8UzG5c+9Vdcb779sT69UuSY44cHuEdeuvmseRzrXn04e9vn0wOOPvR67NnP7i/U88o74s4zfwcxmn+/V7g972QqlJR+7mo32NRmt/PqWx7aW28wTD+i8/2Zsc0lEaPF0W9L4rdz9moKkHERBAAAGgd59sAkIcjJgBAm6kqAQAAVZWzqvTDDx//7lz9qlLORFuIqkphs2Hj2WccOxWtKn196eDUqQ8m3y9alL6x0ldf7DtxfFsqydturFyxIDtgxHt3nP3o9VRPZunSeW+9uemj379688b7n3+2991DW7e9tDa60dOIU+qLmnpeSFXp4oW3k72FsBt3bFt34av9d++cCcsjh7cm7w0SG7v40UxFpBWvJ5UlS+YkH/vIkrnPb14VniVK3ZJPM9vZsnlV8iHhx2P7tnXH3usL/7RbN4+dO7s7fNN3bF83f/6seExYld3OiGno9cRVpcjCBb1PbVj26q7H3zv6YvgJDy/pjf6nFi/61QaDXa88nn3ee7++gUzPL/Wngwc2n//yrfDdPDSwJXlboZ5Rbh0TJbyG5Mjly+a9f7QvvKdOn9rxys71YXcl1/aM8r6I08zPYZzm3+/3ivu+F1JVulfQfi7q91iUQvZzMqdPvZzcWvitsmnj8nBYOXjguYF3NkcZsQ92r7jjRSHvi2L3czaqShAxEQQAAFqnNlwLJ9thmV4BACS4QgUA0GaqSgAAQFXlrCqFfPXHs62oKoXNZp+rbipaVQrZ/MzKeHxP5vYUz2xakVyb08oVC7JPFPLyjsdSs+pHM+KU+qKmnhdSVQp5bdeDXT2G3t4HN1oZu/jRZEWk8NeTysnj2xObScvzwzbu7Vy9/O6iRbPTQ8c0YmVlxDT0elJVpTzC2+HunTPZ5w35/Zld2X7LiKZMmXz8/ZeyW4hy9uPX0w/IiMoqkRHfF3Ga/DmM0+T7/V5x3/eiqkqF7Oeifo/FaX4/p7Ju3eL0I39t396N2UfdK+54Ucj7ovD9nIqqEkRMBAEAAACgs1yhAgBoM1UlAACgqvJXlf717kcff3m22KpS2GDYbPa5KpRGq0pfffHW5MkPprmn7lBR1NTzOKdO7Jg7d0b6ARnTp0/NPraoqedFVZXu/HB69eqFyU1lLVo0O/yT4/8du/jRZEWk8NeTTdi3ySZGUp4ftma28/3tkzu2r0veOWoMYSMXL7yd3choyf96vvpiX87XEFmz5uFLfziQfcY44Zu+IHFToBHNmTPj92d2ZR+bzObnftU5THlkydz9+56O/3fE90WcJn8Ok2nm/R6lkO97UVWle0Xs56J+jyXT/H5O5vyXb43dEGt1VeleEe+LVuznZFSVIGIiCECZ3b//0+Dg7rBMrwAAAOgirlABUCxX1aAuVSUAAKCq8leVQu78+PHl64VVlcKmwgazz1Kt9O/ZEE+8njp1cnZANhueXBo/JPj4w9fiVVs2r0quymn16oXZZ4lz49rRzc+tnDlzWvphv5g5c/q2l9aO2DfY+8bGeNjGp5ZlB0Q5euSFeNiIk+AP7H8mHjB58qTvvj2RHZMzd++ceevNTTNmjPBveeihqS88v/r2reOff7Y3/mJv7/TsRuLkHzlain09I+bCV/uf37JqxfL5qWfJ+cPW5HbOfvT68mXzRiuuhO/mqpUL9vY/NXY7aMTkfz3Xrx49dHDL4+uXTJ8+crspEn72fn8m1/3Twjti48ZlI95GJjx7eKIr3xzOPiqbfXs3ZvdM2Gx4u926eazu+yJOkz8hqYz7/Z5Mk9/39euXxIPDyOyAhtLkfi7q91gqheznON/fPhl+Tz7x+CPz5s4MvzpSd216e/8z2YfcK/p40eT7okX7OY6qEkRMBAEos6Gh/oGBnrBMrwAAAOgirlABUCxX1aAuVSUAAKCqGqoqhfzbf/1HtoCUP6lNSXvy9cWDJ45v27N7w/ObV72847F33n7u92deaaY41Klcv3r0zOmd+97c9MLWR0N2v/bk0XdfuHXzWHZke1K211N47vxw+vNP9757aOuO7eue37Lq1V2PD7yzOfyTr15+Nzu4dbl96/jZj15/7+iLb+7duO2lteHHOLySQwe3fHhmV+3SQHb82An/qM/+5Y3w8G19a/teXHPwwHP/8smeH787lR05Rq58c/jUie3hO75l86qdL68PGxm7ztHONP9+L8n3/V637+dSpZD3RSuiqgQRE0EAysznvwJUXW24Fk62wzK9AgBIcIUKgGK5qgZ1qSoBAABV1WhVKU62gJQ/2a2JiIiIjBhVJYiYCAIAAK3jfBsA8lDuBQBoM1UlAACgqsZdVTpy85tsBylPwgOzWxMREREZMapKEDF1EgAAWsf5NgAAAFBCqkoAAEBVjbuqFHJ98NN9f7qSLSONljA4PCS7HREREZHRoqoEEVMnAQCgdZxvAwAAACWkqgQAAFRVM1WlKNcGPz1z+9Kr125ku0lRwqow4JqSkoiIiDQeVSWI1IZrfZf7wjK9AgAAaJqqEgAAAFBCqkoAAEBVNV9VivPnP388ePfsj3fP/nD3k5DwH+F/wxezI0VERERyRlUJAACAVlNVAoA8fJgOAECbqSoBAABVVWBVSURERKTwqCoBAOV3//5Pg4O7wzK9AoCKUFUCgDwcMQEolqtqUJeqEgAAUFWqSiIiIlLmqCoBAOU3NNQ/MNATlukVAFSEidcAkIcjJgDFclUN6lJVAgAAqkpVSURERMocVSWI1IZrfZf7wjK9AoAS8PmvAFVn4jUA5OGICUCxXFWDulSVAACAqlJVEhERkTJHVQkiJoIAAEDrON8GgDwcMQEA2kxVCQAAqCpVJRERESlzVJUgYiIIAAC0jvNtAMjDERMAoM1UlQAAgKpSVRIREZEyR1UJIiaCAABA6zjfBoA8HDEBANpMVQkAAKgqVSUREREpc1SVIGIiCAAAtE5tuBZOtsMyvQIASHCFCgCgzVSVAACAqlJVEhERkTJHVQkiJoIAAAAA0FmuUAEAtJmqEgAAUFWqSiIiIlLmqCpBxEQQgDK7f/+nwcHdYZleAQAA0EVcoQKgWK6qQV2qSgAAQFWpKomIiEiZo6oEERNBAMpsaKh/YKAnLNMrAAAAuogrVAAUy1U1qEtVCQAAqCpVJRERESlzVJUgYiIIQJn5/FeAqqsN18LJdlimVwAACa5QAVAsV9WgLlUlAACgqlSVREREpMxRVYKIiSAAANA6zrcBIA/lXgCANlNVAgAAqkpVSURERMocVSWImDoJAACt43wbAAAAKCFVJQAAoKpUlURERKTMUVWCiKmTAADQOs63AQAAgBJSVQIAAKoqqioBAJSZqhLUhmt9l/vCMr0CAABomqoSAAAAUEKqSgAAQFWpKgEA5aeqBAAAQOuoKgFAHj5MBwCgzVSVAAAAAP7q8OEf/tf/+s/0VwEAALrU/fs/DQ7uDsv0CgAqQlUJAPJwxASgWK6qQV2qSgAA/z97d/cbxZ3gC79vzn+w8qWvuOEGiQskJI7Q+CCOeCIUeRkOKJsMBxZvkiVsEsRLAgnEAQYIcRxCCMEQSHgd8kaYACEEBvOagUAS7Myspd1H53Czl+hcrPTI54rn59RQLqrs7rK77ML056OvStD1q+ruesFWq7/8AAAG/Od//t+/+7uOrVuvpVcAAAA8pnp7O7u6KmGZXgHABOGL1wCQh5+YABTLp2pQk6oSAAAAwIBt265XKhv/7u86TKwEAAXqvtvdfrk9LNMrAHgE+P9fASY6X7wGgDz8xASgWD5Vg5pUlQAAAAD+NqVSpbIxxMRKAFAgXwQBAICx4/dtAMjDT0wAgHGmqgQAAADwtymVophYCQAK5IsgAAAwdvy+DQB5+IkJADDOVJUAAACARpecUsnESgBQLF8EAQCAseP3bQDIw09MAIBxpqoEAAAANLrklEomVgKAYvkiCAAAjJ3uu93hl+2wTK8AABJ8QgUAMM5UlQAAAICGlp1SycRKAFAgXwQBAAAAoFw+oQIAGGeqSgAAAEBDy06pFMXESgBQCF8EAXiU9fff6+npCMv0CgAAgMeIT6gAKJZP1aAmVSUAAACgcQ03pVIUEysBQP18EQTgUdbb29nVVQnL9AoAAIDHiE+oACiWT9WgJlUlAAAAoHENN6VSFBMrAUD9fBEE4FHm/38FmOi673aHX7bDMr0CAEjwCRUAxfKpGtSkqgQAAAA0qOpTKkUxsRIA1MkXQQAAYOz4fRsA8lDuBQAYZ6pKAAAAQIOqPqVSFBMrAUCdfHUSAADGjt+3AQAAgEeQqhIAAADQiPJMqRTFxEoAUA9fnQQAgLHj920AAADgEaSqBAAAADSiPFMqRTGxEgDUo/tud/vl9rBMrwAAAOqmqgQAAAA8glSVAAAAgIaTf0qlKCZWAgAAAOARpKoEAHn4z3QAAMaZqhIAAADQcPJPqRTFxEoAAMBjqb//Xk9PR1imVwAwQagqAUAefmICUCyfqkFNqkoAAABAYxnplEpRTKwEAAA8fnp7O7u6KmGZXgHABOGL1wCQh5+YABTLp2pQk6oSAAAA0FhGOqVSFBMrAcDodN/tbr/cHpbpFQA8Avz/rwATnS9eA0AefmICUCyfqkFNqkoAAABAAxndlEpRTKwEAKPgiyAAADB2/L4NAHn4iQkAMM5UlQAAAIAGMroplaKYWAkARsEXQQAAYOz4fRsA8vATEwBgnKkqAQAAAI2inimVophYCQBGyhdBAABg7Ph9GwDy8BMTAGCcqSoBAAAAjaKeKZWimFgJAEbKF0EAAGDsdN/tDr9sh2V6BQCQ4BMqAIBxpqoEAAAANIT6p1SKYmIlABgRXwQBAAAAoFw+oQIAGGeqSgAAAAAD2tsvVyobwzK9AgCogy+CADzK+vvv9fR0hGV6BQAAwGPEJ1QAFMunalCTqhIAAADAAFUlABgLvggC8Cjr7e3s6qqEZXoFAADAY8QnVAAUy6dqUJOqEgAAAMAAVSUAGAu+CALwKPP/vwJMdN13u8Mv22GZXgEAJPiECoBi+VQNalJVAgAAABigqgQAY8EXQQAAYOz4fRsA8lDuBQAYZ6pKAAAAAANUlQBgLPjqJAAAjB2/bwMAAACPIFUlAAAAgAGqSgAwFnx1EgAAxo7ftwEAAIBHkKoSAAAAwABVJQAYC913u9svt4dlegUAAFA3VSUAAADgEaSqBAAAADBAVQkAAACAiUVVCQDy8J/pAACMM1UlAAAAgAGqSgAAQKPp77/X09MRlukVAEwQqkoAkIefmAAUy6dqUJOqEgAAAMAAVSUAAKDR9PZ2dnVVwjK9AoAJwhevASAPPzEBKJZP1aAmVSUAAACAAapKADAWuu92t19uD8v0CgAeAf7/V4CJzhevASAPPzEBKJZP1aAmVSUAAACAAapKADAWfBEEAADGjt+3ASAPPzEBAMaZqhIAAADAAFUlABgLvggCAABjx+/bAJCHn5gAAONMVQkAAABggKoSAIwFXwQBAICx4/dtAMjDT0wAgHGmqgQAAAAwQFUJAMaCL4IAAMDY6b7bHX7ZDsv0CgAgwSdUAADjTFUJAAAAYICqEgCMheiLIL85+JvwhzjJb1JG362sHuOrx/jqMb56Hr/xyUeg0WTvgtHdR9VjfPUYXz3GV0894wGAKtpVlQAAxpeqEgAAAMCAdlUlABgD0RdBUkl+L2TIAcYbXyXGV4/xyUeoqb//Xk9PR1imVzAxZe+C0d1H1WN89RhfPcZXTz3jAYAqoh+sfnQCUBSfqkFNlfQDAAAAAA2pXVUJAMbAkP8ZfD3/W7zx2RhfPcZXz+M0vt03z0aut7ezq6sSlukVTEzZu2Ck95Hx2RhfPcZXz3iOBwCqaM/8qgwA9fCpGtSkqgQAAAAwoF1VCQAAJjLfPBsF///rY8ZdAAAAQ/KrMgDF8qka1KSqBAAAADBAVQkAACY03zwDdwEAAAwpmq7QhIQAAONGVQkAAABggKoSAABMaEoa4C4AAAAAAB4FqkoAAAAAA1SVAABgQlPSAHcBAAAAAPAoUFUCAAAAGKCqBAAAE5qSBrgLAAAAAIBHgaoSAAAAwABVJQAAmNCUNMBdAAAAQ+q+2x1+Tw7L9AoAAMaGqhIAAADAAFUlAACY0JQ0RqG//15PT0dYplcwMbkLAABgSH5VBqBYPlWDmlSVAAAAAAaoKgEAwITmm2ej0Nvb2dVVCcv0CiYmdwEAAAzJr8oAFMunalCTqhIAAADAAFUlAACY0HzzbBT8/6+PGXcBAAAMya/KABTLp2pQk6oSAAAAwABVJQAAmNC673a3X24Py/QKaBjuAgAAGJKqEgDAOFNVAgAAABigqgQAAAAAAPD4UVUCABhnqkoAAAAAA1SVAAAAAAAAHj+qSgAA40xVCQAAAGCAqhIAAAAAAMDjR1UJAGCcqSoBAAAADFBVAgCACa37bnf75fawTK+AhuEuAACAIakqAQCMM1UlAAAAgAGqSgAAMKH55tko9Pff6+npCMv0CiYmdwEAAAzJr8oAFMunalCTqhIAAADAAFUlAACY0HzzbBR6ezu7uiphmV7BxOQuAACAIflVGYBi+VQNalJVAgAAABigqgQAABOab56Ngv//9THjLgAAgCH5VRmAYvlUDWpSVQIAAAAYEFWVfvObg+EPIiIiIiKjS3f33fQvmoyXdt88q9tw37EY6eOUxV1Quu673amfDOGRKmuzMb56jK8e46vH+OoxvnqMrx7jq8f46hmf8dHI5LYAAIwpVSUAAACAAe2/VpVEREREROpJu1k6y9OupFG33t7Orq5KWNb5OGVxF5QuOgXJJE9Hdm02xleP8dVjfPUYXz3GV4/x1WN89RhfPeM5HgCAcVNJPwAAAADQkLq777a3Z/63PRERERGRfPnNbw5WVJVK1f7rd9TafQutDsPNkjTSxymLu6B00Sn4zcHfxD8fRve//hs/XIyvHuOrx/jqMb56jK8e46vH+OoZz/EAAIwbVSUAAAAAAACoV/uvs3S2qyqVp11Jo2yaS6VzF5TOKQAAAACA+6pKAAAAAAAAUD9VpdJpCJSut7ezq6sSlukVjBd3QemcAgAAAAC4r6oEAAAAAAAA9VNVKp2GQOnMqlQ6d0HpnAIAAABoBD4Hg5pUlQAAAAAAAKBeqkql0xAAd0HpnAIAAABoBGYXh5pUlQAAAAAAAKBeqkql0xAAd0HpnAIAAABoBGZVgppUlQAAAAAAAKBeqkql677b3X65PSzTK6BhuAtK5xQAAAAAwH1VJQAAAAAAAKifqhIAAAAAAMB9VSUAAAAAAACon6oSAAAAAADAfVUlAAAAAAAAqJ+qEvT33+vp6QjL9AoAAAAAABqJqhIAAAAAAADUS1WpdN13u9svt4dlegXjpbe3s6urEpbpFYwXd0HpnAIAAAAAuK+qBAAAAAAAAPVTVSpd++X2ysZKWKZXMF7MqlQ6d0HpnAIAAABoBD4Hg5pUlQAAAAAAAKBeqkql0xAAd0HpnAIAAABoBGYXh5pUlQAAAAAAAKBeqkql0xAAd0HpnAIAAABoBGZVgppUlQAAAAAAAKBeqkql0xAAd0HpnAIAAAAAuK+qBAAAAAAAAPVTVSqdhgC4C0rnFAAAAADAfVUlAAAAAAAAqJ+qUuk0BMBdUDqnAAAAAADuqyoBAAAAAABA/VSVSqchULr+/ns9PR1hmV7BeHEXlM4pAAAAAID7qkoAAAAAAABQP1Wl0mkIlK63t7OrqxKW6RWMF3dB6ZwCAAAAALivqgQAAAAAAAD1U1UqnYZA6cyqVDp3QemcAgAAAGgEPgeDmlSVAAAAAAAAoF6qSqXTEAB3QemcAgAAAGgEZheHmlSVAAAAAAAAoF6qSqXTEAB3QemcAgAAAGgEZlWCmlSVAAAAAAAAoF6qSqXrvtvdfrk9LNMroGG4C0rnFAAAAADAfVUlAAAAAAAAqJ+qEgAAAAAAwH1VJQAAAAAAAKifqhIAAAAAAMB9VSUAAAAAAACon6oS9Pff6+npCMv0CgAAAAAAGomqEgAAAAAAANRLVal03Xe72y+3h2V6BeOlt7ezq6sSlukVjBd3QemcAgAAAAC4r6oEAAAAAAAA9VNVKl375fbKxkpYplcwXsyqVDp3QemcAgAAAGgEPgeDmlSVAAAAAAAAoF6qSqXTEAB3QemcAgAAAGgEZheHmlSVAAAAAAAAoF6qSqXTEAB3QemcAgAAAGgEZlWCmlSVAAAAAAAAoF6qSqXTEAB3QemcAgAAAAC4r6oEAAAAAAAA9VNVKp2GALgLSucUAAAAAMB9VSUAAAAAAACon6pS6TQEwF1QOqcAAAAAAO6rKgEAAAAAAED9VJVKpyFQuv7+ez09HWGZXsF4cReUzikAAAAAgPuqSgAAAAAAAFA/VaXSaQiUrre3s6urEpbpFYwXd0HpnAIAAAAAuK+qBAAAAAAAAPVTVSqdhkDpzKpUOndB6ZwCAAAAaAQ+B4OaVJUAAAAAAACgXqpKpdMQAHdB6ZwCAAAAaARmF4eaVJUAAAAAAACgXqpKpdMQAHdB6ZwCAAAAaARmVYKaVJUAAAAAAACgXt3dd9vbL4dlegXjpftud/vl9rBMr4CG4S4onVMAAAAAAPdVlQAAAAAAAHgU/Nu//dslAKBs//Ef/5H+IQ0AAAAAI6GqBAAAAAAAQPlUlQDgUaCqBAAAAECdVJUAAAAAAAAoX1RV+n///WrfX78QERGR8U/0s1hVCQAAAIA6qSoBAAAAAABQPlUlERGRcqOqBAAAAEAhVJUAAAAAAAAon6qSiIhIuVFVAgAAgDz6++/19HSEZXoF8ICqEgAAAAAAAOVTVRIRESk3qkoAAACQR29vZ1dXJSzTK4AHVJUAAAAAAAAon6qSiIhIuVFVAgAAgDzMqgQ1qSoBAAAAAABQPlUlERGRcqOqBAAAAEAhVJUAAAAAAAAon6qSiIhIuVFVAgAAAKAQqkoAAAAAAACUT1VJRESk3KgqAQAAAFAIVSUAAAAAAADKp6okIiJSblSVAAAAACiEqhIAAAAAAADlU1USEREpN6pKAAAAABRCVQkAAAAAAIDyqSqJiIiUG1UlAAAAyKO//15PT0dYplcAD6gqAQAAAAAAUD5VJRERkXKjqgQAAAB59PZ2dnVVwjK9AnhAVQkAAAAAAIDyqSqJiIiUG1UlAAAAyMOsSlCTqhIAAAAAAADlU1USEREpN6pKAAAAABRCVQkAAAAAAIDyqSqJiIiUG1UlAAAAAAqhqgQAAAAAAED5VJVERETKjaoSAAAAAIVQVQIAAAAAAKB8qkoiIiLlRlUJAAAAgEKoKgEAAAAAAFA+VaVHJxvffH7SpObhcvTw5uwm+bNv7+vPPP1ElI7tL2cHjF02tj//xJwZUd7a9mJ2wGOWC+c/3Lpl+coVz4RDHb/xkNbWluzgvolzfH65c7z7Qtfpr3dcubQvu1ZE6omqEgAAAACFUFUCAAAAAACgfEVVlf761y97fjnx8y8nfvrlq5Dwh/DX8GB25OOXHZ0rV7z89Iiy7pUl2f28/trSyvA+OdCe3SR/tm19Md7VqlXPZAeMXcL7jZ/69XVLswNqZm/Xa/Gha3/jueyAVHbvWps82uPZ/+nsWDFt2uT4/SY1NVWy4/uKOD5jms8/3bZh/bNz585sbm6KX+eUKZNaW1tWr1r02fGt2U2kYbNm9aLsP3dRVq54ZvPGZXt2rw1X1I3vP8lu2+BRVQIAAIA8+vvv9fR0hGV6BfCAqhIAAAAAAADlq7OqdK3n6+O3Lrx17fv1V34YMmFVGBCGZbd9bPL8c/PjCkdOU6ZMyu5HVWm4vLZu8MjMnj09OyCZDz9Y29Q0WKqZPLn56JG6JqTKn4/2ro+fN2vCVZUunP/wpRefSryDobW2tpw7uyu7uTRgkrdeFdOnTwn/In1/7UB2Dw0bVSUAAADIo7e3s6urEpbpFcADqkoAAAAAAACUb9RVpes9X+/885VsN2m4hMHXH9PCUlFVpdOnduzftz6ZWbOmxZuoKkWqV5U+2rs+OfnPpEnNBz+u67jlz+0fDj8xZ0b81MHChbNfXL5w9apFUYacSquviOMzFjl5omP69CmJd1PNl59vz+5BGjA5q0qRGTOmunLiqCoBAABAHmZVgppUlQAAAAAAACjf6KpK+29cypaR8iRsmN3bRE9RVaVsFi6cHW+iqhSpUlU69MmbkyY1xyObm5s+2rs+O2yMcvTI5vipm5oq+StS9R+fwnPqZOeMGVPjVxUJx3PB/Nnh1S5aNHfatMnJVQonEmVEVaXKr7fzle692f00YFSVAAAAACiEqhIAAAAAAADlG11VKdtByp/s3iZ6klWlea0tJ0+8UzPfnN6Z3U82BVaVLl7Yc/TI5ijffvN+dsDYpf4qTp6q0rGjm6dMmRQPa2pq2r1rbXbY2GXX+2viZ29ra80OGC71H5/Cs2TJk/FLCqZPn/LxgTdufP9JcsypP767fPnCaICqkkRJVpU2vvn8xfN7olz4bveJL98++HH7GxueTfXcli1bkN1PA0ZVCQAAAIBCqCoBAAAAAABQvhFVlf71wR+yBaT8Se3qMUiyqrTomSeyA0adAqtKJab+Kk7NqtLnn26bOnWw/9DUVHlvx6rssDHNxjefj1/A66+N4G3Wf3yKzafHt8avJ2hpmfbHr97JDoty9PCmcJWe+uO72VXSgElWlba/9VJ2QEj3ha6WlsE5uyZNav7x1pHssEaLqhIAAAAAhVBVAgAAAAAAoHz5q0p3fv7y8vUvoz9nC0j5E+0h7Ornn9NPMUGjqlQ99VdxqleVTp7omD59SjwgeHv70B2JMc0rqxfHL2DL5heyA4ZL/cen2DzbNi9+PVOnTj57Zlzn4JIJnTxVpZDdu9bGw4ITX7ydHdNoUVUCAAAAoBCqSgAAAAAAAJQvZ1XpL7988eU3Jy5eLayqFHYVdhh2m32uCZdHsKr0y53jRw5tOnRw45A5c/q97CapfPvN+3t2r4vy5efbowc//3Tb2lcWL1n85Ny5MxfMn71q5TPvdKzovtCV3TyZnFWc48e2xM8Ycuni3nhVlarS6VM7Zs4cnKEl2LxpWXbn2Xz37a4d765at3bJsmULwnGeM2f6vNaW8NZWrXpm757Xrlzal90kmeTxiRJOffwalj0/P7U25KO967P76Svi+CRT5/v64rO34hcTrFm9KDtmpLl+9UC46rZveym804ULZodX9dJLT23b+uLBj9uvXv4oOz6ZAq/DOOHu2Lf39Q2vty1/4W+HKLyq556dt3rVonc7V547uyu7SZzz5z7Yv299lJMnhp1sKpydeNjnx7clV/1460g4EfE7On9udzgUixfNbW1tCW/qwP4ND55od8fbL4dXNfeJGeF1hj/nmXro7Jn3w1vb+Obz4R+lsOHTTz8R9rnzvdUnT3RkBw+ZmzcOxgf84wNvxI9/enxr2NXSJQPHPFxRYf/tbzx39szO1OY5q0pfn+xMXGWVXe+vyY6JUuf1nEw95z2V+o9zNqpKAAAAABRCVQkAAAAAAIDy5awqnf3TiWN//KrYqlLYYdht9rmGS/fPH+6//uo7l//59xf/sePS83uvrz7343v/+pfPsyPHOY9gVenKpX3xhlmrVj2T3SSVjrdfjse/9NJT16/uX7ZsQWIfg2bPnh53SIZMnirOrvfXJEsOT8yZ8d23g82B4apK587uCn+NVwUb1j+b3XkyP98+uvHN5+fPn5V4tiFMnTr5rW0v3v7hcHYPUZLHJ6fwjNn99BVxfPqKe18vLl+YHP/ZwzWbUeSLz96aM+ehc5TU0jL12NHfZ7eKU+B1GKXrw3WtT7akN35YOIzDzSWVej3ZAVH27X09Hvb00w/9mxBOXLxqoIk0d2b818i7nSvD/Zt9fPnyhXd+OpZ9rii3bh5a/3pblbMfLq0q5z3OyRPvxJtMnz6l79d21qJFcxN7GtTc3BSeNLl5zqrSic+3J3ZT2bUzXVUq6nqOU+d5j1PUcc5GVQkAAADy6O+/19PTEZbpFcADqkoAAAAAAACUL09V6aefvvzDya/GoqoUdvvjj3/bZ/WcutXx+4v/mM2xGyMo8IxRHvuq0vIXFiyYP/hKsiZPbj7xxdvZnUSpWcXZ8e6qZMPhybkzz5/bnRwwZFXpwne7n5gzI348WPvK4uzOU7nx/SfJTapra2u9dfNQdid941tVqnl8+op7X3OfGDykra0t2QEjyrudKydNak488xCam5u2bln+y53j2c37Cr0OU3ur7uiRzdnNU3uov6o0pHDEUgW8WMf2l7PP1ffrJEXz589Kj85YuGD2N6fT8yClkqoqhfFVmmZBOCPJzXNWlTasfzaxj0pq4qm+4q7nKPWf9ygFHudsVJUAAAAgj97ezq6uSlimVwAPqCoBAAAAAABQvjxVpVPfDfSUalaV1l388z9/8oe2nR/+7q3Otg8/+uePj7164Vp2WLSHqKoUEnaefcZUen45tq277fcX//Gdy8s+vbHpxA9bwzL8OWor/bnnQHaT8cwjWFW6fnV/c/NAayBO0kirSkmTJjU/OXfm9OlTUo9XqW1Ur+J0bH85+fLmz5/VfaErNSZbVbp0cW9r60NzpKxY8fRwdZdkshWIyZMH3tHSJU+Goz1jxtTU2ldWD11/+mDXK+EgJJN8F+Hgp9aGtLRMy+6nr4jj01fc+wpbxWPe2FBjiqrqCYco8YQDwhU5d+7MkHB8UquGK+EUeB1+dnxrskgTzJgxZfGiuS8sWxBu25aWqcmVw1VWCq8qhZcUTtCQFayZM6cuWfzktGmT40dSvaAoJ758O3nWIrNmTQtv7Yk5M1JvORy0H28dye4kTqqqFI5MYushjLSqFJ793c6VyRcVbuSfbx9NDSvqeu4r6Lz3FX2cs1FVAgAAgDzMqgQ1qSoBAAAAAABQvppVpR9//CLqFFWpKr16/urTm99q+e2CGa2/Tabl7xc8tf7NV89dqlJVCglPkX3eZC7+9EHUSrr28974wfDn6MFvbndmNxnPJKtKM2dO3bxxWfXs3fNadidDZtRVpWy2bX0x3tXoqkpTp07e2/VaPHvJ0cObw5uN1zY3N3337a7sfvqqVnG2blkerwqefmrOlUv7sntIVZWuXdm/cMFD1Y7lLyy489Ox7IbZxBWIuXNnvtOx4ttv3k8VnPbvW//k3JnxnidNar5w/sPsfrJ5ZfXieKstm1/IDhgu9R+fvoLe14XvdscDKsPXh/Lk59tHU3Netb/x3PWr+6O1N65//Na2F5PljnAthbeQ3U+B1+EraxbHw8Lb371rbapMEq6rzo4V0bxSw1VWCq8qheMQPR6OT/Lxea0t4fWEx09/vSO85ejB8O5u3jiYeq4li59Mbvjcs/POnR08Apcu7n1x+cLkgPgZh0yyqpTUtrS168N1X5/sDGf2/Lndhw9tXLnimaampipVpWXPz9+1c02Une+t/v3mF8I9kpowavLk5nAGsy+jkOs5SiHnva/o45yNqhIAAAAAhVBVAgAAAAAAoHw1q0p/ujzYKRqyqrTy63P//R/bUiWlZGb/7n++eu5ylapSeIrs8yZz+vY7USvpL3/5NH4w/Dl68KsftmU3Gc8kq0p5LF3yZHYnQ+bRqSpNnTr565PpStiXn29Pjtm5Y1V2P33DV3E2tj+f2LqyaNHc61eHniArWVWaMWNqaqaXmTOn3v7hcHarIfPjrSOrVy069Mmb2VVxzp3dNWXKpHj/mzcty47JpvCqUv7j01fQ+/r0+NbEE1b27F6X3UnOpKZUGnKCnTxjCrwOZ82aFo95e/sQzxXllzvHDx3cGNWEsim2qjR5cnPcubp0cW/8eLBr55p4k+UvLIgfP3miI7m3j/auT2xU2bpleXJtnOS1FK6BC9/tzo6Jkq0qTZrUHE7NkFOWhSP/TseK5COpyYWqC0fm1B/fze63E0K+AABOoElEQVS2r6DrOUoh573w45yNqhIAAAAAhVBVAgAAAAAAoHw1q0onvvlboWjIqtLa76789/+5NKokzVv16r8c+fzV81cH5lk6d+lfjn7xD29uafn7Bb/b9k71WZXCU2SfN5mvftgWtZJSj0cPnvhha3aT8UwjVJU2rH82OyYk2RratHHoqsCQVZz1r7fFDwZtba1DTqoTJVlVGtL+feuzW9WT5BQ3z7bNyw7Iptiq0oiOT/5Uf19dH65LPGfl6OFN2T3kzNzEjDdPzp2ZHRAlef3MmDE1Nd1NX6HXYXPzYIvms+Oj/Eej2KrSvNaW5KoZM6bEq7747K348WQB5tDBjfHjt24emjNncJKi7AmNc/uHw8k5iIZr2vQNVVUa0exA+atK4R+3U5nW2UhT/XqOUv95H4vjnI2qEgAAAACFUFUCAAAAAACgfNWrSj13vogLRUNWlf7hzS0zWn/7X1vnL9m1N9lHirPq5Lfrr9ysXlUKCU+UffY4X/3wlqpSiVWlpqam4aYHSVYFhtttqorzy53ja19ZHD8SLFu2IJ5bZsjUrCrNnDn10sW92Q1HnWRpp/XhPslwKaqqNIrjkz/V39e2LcsTT1vJzl+UM1cvf5TcT8f2l7NjouzetTY58sypHakBBV6H06ZNjsd8+MHa7IA8KbaqlPqnINlyOX/ug/jxcADjx5NTXR3/w5b48eD01+mjl8zO91bHI5e/sCA7IEqqqhTurBF15PJXlSoDJ3TYXlnOVL+eo9R/3sfiOGejqgQAAABAIVSVAAAAAAAAKF/1qtKt2w8VilJVpVfPX22Zv2BG62//x7o3siWl4RLtIVVVCk+UffY4Jx+eVenKz3tP/LA1JHpw77XV0V+HTBic3WGxSVaVnpgz48D+DdXz5efbszsZMo9IVWnWrGnZAVE631kRD2tra80O6Hu4ivPauqUrVzwT/7Xya9/j59tHs1slM2RVKVWKWL58YXbDPLnz07Hz5z749PjWgx+3x9m+7aV4z7NnT89ulU0hVaXRHZ8hM4r39Wb7YOEnOHtmZ3a3eXLii7eT+7lw/sPsmCg3bxycNKk5Hnn40OCUQVEKvA6Td9PMmVOPHt6cHVMzxVaVUlWW5Cv8/tqB+PFk+2XX+2vix8Of48eDo0c2D+RwnE1RjhwaSHIn4Z+p5PMmk6oqhQsmO6ZKknflyy89Ff+jt3/f+vd2rAoX2LLn56fu3JeHP4zJjOJ6jlL/eR+L45yNqhIAAAAAhVBVAgAAAAAAoHzVq0rf36xWVXpu/5EZrb8NefHTk9lK0nCJ9pCqKoUnyj57nK9uPlRViktKeTIOcy4lq0qLnnmollBnHpGqUqprkczePa/Fw5YsHnq2qGQVJ+v4H7ZkN0klW1VauGB294Wu5Cw0QXgx2W2Hy4kv337ppadmz57e3FxjHpiZM6dmN8+mkKpSVp7jk0w97ys1q9Jnx7dl958n+/etj3cyeXJzdkAys2ZNiwfvfG91am2B1+GG9c/GYyLz580KDx74aEP+KbmKrSql9hBGxqt+vHUkfvyDXa/Ej+/csSp+PDmX1Ig0NTUNN1dSqqp05NCm7JgqSdaQtr81dM3p65Od4RwlnqTas9RzPUep/7yPxXHORlUJAAAA8ujvv9fT0xGW6RXAA6pKAAAAAAAAlK96Veny9RNVqkqL3/0gqiqtvXg9W0kaLtEeUlWl8ETZZ48Td5NSf80TVaUo9VSVUnO/JFOlkhGnehVnzpzp167sz26VTKqq1PpkS9QxOH5sS7IaMX36lCoT+MQ5/fWOZ9vmPTyzSzUtLUNXIFIZo6pSnuMTpf73taNzZXLA/n3rs8+SJ+90DM5xNNxcN3EWLhi8yDe++XxqbYHX4fWr+1taBmtRKeF1rl61KNxlt384nN02TrFVpXDqk6sWLZobr0o+/uEHa+PHwzmKHw8HJH58pMLLSD5FnFRV6eyZ97NjqiRPVSnk4oU906ZNjkcuXjQ3O6b+6zlK/ed9LI5zNqpKAAAAkEdvb2dXVyUs0yuAB1SVAAAAAAAAKF8hVaVXL1zLVpKGS7SHEVWVUlFVGkXqqSqNrpIRp3oVJ3jpxWH3HyVZVZo6dfL5cx8MuSoI5yK7eTIXvts9e/b05CY1TZ8+JbufbMaoqlTJcXz6Cnpfe3YPVmIqD0/gM6Ik57EJ13B2QDLPPTsvHrxyRfrKLPA6DPnjV+/MnzcrHjmk1taWr092ZreNUv/rKbCqNH9+jfcynKamSrhgkk8RJ1lVam5u+vn20eyYKslZVQp5a9vgv0jBxQt7kmsLuZ7j1Hnex+I4Z6OqBAAAAHmYVQlqUlUCAAAAAACgfNWrSt/ffKhQlKoqPbf/SFRV+pejf3skT6I9pKpK4Ymyzz5cVJVGkUenqtTU1LSjc+WyZQ9NVPL+e6uzG8ZJ9pFSs/R8f+1AqtLwwa5XsnuIs2Txk8nBLS1TN29aduzo78+cfu/G95/8cud4lM8/3RaPqVKBSKaoqtIojk9fQe8ruTYIe8g+UZ5sbH8+3sn8+bOyA5JZumTwlYdjmFpb4HUY5dbNQx9+sLatrbW5edj5eqZMmXRqmNZK/a+nwKrS00/NiR9/+aWnbv9wOH+S+08mWVXKXiE1k7+qdPjQxnhkEK695NpCrudk6jnvY3Gcs1FVAgAAAKAQqkoAAAAAAACUr3pV6dbtalWlV89fbZm/YEbrb+eteTVbSRou0R5SVaXwRNlnHy6qSqPII1JVam5u+vCDteHBSxf3trRMix8friQQpUpVKeTQJ2/Ga4Np0yZ/9+2u7E5Czp7ZmWhSVF5YtuDHW0eyw/oefl/VKxBxCqkqje74FPW+bt08lCxyhP1k95AnO99bHe9k5syp2QHJzGttiQdv3bI8tbbA6zCVG9c/Pn5sy/ZtL7UtbZ08uTnePBIezG7Sl/v17Hp/TTxs7KpKK1YMXjltbUO/4JFm3KpKZ06/F48MwhmMVxV1PQ+ZUZz3sTjO2agqAQAAAFAIVSUAAAAAAADKV72q1HPniypVpZCn1m+MJlZa8s7ObCsp5J92719+6NOaVaXwRNlnHy6NWVX6+MAb2QH584hUlV5ZMzhtzpFDm5LFhvnzZt28cTC7eV+tqlLIqpXPxAMqw/QNQt7aNngQ5syZfuP7T7JjoiQPV84KRCFVpdEdnwLfV3iWeMCkSc2XLu7NjqmZZHksvIU7Px3LjokzY8aUeHBU00qmwOuwSq5d2b9507JUceXi+T3Zke/tWBUPWP7CsFWusLd42NhVlbZuWR4/XnP2qpwZt6pSuLTikUE40fGqAq/n6sl53sfiOGejqgQAAABAIVSVAAAAAAAAKF/1qlLIiW+qVZVePXdp9u+WRG2lv39pzT9/fGzNmT+tv3Jz1enzz+872PrSyvD4f5v/1IrPT1WpKoWnyD5vlTROVWnJ4ifjPe96f012QP48IlWl19ctTa5q3/BcvCpY98qS7OZ9OapKVy7ta2mZmthT5b0dq7LDXlmzOB6wckW1g5B8zTkrEIVUlUZ3fAp8X5s2DnZsgo7tgwWS/Dn99Y7kTk6e6MiOiXL+3O7k/DnHj21JDSjwOqyZA/s3xDsJjh7enB2zZ/dga6jKE61etWi4YQVWlVJzCg039dCIMm5Vpc+Pb4tHVh5+XwVez3lS87yPxXHORlUJAAAAgEKoKgEAAAAAAFC+mlWlP10e7BRlq0ohK7/6Jm4rDZn/55+WvfJNd5WqUniK7PNWSeNUlZKFh82blmUH5M+jWVX68daRhQsGZ44K9u9bn91DzapSyEd71yd2U5kyZdLZMztTY5KvZMPrbdmdRDl3dtekSYMTreSsQIxFVSnn8SnwfX1zemeyOzSvtSU7pmZu3TyU3MlrD7+pZMKBGhxXqZw/90FqQIHXYZ60tEyL97Nnd3qKp5CjRzbHA4a7FH++fTSsioeNXVXp5ImO+PHg3cSqUWfcqkrJMxuE+zdeVeD1nDPVz/tYHOdsVJUAAAAAKISqEgAAAAAAAOWrWVX68ccvqleVfp1b6fJT6ze2zF+QKinN+offLerYua77z8nB0R6SVaXwFNnnrZLGqSpt3bI83nPrqEojcR7NqlLfrzPwTJkyKR4wbdrkc2d3pcbkqSqFLF++MB4WLF4095c7x5MDNm8anDKobWlrdg9RwvFJ7CZvBWIsqkp9+Y5Pse+rra01OSy8rzs/HcsOixJW7Xp/zaWLe1OPL10yOCFYeM03vv9kyG2TlZ4F82dnxxR4HdbMj7eOTJ48WH05sP+N7Jgzp9+LBwSff7otOybZLKpkXk+BVaWQxYlNZs6ceuP6x8m1Q+balf3ZB+OMT1UpXMPhqohHTprUnHxVxV7PNZPnvBd+nLNRVQIAAIA8+vvv9fR0hGV6BfCAqhIAAAAAAADlq1lVCjn1XY2q0t8KSxeuPbf/yOLOXYs6dv7T7v0vHv9q/ZWb2WHRHuKqUth59hmrp3GqSgc/bo/3HGzbsjw7Jmce2apSyK6da+IBlV+PYaobk7OqdPH8nunTpyT2VAnvIjkgNfPSJwfaU3sIz7t547Jk3aKSuwIxRlWlvhzHp9j3dfrUjuRkNcGLyxfe/uFwduSxo5vnz5sVBnz5+fbUquN/2JLcQ9vS1u+vHUgOCDtMVcuGnDCqqOvw6uWP5syZvmH9s2dO7ciujfLGhmfjnTQ3N128sCc75uaNg8mD89yz8368dSQ54MQXb8+aNThFTyXzeoqtKp080RFearx28aK535xOTyYW59DBjcuenx/Gh9eQXftgh2NbVQqXQcf2l1OHKLyq5JgCr+eiznvhxzkbVSUAAADIo7e3s6urEpbpFcADqkoAAAAAAACUL09V6aefvvzDydpVpZyJ9hBVlcJuw86zz1g9jVNVClm4cHa88+CphXNeX7d088ZlUYYsL509s/PwoY2pJPswSxY/mR1w8sQ7yZ0UVRHpy1HFCVn+woJ4TBDeWnJtzqpSyO5dD01oM3ly8+mvBysK5899kOyZhLXhic6d3fXLneNhuX/f+uRcQLEhKxDZjF1Vqa/W8Sn8fSWLbZG5T8xYvWrR+++t/uz41r17Xmt/47kliX1mq0p9D0+sFIQrec/udd9+8354tXu7XktOU1MZZkqlvuKuw0sX90Zrm5oq4YW9t2PV0SObL5z/MKy6fnX/saObly176Ai3tQ07mc/KFQ9N5hNu+U8OtJ8+tSPsZOuW5ckpsCJjWlXqe/juCMIL2LRx2cGP28Opv3nj4MkTHeHgbN60bO7cmfGY7MRccQqsKs2ZMz0cxr9laWs4xTNnTk31iyq/vuATD18/BV7PBZ73Yo9zNqpKAAAAkIdZlaAmVSUAAAAAAADKl6eqFHL2TyfGoqoUdpt9rpppqKrSkUOb4p1nNTU1ZTdJdmbyW7L4yeROiqqI9OWr4lzp3pucaCW8r2NHN8dr81eVQp5tmxcPDp5+ak5yDqLt215Krh1OS8vgixmyApHNmFaVqh+fvjF4Xxteb0tsV8OQVaXPjm/L9naGNGlS86FP3szuoa+46zCurOQRXvaQ7yjKiS/fTm+QMW3a5PjPY11Vunr5o/nzB+a2yq9KhabAqlIezc1N2UmT+oq7ngs878Ue52xUlQAAAAAohKoSAAAAAAAA5ctZVfrLL198+c2JYqtKYYdht9nnmnAZ06pS3681jGTzIemxqSqFHD28OdlzmDVr2qWLe6NVI6oqnTu7K9WQ2bb1xXjtnZ+OtbW1JtdmzZ8/K7yY+K9DViCyGdOqUl/V49M3Nu8rHLfJkwcnt6liuILHyRPvPJmYZGZI4YR+dnxbdtsoRV2H+Ssr4eIZsjyTzLq1S9KbJTy1cM6unWviv451VSnkx1tHNm9alpyJqIpwFZ0/90F2J1HGraoUXu2qlc+cOtmZ3Ulfcddzsee9wOOcjaoSAAAAAIVQVQIAAAAAAKB8OatKIXd+/vLy9cKqSmFXYYfZZ5mIWb58Yfz19KVLHir8FJVzZ3e9/trSxYvmTp8+JfFl+Mrkyc3ZwcliT35tba3Jnex4d1W8atXKZ7LPEuXA/g3xsFTZKc7qVYviMW9seDY7IM6b7c/FI4PwlqPHN6x/Nn5w7hMzshumsqNzZWI3A0fp+2sH4rW/3Dn+/nurU0cyMm3a5A2vt926eej0qR3xgy0tU7NPkU3ysL+1bbAcVTP1H58oY/G+zp7ZueLlp4dryoUDG9am5ndKJRz5VaueGXJ6pbD5i8sXXrm0L7tVnKKuw59vH929a+2KFU8n5+FJmTp1cjjCyQJYlezcsSpbWQlvc93aJTdvHKzyei6e3xP3ecKpT64K/3pEj4c9Jx9PFrF27VyTXJXMiS/eXvTME9lXFWlubgr7D7fGhe92Z7eNM9IrJJUq3bZwcMLNG45GOAubNy377tsaMw4Vcj0Xft77CjrO2agqAQAAAFAIVSUAAAAAAADKl7+qFPKvD/6QLSDlT2pXIqXk+tUDx49t2fne6g3rnw3p2P7ygY823LxxMDtyYmUs3tftHw4fOrhxR+fKTRuXvbZu6ZbNL+ze9crRI5uvXdmfHTxk7vx07NQf392757WN7c+3v/Hcnt1r//jVOz/fPpodOQ4Jr2T/vvU73l218c3nw9vZtmV514frPju+9frVvG8nypVL+44e3hSO8MAx+f3y8Kaq167GJ+FQn/56x0d712/etOz115a+te3F8O7CJXH18kfZwY9+CryeizrvUQo/zqpKAAAAABRCVQkAAAAAAIDyjaiqFCdbQMqf7N5EREQaOapKAAAAABRCVQkAAAAAAIDyja6qtP/GpWwHKU/Chtm9iYiINHJUlQAAACCP/v57PT0dYZleATygqgQAAAAAAED5RldVCrne8/XOP1/JlpGGSxgcNsnuR0REpMGjqgQAAAB59PZ2dnVVwjK9AnhAVQkAAAAAAIDyjbqqFOVaz9fHb11469r32W5SlLAqDLimpCQiIjJMVJUAAAAgD7MqQU2qSgAAAAAAAJSvzqpSnL/+9cueX078/MuJn375KiT8Ifw1PJgdKSIiIsmoKgEAAABQCFUlAAAAAAAAyldUVUlERERGF1UlAAAAAAqhqgQAAAAAAED5VJVERETKjaoSAAAAAIVQVQIAAAAAAKB8qkoiIiLlRlUJAAAAgEKoKgEAAAAAAFA+VSUREZFyo6oEAAAAQCFUlQAAAAAAACifqpKIiEi5UVUCAACAPPr77/X0dIRlegXwgKoSAAAAAAAA5VNVEhERKTeqSgAAAJBHb29nV1clLNMrgAdUlQAAAAAAACifqpKIiEi5UVUCAACAPMyqBDWpKgEAAAAAAFA+VSUREZFyo6oEAAAAQCFUlQAAAAAAACifqpKIiEi5UVUCAAAAoBCqSgAAAAAAAJRPVUlERKTcqCoBAAAAUAhVJQAAAAAAAMqnqiQiIlJuVJUAAAAAKISqEgAAAAAAAOVTVRIRESk3qkoAAAAAFEJVCQAAAAAAgPKpKomIiJQbVSUAAADIo7//Xk9PR1imVwAPqCoBAAAAAABQPlUlERGRcqOqBAAAAHn09nZ2dVXCMr0CeEBVCQAAAAAAgPJFX48GAMqlqgQAAADVmVUJalJVAgAAAAAAoHyqSgDwKFBVAgAAAKBOqkoAAAAAAAAAFGDPnh/TDwEAAAAA0GBUlQAAAAAAAACo15kz//5f/svm//W//k96BQAAAAAAjURVCQAAAAAAAIB6TZv2UaWysa3tVHoFAAAAAACNRFUJAAAAAAAAgLqcOfPvlcrGEBMrAQAAAAA0OFUlAAAAAAAAAOoSTakUxcRKAAAAADzG+vvv9fR0hGV6BfCAqhIAAAAAAAAAoxdPqWRiJQAAAAAee729nV1dlbBMrwAeUFUCAAAAAAAAYPSSUyqZWAkAAACAx5tZlaAmVSUAAAAAAAAARik1pZKJlQAAAAAAGpyqEgAAAAAAAACjlJ1SycRKAAAAAACNTFUJAAAAAAAAgNEYckolEysBAAAAADQyVSUAAAAAAAAARmO4KZWimFgJAAAAAKABqSoBAAAAAAAAMGJVplSKYmIlAAAAAIAGpKoEAAAAAAAAwIhVn1IpiomVAAAAAHjM9Pff6+npCMv0CuABVSUAAAAAAAAARqbmlEpRTKwEAAAAwGOmt7ezq6sSlukVwAOqSgAAAAAAAACMTJ4plaKYWAkAAACAx4lZlaAmVSUAAAAAAAAARiDnlEpRTKwEAAAAANBQVJUAAAAAAAAAGIH8UypFMbESAAAAAEDjUFUCAAAAAAAAIK8RTakUxcRKAAAAAACNQ1UJAAAAAAAAgLxGOqVSFBMrAQAAAAA0CFUlAAAAAAAAAHIZxZRKUUysBAAAAADQIFSVAAAAAAAAAMhldFMqRTGxEgAAAACPgf7+ez09HWGZXgE8oKoEAAAAAAAAQG2jnlIpiomVAAAAAHgM9PZ2dnVVwjK9AnhAVQkAAAAAAACA2uqZUimKiZUAAAAAmOjMqgQ1qSoBAAAAAAAAUEOdUypFMbESAAAAAMBjT1UJAAAAAAAAgBru3fv//vf//j9V8vLL5yqVjWGZXZXMf/7n/03vmv+/vXt70qo69EbNX9GXfcUNN1RxQRVVVFjho6iPbVGGzWLBZ+nigwVbXUipbEECAiIQTiIiIgoIyjGoEYmiBOHDpjmf6QZtzxJdhJgEZAWNLQjsIXM7mczRh5eeb5N+4XnqV13dY4455uF9NV7kVwMAAAAA4BaiqgQAAAAAAABAUVOn7ujUaVr4mT8AAAAAAMDtRFUJAAAAAAAAgKJUlQAAAAAAuKKqBAAAAAAAAEBxqkoAAAAAAFxRVQIAAAAAAACgOFUlAAAAAG4HjY1n6urmhZ/5A8DPVJUAAAAAAAAAKEpVCQAAAIDbQX39/CVLOoWf+QPAz1SVAAAAAAAAAChKVQkAAACA24FdlaBVqkoAAAAAAAAAFKWqBAAAAADAFVUlAAAAAAAAAIpTVQIAAAAA4IqqEgAAAAAAAADFqSoBAAAAAHBFVQkAAAAAAACA4lSVAAAAAAC4oqoEAAAAAAAAQHGqSgAAAAAAXFFVAgAAAAAAAKA4VSUAAAAAbgeNjWfq6uaFn/kDwM9UlQAAAAAAAAAoSlUJAAAAgNtBff38JUs6hZ/5A8DPVJUAAAAAAAAAKEpVCQAAAIDbgV2VoFWqSgAAAAAAAAAUpaoEAAAAAMAVVSUAAAAAAAAAilNVAgAAAADgiqoSAAAAAAAAAMWpKgEAAAAAcEVVCQAAAAAAAIDiVJUAAAAAALiiqgQAAAAAAABAcapKAAAAAABcUVUCAAAAAAAAoDhVJQAAAABuB42NZ+rq5oWf+QPAz1SVAAAAAAAAAChKVQkAAACA20F9/fwlSzqFn/kDwM9UlQAAAAAAAAAoSlUJAAAAgNuBXZWgVapKAAAAAAAAABSlqgQAAAAAwBVVJQAAAAAAAACKU1UCAAAAAOCKqhIAAAAAAAAAxSVVpV/+cmX4RURERG7bvPfeyfx/JQAlaGw8U1c3L/w0bty4cePGjVfcOBBTVQIAAAAAAACgqKlXq0oiIiJym2eqLRahTerr5y9Z0in8NG7cuHHjxo1X3DgQU1UCAAAAAAAAoKj33jsZ76sgIiIit09++cuVqkrQZs3t0mDcuHHjxo0b7/jjQExVCQAAAAAAAAAAgEKmXt1iUVUJAAAAVSUAAAAAAAAAAAAKUVUCAAAgoaoEAAAAAAAAAABAIapK0AaNjWfq6uaFn/kDAABQyVSVAAAAAAAAAAAAKERVCdqgvn7+kiWdws/8AQAAqGSqSgAAAAAAAAAAABSiqgRtYFclAABuSapKAAAAAAAAAAAAFKKqBAAAQEJVCQAAAAAAAAAAgEJUlQAAAEioKgEAAAAAAAAAAFCIqhIAAAAJVSUAAAAAAAAAAAAKUVUCAAAgoaoEAAAAAAAAAABAIapKAAAAJFSVAAAAAAAAAAAAKERVCdqgsfFMXd288DN/AAAAKpmqEgAAAAAAAAAAAIWoKkEb1NfPX7KkU/iZPwAAAJVMVQkAAAAAAAAAAIBCVJWgDeyqBADALUlVCQAAAAAAAAAAgEJUlQAAAEioKgEAAAAAAAAAAFCIqhIAAAAJVSUAAAAAAAAAAAAKUVUCAAAgoaoEAAAAAAAAAABAIapKAAAAJFSVAAAAAAAAAAAAKERVCQAAgISqEgAAAAAAAAAAAIWoKkEbNDaeqaubF37mDwAAQCVTVQIAAAAAAAAAAKAQVSVog/r6+UuWdAo/8wcAAKCSqSoBAAAAAAAAAABQiKoStIFdlQAAuCWpKgEAAAAAAAAAAFCIqhIAAAAJVSUAAAAAAAAAAAAKUVUCAAAgoaoEAAAAAAAAAABAIapKAAAAJFSVAAAAAAAAAAAAKERVCQAAgISqEgAAAAAAAAAAAIWoKgEAAJBQVQIAAAAAAAAAAKAQVSVog8bGM3V188LP/AEAAKhkqkoAAAAAAAAAAAAUoqoEbVBfP3/Jkk7hZ/4AAABUMlUlAAAAAAAAAAAAClFVgjawqxIAALckVSUAAAAAAAAAAAAKUVUCAAAgoaoEAAAAAAAAAABAIapKAAAAJFSVAAAAAAAAAAAAKERVCQAAgISqEgAAAAAAAAAAAIWoKgEAAJBQVQIAAAAAAAAAAKAQVSUAAAASqkoAAAAAAAAAAAAUoqoEbdDYeKaubl74mT8AAACVTFUJAAAAAAAAAACAQlSVoA3q6+cvWdIp/MwfAACASqaqBAAAAAAAAAAAQCGqStAGdlUCAOCWpKoEAAAAAAAAAABAIapKAAAAJFSVAAAAAAAAAAAAKERVCQAAgISqEgAAAAAAAAAAAIWoKgEAAJBQVQIAAAAAAAAAAKAQVSUAAAASqkoAAAAAAAAAAAAUoqoEAABAQlUJAAAAAAAAAACAQlSVoA0aG8/U1c0LP/MHAACgkqkqAQAAAAAAAAAAUIiqErRBff38JUs6hZ/5AwAAUMlUlQAAAAAAAAAAAChEVQnawK5KAADcklSVAAAAAAAAAAAAKERVCQAAgISqEgAAAAAAAAAAAIWoKgEAAJBQVQIAAAAAAAAAAKCQ9947OXXqjvAzfwAAAIDbjKoSAAAAAAAAAABQMT7++OMaAGh/p06dyv+PEAAAJVBVAgAAAAAAAAAAKoaqEgA3h6oSAEDbqCoBAAAAAAAAAAAVI6kqffrJzob3fyciItIeSf63RlUJAKBtVJUAAAAAAAAAAICKoaokIiLtHVUlAIAiVJUAAAAAAAAAAICKoaokIiLtHVUlAIAiVJUAAAAAAAAAAICKoaokIiLtHVUlAIAiVJUAAAAAAAAAAICKoaokIiLtHVUlAIAiVJUAAAAAAAAAAICKoaokIiLtHVUlAIAiVJUAAAAAAAAAAICKoaokIiLtHVUlAIAiVJUAAAAAAAAAAICKoaokIiLtHVUlAIAiVJUAAAAAAAAAAICKoaokIiLtHVUlAIAiVJUAAAAAAAAAAICKoaokIiLtHVUlAIAiVJUAAAAAAAAAAICKoaokIiLtHVUlAIAiVJUAAAAAAAAAAICKoaokIiLtHVUlAIAiVJUAAAAAAAAAAICKoaokIiLtHVUlAIAiVJUAAAAAAAAAAICKoaokIiLtHVUlAIAiVJUAAAAAAAAAAICKoaokIiLtHVUlAIAiVJUAAAAAAAAAAICKoaokIiLtHVUlAIAiVJUAAAAAAAAAAICKoaokIiLtHVUlAIAiVJUAAAAAAAAAAICKoarUcTLtifs7d65uLmtXz4hPKT3Llk665+47ksyb+3A8of0yber9d/TrmWTO7AfjCbdYtm19ftbM0Y+MuSe86vTBQwYM6B1Pbqic93P82Pr3ti3Z9OaC2ppl8VGRlqOqBABQhKoSAAAAAAAAAABQMcpVVTp8fOOOY5s2H9m84dCWkPBL+DMMxjNvvSyY/8iYh+++oUwcPzxeZ9JjIzo17+UVU+NTSs/sWQ+mS40de088of0Snje99KSJI+IJrWbpksfSVzf18fviCbksXjQh+7ZvZv9n/rwx3bt3SZ83q6qqUzy/oRzvp13z2iuzp0y+t3//XtXVVel9du3aecCA3uPGDn11/az4FJE4qkoAAEWoKgEAAAAAAAAAABWjYFVpZ91b6w9um7Nrz6Tag00mHAoTwrT43Fsm9983KK1wlKhr187xOqpKzeWxidfeTN++PeIJ2Tz/3ISqqmulmi5dqteuKbQhVel5cenk9Lqxiqsqbdv6/EMP3pV5gqYNGNB7y+ZF8eki2agqAQAUoaoEAAAAAAAAAABUjDZXlXbVvblwb23cTWouYXI4JV7nFki5qkqb3lqwfNnkbPr06Z6eoqqUaLmq9OLSydnNfzp3rl75UqH3VnoOHVh9R7+e6aWDIUP6Pjh6yLixQ5M0uZVWQzneT3tk44Z5PXp0zTxNS15/bW68gkg2qkoAAEWoKgEAAAAAAAAAABWjDVWl+hMbXty3Iy4jlZJwYjg9XrOiU66qUpwhQ/qmp6gqJVqoKq16+YnOnavTmdXVVS8unRxPa6esXTMjvXRVVafSK1LF30/Z89bG+T17dkvvKhHe5+BBfcPdDh3av3v3LtlDqkrSalSVAACKUFUCAAAAAAAAAAAqxo1WlfbX/37O7j1xB6n0hNPDIvHKlZtsVWnggN4bNzzVat7ZtDBeJ04Zq0rbt72wds2MJH9459l4QvuleBWnlKrSurUzunbtnE6rqqpavGhCPK39sujZR9Orjxw5IJ7QXIq/n7Jn+PA701sKevTo+tKKx/fteTk7563fPz169JBkgqqStBpVJQCAIlSVAAAAAAAAAACAinFDVaUdxzZN27U/bh/daMIiYal4/QpNtqo09J474gltThmrSv/EFK/itFpVeu2V2d26Xdvnp6qq0zMLxsbT2jXTnrg/vYFJj93AYxZ/P+XNK+tnpfcT9O7d/fdvPBVPS7J29fTwLX3r90/Hh0SyUVUCAChCVQkAAAAAAAAAAKgYpVeV9tf/ftquA3HvqG0JS90yeyupKrWc4lWclqtKGzfM69GjazoheHLuQ/Ei7Z3x44alNzBzxgPxhOZS/P2UN/eOHJjeT7duXTa/fVP34JJbNapKAABFqCoBAAAAAAAAAAAVo8SqUv2JDXN2740bR0USFgzLxtequHTAqtLxY+vXrJq+auW0JvP2pmfiU3L5wzvPvrB4YpLXX5ubDL72yuwJ44cNH3Zn//69Bg/qO/aRe56aN+a9bUvi07MpsYqzft3M9IohNduXpodaqCptemtBr17d0qPBjOmj4sXjvPuHRQueHjtxwvBRowaH99yvX4+BA3qHRxs79p6lLzxWW7MsPiWb7PtJEj769B5G3T8odzTkxaWT43UayvF+sin4XL97dU56M8Gj44bGc240u3euCN+6ubMfCk86ZHDfcFcPPXTX7FkPrnxp6s4dL8bzsynj9zBN+Kdj2dJJUyaNHP3A//+Kwl3dd+/AcWOHPj3/kS2bF8WnpNm65bnlyyYn2bih2c2mwqeTTntt/ezsocMH14QPIn2irVsWh1cxbGj/AQN6h4dasXzKzxdaPO/Jh8Nd9b+jZ7jP8Hs4Mb5QLpvffjY82rQn7g//Ugon3n33HWHNhc+M27hhXjy5yezftzJ94S+teDwdf2X9rLDUiOE/vfPwjQrrT338vs1vL4xXaC6qSgAARagqAQAAAAAAAAAAFaPEqtKy/TVx16h4wrLxtZrLe0efX77710/t+M/fbP+PeTX3L909bsvhZz448Vo88yanA1aVamuWpSfGxo69Jz4ll3lPPpzOf+ihu3bvXD5q1ODMGtf07dsj7ZA0mVKqOIuefbSqqiqddke/nu/+4VpjpLmq0pbNi8Kf6aFgyuR748WzOXpo7bQn7h80qE/mak3o1q3LnNkPHjqwOl4hSfb9lChcMV6noRzvp6F8z/Xg6CHZ+a9eX7NpQ3736px+/a77jLJ69+62bu1v4rPSlPF7mGTJ8xMH3Nk7f/L1wmtsbi+p3P3EE5IsWzopnXb33df9OyF8cOmhn5pI/Xulfyaenv9I+Oc3Hh89esixI+viayU5uH/V5EkjW/j0w1erhc89zcYNT6Wn9OjRteFqO2vo0P6Zla6prq4KF40XaTKqSgAARagqAQAAAAAAAAAAFaOUqtKuujcn7zwQF42KJywbFo+vGOetg/N+s/0/4qzbdwMFnnbKLV9VGv3A4MGDrt1JrEuX6g2/ezJeJEmrVZwFT4/N9nDu7N9r65bF2QlNVpW2vbv4jn490/Fgwvhh8eK57NvzcvaUlo0cOeDg/lXxIg03t6rU6vtpKN9z9b/j2isdMKB3POGG8vT8Rzp3rs5cuQnV1VWzZo4+fmx9fHpDWb+HudVatnbNjPj03ArFq0pNCm8sV8BLzZv7cHytkDc3zh80qE9+dmTI4L7vbGplH6RcVSnMb6FpFoRPJF6kyagqAQAUoaoEAAAAAAAAAABUjFKqSgv31sYtozgT39v7nyvXj1j4wr/PeXrE4hf/8+XfTti2K56WS1g8vmIudcfXzX5v5G+2/8dTO0a9sm/6hgOzws/we9JW2lu3Ij7lZqYDVpV271xeXf1TvSVN1o1WlbI6d66+s3+vHj265sZbqG20XMWZN/fh7O0NGtTnvW1LcnPiqlLN9qUDBly3N86YMXc3V3fJJq70dOny0xONGH5neNs9e3bLHR0/run603OLxoeXkE32KcLLzx0N6d27e7xOQzneT0P5niuclc55fEorW1S1nPCKMhf8SfhG9u/fKyS8n9yh5ko4Zfwevrp+VrbxFfTs2XXY0P4PjBoc/rHt3btb9uBNqyqFWwofUJMVrF69ug0fdmf37l3SkSZ7QRtefzL7qSX69OkeHu2Ofj1zjxxe2uGDa+JF0uSqSuHNZM5uQpO31GRUlQAAilBVAgAAAAAAAAAAKkarVaWddW/F/aJcfr11592/mfPLQUN+8auB2fzLwH8bMnna+C074lOyCZeIr5vN9iPPJa2kXUeXpoPh92TwnUPz41NuZrJVpV69us2YNqrlLH3hsXiRJtPmqlKc2bMeTJdqW1WpW7cuS5c8lu7Gs3b1jPCw6dHq6qp3/7AoXqehxSrOrJmj00PB3Xf1q61ZFq+Qqyrtql0+ZPB11Y7RDww+dmRdfGKctNLTv3+vp+aN+cM7z+YKTsuXTb6zf6905c6dq7dtfT5eJ874ccPSs2bOeCCe0FyKv5+GMj3XtncXpxM6NV8fKiVHD63N7Xk19fH7du9cnhzdt/ulObMfzJZowncpPEK8Thm/h+MfHZZOC4+/eNGEXGknfK/mzxuT7Ct106pK4T0k4+H9ZMcHDugd7ieMb3pzQXjkZDA83f59K3PXGj7szuyJ9907cMvma2+gZvvSB0cPyU5Ir9hkslWlrJEjBix5fuKbG+eHT3brlsWrV017ZMw9VVVVqkoAADeHqhIAAAAAAAAAAFAxWq0q/fbgtrhclM3YN7f8z+H/T66klE3fe/73+C0t7csULhFfN5tNh55KWkknTrySDobfk8E3DsyOT7mZyVaVSjFi+J3xIk2m41SVunXr8ubGfCXs9dfmZucsXDA2Xqeh+SrOtKn3Z87uNHRo/907m94gK1tV6tmzW26nl169uh06sDo+q8kcPrhm3Nihq15+Ij6UZsvmRV27dk7XnzF9VDwnTtmrSqW/n4YyPdcr62dlLtjphcUT40VKTG5LpblzHmrbnDJ+D/v06Z7OeXJuE9dKcvzY+lUrpyU1oTjlrSp16VKddq5qti9Nx4NFCx9NTxn9wOB0fOOGednVXlw6OXNSp1kzR2ePpsl+l8J3YNu7i+M5SeKqUufO1eGjaXLLsvDmn5o3Jh5vMqpKAABFqCoBAAAAAAAAAAAVo9Wq0tzde+JyUZpfv1v7P//3iKSSNHDshNFrXvv11p1hfPyWHaPXvv6/npj5LwP/7d9nz49PzCZcIr5uNm8cmJ20knLjyeCGA7PiU25mboeq0pTJ98ZzQrKtoenT8tWXJE1WcSZPGpkOBiNHDmhyU50k2apSk5YvmxyfVSTZLW7uHTkwnhCnvFWlG3o/pafl51ry/MTMNTutXT09XqHE9M/s4HRn/17xhCTZ70/Pnt1y2xw1lPV7WF19bRenV9e38V8a5a0qDRzQO3uoZ8+u6aHfvTonHc8WjVatnJaOH9y/ql+/Humh+ANNc+jA6uyeWs01mhqaqiq1vAtT6VFVAgAoQlUJAAAAAAAAAACoGC1XlQ7VvxE3i7L5X0/M/MWvBvb6v/91xKKl8dGQRzb+YVLtgXg8l3Ch+Opp3jgwR1Xpn1hVqqqqam4blmz1pbllc1Wc48fWTxg/LB0JRo0anO4t02RarSr16tWtZvvS+MQ2J1vaGXB9n6S5lKuq1Ib3U3pafq7ZM0dnLtsp3r+oxOzc8WJ2nXlzH47nJFm8aEJ25ttvLchNKOP3sHv3Lumc55+bEE8oJeWtKuX+VZBtE23d8lw6Hl5gOp7d6mr9b2em48GmN/NvL5uFz4xLZ45+YHA8IUmuqhT+ySpLR65BVQkAoBhVJQAAAAAAAAAAoGK0XFWqOfZWXCtK8+utO//lXwf/4lcD/+2xx+OjN5RwofjqaTZev6tS7dGlGw7MCkkGl+4al/zZZMLkeMHyJltVuqNfzxXLp7Sc11+bGy/SZDpIValPn+7xhCTznxqTThs5ckA8oeH6Ks5jE0c8Muae9M9OV/seRw+tjc/KpsmqUlXVtU1ygtGjh8QnlpJjR9Zt3fLcK+tnrXxpapq5sx9KV+7bt0d8VpyyVJXa9n6aTBue64mp1wo/wea3F8bLlpINv3syu862rc/Hc5Ls37eyc+fqdObqVde2DEpSxu9h9p+mXr26rV09I57TaspbVcpVhrJ3uGfXinQ82zJa9Oyj6Xj4PR0P1q6Z8VNWp5meZM2qn5JdJPxrKnvdbHJVpfCFiee0LapKAABFqCoBAAAAAAAAAAAVo+Wq0uajm+NaUZr7l6/5xa8Ghjz0ysb46A0lXCi+epo39l9XVUpLSqXkJuy5lK0qDb3nulpCwXSQqlKua5HN0hceS6cNH9b0blHZKk5s/W9nxqfkEleVhgzu+962JdldaIJwM/G5zWXD608+9NBdffv2qK6+rvIU69WrW3x6nLJUlWKlvJ9sijxXblelV9fPjtcvJcuXTU4X6dKlOp6QTZ8+3dPJC58Zlztaxu/hlMn3pnMSgwb2CYMrXpxS+pZc5a0q5VYIM9NDhw+uScefWzQ+HV+4YGw6nt1L6oZUVVU1t1dSrqq0ZtX0eE7boqoEAFCEqhIAAAAAAAAAAFAxWq4qvXH43bhWlGbY088lVaUJ2/fER28o4ULx1dOk3aTcn6VEVSlJkapSbu+XbFqoZKRpuYrTr1+PXbXL47OyyVWVBtzZO+mWrF83M7u3Uo8eXVvYwCfNpjcX3Dty4PV7MrWkd+98pafJtFNVqZT3k6T4cy2Y/0h2wvJlk+OrlJKn5l3b4yjeuymXIYOvfcmnPXF/7mgZv4e7dy7v3ftaLSon3Oe4sUPDP2WHDqyOz01T3qpS+Oizh4YO7Z8eyo4//9yEdDx8Rul4eCHp+I0Kt5G9RJpcVWnz28/Gc9oWVSUAgCJUlQAAAAAAAAAAgIpRnqrStl3x0RtKy1WlXFSV2pAiVaW2VTLStFzFCR56sNn1k2SrSt26ddm65bkmDwXhs4hPz2bbu4v79u2RPaVVPXp0jdeJ005VpU4lvJ+GMj3XC4uvVWI6Xb+Bzw0lu39R+A7HE7K5796B6eRHxuS/mWX8Hob8/o2nBg3sk85s0oABvd/cOD8+N0nx+yljVWnQoFaepTlVVZ3CFyZ7iTTZqlJ1ddXRQ2vjOW2LqhIAQBGqSgAAAAAAAAAAQMVouaq0+ejmuFaU5v7la5Kq0ui1r8dHbyjhQvHVm4uqUhvScapKVVVVC+Y/MmrUdRvCPPvMuPjENNk+Um6Xnj27VuQqOs8tGh+vkGb4sDuzk3v37jZj+qh1a3/z9qZn9u15+fix9Ulee2V2Oieu9DSZclWV2vB+Gsr0XNmjQVghvlApmTb1/nSRQYP6xBOyGTH82p2Hd5g7WsbvYZKD+1c9/9yEkSMHVFc3u/9U166d32qmrVT8fspYVbr7rn7p+MMP3XXowOrSk10/m2xVKf6GFImqEgBAEapKAAAAAAAAAABAxWi5qlRz7K24VpRmwtadv/zXwb/41cB/HTchPnpDCReKr95cVJXakA5SVaqurnr+uQlhsGb70t69u6fjLZRDGlqsKoWsevmJ9GjQvXuXd/+wKF4kZPPbC6sy/ZQHRg0+fHBNPK3h+ucqsbBRlqpS295PuZ7r4P5V2QJPWCdeoZQsfGZcukivXt3iCdkMHNA7nTxr5ujc0TJ+D3PZt/ul9etmzp390MgRA7p0qU5PT4TB+JSGku9n0bOPptPar6o0Zsy1b87IkU3f8I1GVQkAoGNSVQIAAAAAAAAAACpGy1WlQ/VvxLWibIZMnp5srDRs/rPx0ZCRz694YNUr8Xgu4ULx1ZvL7VlVemnF4/GE0tNBqkrjH722bc6aVdOrMg2bQQP77N+3Mj69obWqUsjYR+5JJ3RqvmcyZ/a1l9CvX499e16O5yTJvq4SCxtlqSq17f2U8bnCVdIJnTtX12xfGs9pNdnyWHiEY0fWxXPS9OzZNZ2c1LSyKeP3sIXsql0+Y/qoXGFp+9YX4pnPLBibThj9QLNVrrBaOq39qkqzZo5Ox1vdvarEqCoBAHRMqkoAAAAAAAAAAEDFaLmqFDJ39564WZRm/JYdff99WNJWGjBm3H++/Ntx7/yfSbUHxm7adt+yVb96aGwY/x//dtfDv2tpd6Zwifi6LeT2qSoNH3ZnuvKiZx+NJ5SeDlJVmjRxRPbQ1Cn3pYeCieOHx6c3lFBVqq1Z1rt3t8xKnZ5ZMDaeNv7RYemER8a09BKy91xiYaMsVaW2vZ8yPtf0adc6NsG8uQ/Hc1rNpjcXZBfZuGFePCfJ1i2Ls/tBrV83MzehjN/DVrNi+ZR0kWDt6hnxnBcWX2sNtXChcWOHNjetjFWl3B5ZzW2ldUNRVQIA6JhUlQAAAAAAAAAAgIrRalXptwe3xeWibP7fNzanbaUm83/dO+rRd96LT0wTLhFft4XcPlWlbOFhxvRR8YTS0zGrSocPrhky+NrOUcHyZZPjFVqtKoW8uHRyZplOXbt23vz2wtyc7J1MmTQyXiTJls2LOne+tsFOiYWN9qgqlfh+yvhc72xamO0ODRzQO57Tag7uX5Vd5LHrHyqb8KKuzevUaeuW53ITyvg9LCW9e3dP13lhcX6Lp5C1a2akE5r7Kh49tDYcSqe1X1Vp44Z56XjwdOZQm6OqBADQMakqAQAAAAAAAAAAFaPVqtLOupY2REoyfkvtkMnTf/mvg3MlpT533TN03sKJNXvjU7IJl4iv20Jun6rSrJmj05UHtKk0kqZjVpUaru7A07Vr53RC9+5dtmxelJtTSlUpZPToIem0YNjQ/sePrc9OmDH92pZBI0cMiFdIEt5PZplSCxvtUVVqKO39lPe5Ro4ckJ0WnuvYkXXxtCTh0KJnH63ZvjQ3PmL4tQ3Bwj3v2/Nyk+dmKz2DB/WN55Txe9hqDh9c06XLtSrXiuWPx3Pe3vRMOiF47ZXZ8Zxss6hTdD9lrCqFDMuc0qtXt327X8oebTK7apfHg2lUlQAAOiZVJQAAAAAAAAAAoGK0WlUKWbi3Nu4XxZmwbdf9y9cMm79o6LyFI59f8dD6NybVHoin5RIWj6/Ycm6fqtLKl6amKwezZ46O55SYDltVClm08NF0Qqer7zDXjSmxqrR96ws9enTNrNQpPEV2Qm7npZdXTM2tEK47Y9qoquyWQCUXNtqpqtRQwvsp73NtemtBdvOl4MHRQw4dWB3PXLd2xqCBfcKE11+bmzu0/rczsyuMHDFgz64V2QlhwVy1rMkNo8r1Pdy548V+/XpMmXzv228tiI8meXzKveki1dVV27e9EM/Zv29l9uXcd+/AwwfXZCds+N2Tffpc25qpU3Q/5a0qbdwwL9xqenTY0P7vbMpvJpZm1cppo+4fFOaHe4iP/rygqhIAQEekqgQAAAAAAAAAAFSMUqpKu+renLyz9dJRGxKWDYvHV2w5t09VKWTIkL7p4sFdQ/pNmjhixrRRSZosL21+e+HqVdNyyfZhhg+7M56wccNT2UXKVRFpKKGKEzL6gcHpnCA8WvZoiVWlkMWLrtvQpkuX6k1vXqumbN3yXLZnEo6GC23ZvOj4sfXh5/Jlk7N7AaVKLGy0X1WpobX3U/bnyhbbEv3v6Dlu7NBnnxn36vpZS194bOrj9w3PrBlXlRqu31gpCN/kFxZP/MM7z4a7Xbrksex2QJ2a2VKpoXzfw5rtS5OjVVWdwo09s2Ds2jUztm19PhzavXP5urUzRo267g2PHNns5lSPjLluc6rwj/zLK6ZuemtBWGTWzNHZLbAS7VpVarj+n44g3MD0aaNWvjQ1fPT7963cuGFeeDkzpo/q379XOifemCuNqhIAQMekqgQAAAAAAAAAAFSMUqpKIcv218RFo+IJy8bXajW3VVVpzarp6eKxqqqq+JRsZ6Z0w4fdmV2kXBWRhtKqOLXvLc3uRROea93aGenR0qtKIfeOHJhODu6+q192D6K5sx/KHm1O797XbqbEwka7VpVafj8N7fBcUyaNzJzXiiarSq+unx33dprUuXP1qpefiFdoKN/3MK0qlSLcdpNPlGTD60/mT4h0794l/b29q0o7d7w4aNBPe1uVTlUJAKDiqCoBAAAAAAAAAAAVo8SqUv2JDXN27427RkUSFgzLxtequLRrVanhag0j23zIumWqSiFrV88Ij5PO7NOne832pcmhG6oqbdm8KNeQmT3rwfTosSPrRo4ckD0aGzSoT7iZ9M8SCxvtWlVqaPH9NLTPc4X31qXLtc2aWtBcsWfjhqfuzGzm06Twgb66fnZ8bpJyfQ9LryqFL8/LK6bGK2QzccLw/GkZdw3pt2jho+mf7V1VCjl8cM2M6aOyO2u1IHyLtm55Ll4kiaoSAEDHpKoEAAAAAAAAAABUjBKrSiH7638/bdeBuHHUtoSlwoLxVSoxo0cPSf/P/SOGX1f4KVe2bF406bERw4b279Gja3qtoEuX6nhytthTupEjB2QXWfD02PTQ2Efuia+SZMXyKem0XNkpzbixQ9M5j0+5N56Q5omp96Uzg/DIyfiUyfemg/3v6BmfmMuC+Y9klvnpLe3ZtSI9evzY+mefGZd7k4nu3btMmTTy4P5Vm95akA727t0tvkSc7GufM/taOarVFH8/SdrjuTa/vXDMw3c315QLLzYcze3vlEt482PH3tPk9krh9AdHD6mtWRaflaZc38Ojh9YuXjRhzJi7s/tK5XTr1iW84WwBrIUsXDA2rgaFx5w4Yfj+fStbuJ/tW19IK2fho88eCv/2SMbDytnxbBFr0cJHs4ey2fC7J4fec0d8V4nq6qqwfvhHY9u7i+Nz09zoN6T0qCoBABShqgQAAAAAAAAAAFSM0qtKITuObZq2a3/cO7rRhEXCUvH6Ijctu3euWL9u5sJnxk2ZfG/IvLkPr3hxyv59K+OZlZX2eK5DB1avWjltwfxHpk8b9djEETNnPLB40fi1a2bsql0eT24yx46se+v3Ty994bFpU++f+vh9Lyye8Ps3njp6aG088yYk3MnyZZMXPD122hP3h8eZPXP0kucnvrp+1u6dpT5OktqaZWtXTw9v+Kd38pvR4aFarl3dnIRXvenNBS8unTxj+qhJj42YM/vB8HThK7Fzx4vx5JsZVSUAgCJUlQAAAAAAAAAAgIpxQ1Wlhqt7K83ZvSduH5WecPots5+SiIiUElUlAIAiVJUAAAAAAAAAAICKcaNVpZD6Exte3Lcj7iCVknBiOD1eU0REbuGoKgEAFKGqBAAAAAAAAAAAVIw2VJWS7Kp7c+He2riM1FzC5HBKvI6IiNzyUVUCAChCVQkAAAAAAAAAAKgYba4qJdlZ99b6g9vm7NoTd5OShENhQpgWnysiIrdJVJUAAIpQVQIAAAAAAAAAACpGwapSmsPHN+44tmnzkc0bDm0JCb+EP8NgPFNERG63qCoBABShqgQAAAAAAAAAAFSMclWVREREmouqEgBAEapKAAAAAAAAAABAxVBVEhGR9o6qEgBAEapKAAAAAAAAAABAxVBVEhGR9o6qEgBAEapKAAAAAAAAAABAxVBVEhGR9o6qEgBAEapKAAAAAAAAAABAxVBVEhGR9o6qEgBAEapKAAAAAAAAAABAxVBVEhGR9o6qEgBAEapKAAAAAAAAAABAxVBVEhGR9o6qEgBAEapKAAAAAAAAAABAxVBVEhGR9o6qEgBAEapKAAAAAAAAAABAxVBVEhGR9o6qEgBAEapKAAAAAAAAAABAxVBVEhGR9o6qEgBAEapKAAAAAAAAAABAxVBVEhGR9o6qEgBAEapKAAAAAAAAAABAxVBVEhGR9o6qEgBAEapKAAAAAAAAAABAxVBVEhGR9o6qEgBAEapK7eKLL744cuRIXV1d/kAzGhoawvzwn7b5AxXl1ngKAAAAAAAAAAA6MlUlERFp76gqAQAUUYaq0qeffvphRvjvs5MnT54+ffrChQv5qbeN999/P/xH6q5du/IHmnHw4MEw/+jRo/kD/yS5zzTn0qVLV67WscLvX375ZXpWR3sKAAAAAAAAAABuPcn/fRwA2puqEgBA25ShqrRnz578f51dVVtb+9lnn+Vn3x4qvarU3GeauHjx4pWm7jkeAQAAAAAAAACA8lJVAuDmUFUCAGibslWVdu/effLkyc8++6yhoWHv3r3pf6idPn06f8Jt4NaoKoX7P9mUy5cvhzmHDx+ura2tr69Pz+poTwEAAAAAAAAAAAAAAMDNVLaq0qFDh7KDn3zySVJVOnbsWHb8NnFrVJUOHDiQP9CijvYUAAAAAAAAAAAAAAAA3EztVVX68ccfk6rS7t27s+OJy5cvf/fdd998801jY2P+WDmEq587d+7vf/97sv9Pqy5dutTkzZS+TpgZVggPlfxZsKoULhcuev78+Vav207KXlUq8U1evHgxPPXZs2e//fbb8Hv+MAAAAAAAAAAAAAAAAB1Ye1WVgtra2riqdOHChffffz85lNi1a9cXX3yRNliS1U6cOJE964cffkgmHz58ODsezgqnh/E///nPycj3339/9OjRdPEdO3Z8/vnn2VMSSanm2LFj4X6OHz+e3M8f//jHdEKJ6wT/+Mc/jhw5ks4M93Pq1Kk2V5V+/PHHcG7yUEG4sfBy4plhPMzMjl+5es/JWeEGcocSpZ9bSlUpfYe5kVxVqcQ3efHixQ8//DAcTWcGn376aX4eAAAAAAAAAAAAAAAAHVV7VZW+++67pG1SV1eXDp4/fz6ZXHO1whROSTtLhw8fTvozH3zwQfhz586d2e13/vSnPyXTduzYkd1s58yZM8nghQsXwp9///vfw7I1V9s4YfH0Wh999FF6SiIp1Rw5ciTbokmrSqWvk84M9u7du2/fvnS1mhuvKoX7qa+vz66Q+PDDD9OZ4SaTwfBOMgv85LPPPqu5es/J24iVfm7pVaVsMSkeKf1NnjhxIjkUPvowM/wMv3/yySe5aQAAAAAAAAAAAAAAAHRY7VVVqqurS5on2S10kt2HduzYcfr06WTk8uXLH3/8cXbmn//85+TPb775Jj3x+PHjyWDw17/+NR3/6KOPajIb+xw+fDj8uX///u+///7K1cWTCeGK//jHP9KzrvxcqkmExf/2t781NjamDZ/S10meqLa2NqyQjIQJ6bPfaFUp8f777585cybcz9dff500doLz588nM3/44Ydk66Fw6ewK4SaTUtAHH3yQHc8q/dxyVZVKfJPhzSePeeLEibSi9t133+XeNgAAAAAAAAAAAAAAAB1Z2apKBw8e/PHHH7/77ru//OUvhw4dSponBw4cSPZKCsJ4MhhvlZPMr62tTfpCybTPPvssOXrp0qV086Xg448/TsbTgs2pU6euZNYPv6QrX7x4MTk325i6kqkGnThxIjt+5UbWOXv2bDIzvdVU0lZqQ1Up3dkpkW4nld2GKC1uhbedDqa3fe7cuXQwVuK56fZHtdfbt29felZcTMqNlP4mz58/n8w8efJkOggAAAAAAAAAAAAAAEBlKVtVKXbgwIFvv/02nfbJJ58k49mSTOLUqVPJoWRvomQrnoMHDyZH//rXv4Y/9+7dm2zIs3///mT8m2++Sc764YcfrmTWv3jx4uWMML/m6lZFP1/tJ0mpZt++fWmTKlX6Op999lkyM36iMK3mxqtK2dpPItxesg9S9lDyQmqur0gdO3asprV9kK6UfG5zn2kYT+fE95wbKf1NBuHzrbnajPryyy8vXbqUPQQAAAAAAAAAAAAAAEBFKH9VKfx59OjR06dPX758OTutvr4+mZAbv5LZnujLL78Mf37xxRfJn0kH6cMPP6y5uhdTukvP999/H8Y//vjjmkwxJl2/SUeOHMlcMF+qySp9naSPVNPUE5WrqnTl5w5P+JmOXP55O6nwqpNLf/fdd8mdfPXVV9fObEqJ5yaf6b59+76/XvKJJOJ7zo2U/iaDcPX0ULjDkydPxi0yAAAAAAAAAAAAAAAAOrKyVZUOHDjQ2NjYwn44SY9l586d+QNXrpw/fz7pqHz66afhz//+7/9O/jx9+nT4M6nWnD179uLFi8n4n/70pys/Xzct2CTrNyfdoyk7uclqUOnrHDp0qKaZJypjVSm82JrrtzO6ktnQKdmHKry3mqtbEl24cCE7rUmlnJt+ptdOi8T3nBsp/U0mzpw5k629hc/9m2++yc0BAAAAAAAAAAAAAACgwypbVenQoUP5A9crZVeltHeU1JPef//9pLa0a9eu5KwjR45kx4PGxsbklBMnTtRcrdzE68fimk2q9HWSm9mxY0f+QFmrSsmryO1BlG6FFO720qVL4ULh9w8++CA7pzmlnFuWqlLpbzJ18eLFL7/8Mi0shWcv/VwAAAAAAAAAAAAAAAD+uW5eVSnZvSf47rvvcodOnTqVHEr2+Qk++OCDmqtVn+SstEjzxRdfJA2WZPzw4cPpIp9//nmyyLlz59LB5sQ1m1Tp6yQ3GXz//fe5Q+WqKqUbScU1pLQo9dVXX5V4w6lWzy1LVan0N5kTnjqpOQVnzpzJHwYAAAAAAAAAAAAAAKBDunlVpb/85S9J+eTTTz/NHUoqLrW1tT/88EMy8vXXXyeTE+HcZPzcuXPZ8S+//DJdJD0UF35icc0mVfo6SW8qOHnyZHb8T3/6044dO2puvKoU3mFuE6H/+q//Si7x5z//OTsenD59OjmUaLlWlNPquWWpKpX+JmPpubl3CwAAAAAAAAAAAAAAQId186pKV37ezKe2tjYt3ly+fPmjjz5KSimff/55OvPChQvJYM3VzX9+/PHHdP7OnTvTQ7ntjBoaGpLx999/P209haX+9re/ff3119mZcc0mq8R1Ghsbw7PUXL3DU6dOhT/Pnj374Ycf/nx3N1xVqrm6T9S3336bDJ47dy6sEAb379+fqzAF4Z1kX8VXX32Vm9CCVs8tS1XpSslvMjxpmJluvnTp0qX0xL/+9a/pNAAAAAAAAAAAAAAAADqym1pVOn/+fDI5CL8cPHgwqfrUXK3opH2kRNJrCurr67PjJ06cSMbjK164cCGskxytudrw2bdvX/J7WC07My7VZJW+zueff55OS4Vzjx8/XnPjVaVkL6YgXC5cNPk9vKKzZ8/mT7gqrUWFORcvXswfblHL55arqlTim/zb3/6WDIY3Fj7W9FsRloo7WgAAAAAAAAAAAAAAAHRMZagq7d27t6ap4lCTLly4cOLEibSLkrRTTp48GTdSwmAy4dSpU9nx8Gcy/sc//jE7ngjrfPHFF7t3707X37FjR7i3MJidlpRqjh07lh3MKnGd4Kuvvkp3KArPVV9f/8MPP3zwwQc1N15V+vjjj7/++uvsRcP4+fPn87N/du7cuWRauFz+WGtaPjf5TMPV8wcy4ncYj1wp7U1+++234b2lNbZkzkcffRS+LdcWAgAAAAAAAAAAAAAAoGMrQ1WpDS5fvvztt9+eO3eusbExf6xMwspnz54NV4lLUDeklHXSx7l06VL+WGnCVf7xj3+kuxuF37/55ptWizqnT59Oij3h0vljrSlybtuU8iZ/+OGHcD/nz5/PbbEFAAAAAAAAAAAAAABAx/fPqSpRFskuRgcOHMgfKEGRcwEAAAAAAAAAAAAAACCmqlSpzp49m2yL9NVXX+WPtabIuQAAAAAAAAAAAAAAANAkVaVKVV9fX1NTU1tbe/Hixfyx1hQ5FwAAAAAAAAAAAAAAAJqkqlSRLl++/OGHHzY0NLRhW6Qi5wIAAAAAAAAAAAAAAEBzVJUAAAAAAAAAAAAAAACAMlBVAgAAAAAAAAAAAAAAAMpAVQkAAAAAAAAAAAAAAAAoA1UlAAAAAAAAAAAAAAAAoAxUlQAAAAAAAAAAAAAAAIAyUFUCAAAAAAAAAAAAAAAAykBVCQAAAAAAAAAAAAAAACgDVSUAAAAAAAAAAAAAAACgDFSVAAAAAAAAAAAAAAAAgDJQVQIAAAAAAAAAAAAAAADKQFUJAAAAAAAAAAAAAAAAKANVJQAAAAAAAAAAAAAAAKAMVJUAAAAAAAAAAAAAAACAMlBVAgAAAAAAAAAAAAAAAMpAVQkAAAAAAAAAAAAAAAAoA1UlAAAAAAAAAAAAAAAAoAxUlQAAAAAAAAAAAAAAAIAyUFUCAAAAAAAAAAAAAAAAykBVCQAAAAAAAAAAAAAAACiD/w8EYOrDQ87k+wAAAABJRU5ErkJggg==;" vertex="1" parent="1">
          <mxGeometry x="40" y="40" width="1531.52" height="430" as="geometry" />
        </mxCell>
      </root>
    </mxGraphModel>
  </diagram>
</mxfile>
